<svg xmlns="http://www.w3.org/2000/svg" viewBox="0 0 800 800"><g fill="none" stroke-width="2"><path stroke="#8abda6" d="M149.56 325.92c-21.94 2.9-40.74 10.07-56.31 25.54" vector-effect="non-scaling-stroke"/><path stroke="#85cca0" d="M93.25 351.46q-18.12 18.12-15.71 44.04" vector-effect="non-scaling-stroke"/><path stroke="#8abda6" d="M77.54 395.5c.2 19.3 18.46 37.41 34.09 46.16 17.43 9.75 35.74 13.08 55.65 11.19 17.62-1.68 33.96-6.96 47.96-16.63q8.88-6.13 16.08-17.17c10.87-16.69 13.52-39.9 1.72-56.8" vector-effect="non-scaling-stroke"/><path stroke="#85cca0" d="M233.04 362.25c-18.09-27.06-51.91-39.61-83.48-36.33" vector-effect="non-scaling-stroke"/><path stroke="#108a47" d="M233.04 362.25c-2.26 1.35-4.3-.44-6.28-2.03q-.51-.41-.51.24v.43q0 .58.37 1.02c12.7 15.18 14.16 34.47 4.43 51.52-1.34 2.33-3.97 5.29-5.11 8.83q-.16.48-.52.81c-3.83 3.49-6.95 7.9-10.77 10.84-7.96 6.12-15.65 8.28-23.97 11.93q-2.46 1.08-5.53 1.46c-7.15.89-11.94 2.25-21.4 2.9-1.73.12-3.26 1.02-5.12 1.13-2.68.15-12.21 1.84-13.04-1.28q-.12-.45-.51-.7c-5.79-3.72-11.99-.96-18.41-5.28q-2.51-1.69-8.83-1.9-.52-.01-.89-.38c-4.15-4.07-9.47-4.41-13.44-8.02-8.8-8.02-15.7-14.59-20.85-24.77q-.17-.34.2-.29l.33.04q.64.09.29-.45c-2.56-4.02-2.06-9.44-5.94-12.8M93.25 351.46q.84.11 1.58.77.4.35.79-.01 5.85-5.51 12.71-9.6c3.68-2.2 10.35-6.83 15.61-8.43q12.86-3.93 25.62-8.27" vector-effect="non-scaling-stroke"/><path stroke="#8abda6" d="M21.79 531.75C38.71 516.04 54.4 503.04 71 489.01c7.12-6.02 15.87-14.82 24.5-21.55" vector-effect="non-scaling-stroke"/><path stroke="#85cca0" d="M95.5 467.46q2.41-1.52 5.12-2.73c2.24-.99 2.97-.17 3.13 2.09 1.04 14.78 3.35 34.34 7.61 48.85q.78 2.64 2.13 4.29.36.45.87.18 2.25-1.17 4.06-2.97 12.78-12.72 25.65-25.35 6.94-6.81 8.74-9c5.41-6.56 11.61-14.14 18.8-18.78a.58.57 68.2 0 1 .88.38c1.16 6.44 2.91 12.86 3.55 19.19q2.52 24.93 4.71 49.89.16 1.77-.33 3.01-.24.63-.88.42c-4.35-1.37-4.4-14.27-4.36-18.61q.05-4.35-2.5-16.51-.79-3.75-1.39-13.74c-.13-2.29 1.67-6.98-2.26-7q-1.86 0-4.13 1.81" vector-effect="non-scaling-stroke"/><path stroke="#8abda6" d="M164.9 482.88q-2.54 1.07-3.84 2.43-15.81 16.54-32.06 32.65" vector-effect="non-scaling-stroke"/><path stroke="#85cca0" d="M129 517.96c-5.91 5.79-12.02 13.29-19.18 17.42a.94.94 0 0 1-1.39-.63c-2.51-12.74-4.15-26.88-6.46-38.3q-1.82-9.03-3.9-18.01a.49.48 70.5 0 0-.68-.33c-7.47 3.55-14.07 10.55-19.89 16.35" vector-effect="non-scaling-stroke"/><path stroke="#8abda6" d="M77.5 494.46q-23.86 21.08-47.97 41.89c-1.38 1.19-2.52 1.69-.96 3.82q.63.84 1.67.77c27.31-1.81 54.89-.64 82.26-.73" vector-effect="non-scaling-stroke"/><path stroke="#85cca0" d="M112.5 540.21h4.25" vector-effect="non-scaling-stroke"/><path stroke="#8abda6" d="M116.75 540.21q21.52.02 43.03.09c3.54.01 9.24.46 13.97-.09" vector-effect="non-scaling-stroke"/><path stroke="#85cca0" d="M173.75 540.21c11.75-1.6 15.34-7.99 19.36-19.1 9.59-26.55 20.84-52.4 30.51-78.95q.87-2.37 1.25-4.74a.4.4 0 0 0-.58-.42c-8.08 4.19-16.05 10.08-23.79 13.27-15.77 6.49-33.02 10.42-50.07 7.85-18.26-2.75-36.49-6.62-51.43-18.33-13.85-10.85-23.6-24.99-27.95-42.06a.63.63 0 0 0-.98-.35q-2.19 1.6-3.28 4.35c-17.32 43.69-36.07 86.85-54.66 130.01q-.76 1.76-1.69 3.54-.22.41.01.82c2.76 4.95 8.37-1.3 11.34-4.35" vector-effect="non-scaling-stroke"/><path stroke="#108a47" d="M173.75 540.21q-.66-.26-1.67-.22-.72.03-.32-.56.84-1.26.25-2.51-.25-.53-.83-.45-3.07.45-7.5.14-5.21-.36-23.68-.34c-6.64 0-13.78.83-20.69 1.14-1.72.08-3.35.76-2.56 2.8M112.5 540.21l-1.66-3.91q-.13-.3-.33-.04l-1.01 1.33q-.27.37-.73.31c-2.58-.31-5.02-1.3-7.52-1.37-9.73-.28-20.07-1.09-29.73-.23-5.02.45-10.63.23-15.01.67q-7.92.8-15.89 1.58-.53.05-.91-.32c-2.51-2.46-1.08-5.84 1.01-8.02q13.69-14.26 29.04-26.7c2.96-2.4 5.5-5.17 8.17-7.81q.38-.38.07-.8-.23-.32-.5-.44M129 517.96c.72.48 1.46.43 2.17-.12 10.63-8.25 19.54-20.04 31.14-29.02q2.71-2.09 2.59-5.94M95.5 467.46q.11-.58-.2-1.1a.63.63 0 0 0-.95-.16c-5.29 4.46-10.67 10-15.22 13.97q-14.49 12.65-29.27 24.96c-7.68 6.39-16.92 15.06-25.84 22.11q-2.23 1.76-2.23 4.51" vector-effect="non-scaling-stroke"/><path stroke="#8abda6" d="M271.04 536.75q1.84-5.38 2.46-8 6.63-27.86 11.96-56" vector-effect="non-scaling-stroke"/><path stroke="#85cca0" d="m285.46 472.75 3.58-13.24q.07-.26.15 0 4.24 12.74 5.09 16.23c5.75 23.45 10.92 42.11 15.71 60.95q.12.48.52.77c3.01 2.24 7.8 2.22 12.24 2.3q4.66.08 23.18-.77" vector-effect="non-scaling-stroke"/><path stroke="#8abda6" d="m345.93 538.99 18.03-68.24" vector-effect="non-scaling-stroke"/><path stroke="#85cca0" d="M363.96 470.75q1.13-5.54 4.47-9.99a.52.52 0 0 1 .94.26q1.15 11.16 3.78 22c1.84 7.59 2.8 15.1 4.85 22.84q4.37 16.41 7.09 33.25.09.51.6.5 19.79-.04 39.55-.43 2.76-.05 4.81-.87.56-.23.45-.82-3.57-18.4-8.69-36.41-2.38-8.36-3.73-15.86c-3.82-21.12-8.62-42.01-12.47-63.13q-.09-.48-.57-.53c-12.49-1.31-25.48-.22-38.04-.02" vector-effect="non-scaling-stroke"/><path stroke="#8abda6" d="m367 421.54-18-.25" vector-effect="non-scaling-stroke"/><path stroke="#85cca0" d="M349 421.29q-1.2-.29-2.3.12-.48.18-.59.69-3.05 14.34-7.14 28.41c-2.59 8.9-5.2 21.41-9.41 31.75a.46.45-41.3 0 1-.86-.05l-15.93-60.5q-.14-.53-.68-.61-1.05-.15-2.59-.14-25.72.13-51.44.34c-1.67.02-2.76.72-3.05 2.48q-1.5 8.95-2.14 11.8-10.86 47.91-20.87 96c-.44 2.13-1.74 4.96-1.78 7.7a.6.59 89.1 0 0 .61.6q18.79-.56 36.92-.67 2.9-.02 3.29-2.46" vector-effect="non-scaling-stroke"/><path stroke="#108a47" d="M349 421.29v1.43q0 .47.43.65c2.38.97 4.63.3 6.73.56q5.51.66 11.09.58.71-.02.41-.66-.26-.57.2-1.07.42-.47-.04-.89-.34-.31-.82-.35M363.96 470.75q-.96-.5-1.89-.2-.44.14-.6.57-2.67 7.38-3.86 15.13-.07.48-.38.85l-1.07 1.31q-.29.35-.32.8c-.24 4.72-2.34 9.11-3.18 13.13-1.41 6.71-3.17 15.44-6.16 22.34-2.01 4.62-1.33 9.34-.57 14.31M285.46 472.75q-.78 1-.9 2.25-.04.42-.39.64l-2.3 1.47q-.4.26-.46.72c-1.25 9.31-2.97 18.14-4.73 27.76-1.55 8.47-4.22 17.18-6.53 25.51q-.13.48-.04.96l.93 4.69" vector-effect="non-scaling-stroke"/><path stroke="#8abda6" d="M542.21 532.25c-1.1-25.48-.13-51.58-.5-77" vector-effect="non-scaling-stroke"/><path stroke="#85cca0" d="m541.71 455.25.29-3.79" vector-effect="non-scaling-stroke"/><path stroke="#8abda6" d="m542 451.46 30.34-.84q.56-.01.88-.46.65-.89.24-2.16" vector-effect="non-scaling-stroke"/><path stroke="#85cca0" d="m573.46 448 .82-25.13q.02-.69-.67-.69l-102.52.35q-.38.01-.38.38l.22 28.29a.34.33 88.3 0 0 .34.33l27.72-.4a.37.37 0 0 1 .25.64c-1.91 1.69-1.06 27.41-.99 33.17.14 10.7-.49 22.58-.45 32.08q.05 9.94.09 20.57a.86.85.7 0 0 .84.85q19.42.29 39.26-.24 2.2-.06 3.74-.8.52-.25.52-.83l-.04-4.32" vector-effect="non-scaling-stroke"/><path stroke="#108a47" d="M573.46 448q-.61-.01-.44-.69.12-.49-.24-.14l-.37.38q-.22.21-.51.22l-28.25.77q-.62.02-1 .5l-1.29 1.61q-.28.35.12.55l.52.26M541.71 455.25q-.45-.31-.99-.22-.52.09-.51.62c.27 15.66.67 31.36-.26 47.01-.33 5.48.27 11.15.46 16.78.13 3.91-1.21 7.95.35 12.55q.16.48.66.39l.79-.13" vector-effect="non-scaling-stroke"/><path stroke="#8abda6" d="M589.25 453.54c-16.57 3.37-31.75 10.2-39.25 26.42" vector-effect="non-scaling-stroke"/><path stroke="#85cca0" d="M550 479.96q-2.38 9.38-1.37 18.81c2.16 20.3 16.72 30.18 35.37 35.44" vector-effect="non-scaling-stroke"/><path stroke="#8abda6" d="M584 534.21q14.28 3.67 28.94 3.4c19.7-.36 36.91-3.36 52.76-15.89q4.11-3.25 6.59-9.84" vector-effect="non-scaling-stroke"/><path stroke="#85cca0" d="M672.29 511.88q1.95-2.71 2.05-6.2.02-.5-.48-.49-19.33.24-43.11-.24-3.02-.06-6.01 1.09c-3.45 1.34-3.72 4.9-7.98 5.96-9.15 2.29-18.14-5.04-16.51-14.71" vector-effect="non-scaling-stroke"/><path stroke="#8abda6" d="M600.25 497.29q1.67-.48 2.5-.43c20.34 1.22 44.74-.19 67.7.42 2.56.06 6.95-.69 6.01-4.28" vector-effect="non-scaling-stroke"/><path stroke="#85cca0" d="M676.46 493q-.16-4.22-1.22-7.53-8.55-26.5-36.01-31.8c-17.53-3.39-32.74-4.2-49.98-.13" vector-effect="non-scaling-stroke"/><path stroke="#108a47" d="m676.46 493-1.03.34q-.47.16-.96.06c-5.04-1.04-11.21 1.02-16.5 1.08q-28.9.33-57.8-1.35-.51-.03-.72.43-1.01 2.27.8 3.73M672.29 511.88q-5.6 8.13-12.49 12.69-5.9 3.9-14.84 6.85-.46.15-.94.05-8.17-1.67-15.9.63c-13.87 4.14-27.24 1.91-41.19-.97q-.54-.11-.86.32l-2.07 2.76M550 479.96q.87-.13 1.58.36.38.26.77.03.8-.46.88-1.43.05-.48.33-.86c1.96-2.68 3.03-5.23 5.87-7.31q2.23-1.63 5.24-4.56c5.62-5.49 17.46-8.21 24.03-10.49q.5-.18.51-.71l.04-1.45" vector-effect="non-scaling-stroke"/><path stroke="#85cca0" d="M729.67 477.3a.88.88 0 0 1-1.51.1q-5.29-7.73-9.56-15.81c-3.51-6.63-8.5-6.9-15.6-6.65q-16.48.58-32.54.21a1.55 1.54 75.3 0 0-1.36 2.33q1.95 3.27 4.19 5.96 11.23 13.52 22.4 27.14 2.51 3.06-.18 6.66c-4.43 5.91-9.1 11.56-13.31 17.65q-5.55 8.03-11.45 15.81-1.81 2.38-2.72 4.94a1.42 1.41-83 0 0 1.47 1.89c12.44-1.21 24.96-.74 37.44-.83 3.01-.02 5.3-1.83 6.73-4.66q3.79-7.5 8.58-14.42c1.55-2.25 3.38-2.72 5.93-2.56q.53.03.81.48 4.8 7.57 8.83 15.61c2.53 5.06 6.28 6.12 11.94 5.76q16.38-1.03 32.75.08 3.87.26 7.47-1.24a1.52 1.51 58 0 0 .55-2.4c-6.5-7.34-11.15-12.99-18.51-22.56q-6.53-8.48-14.29-15.94-.39-.38-.2-.88 1.43-3.9 4.46-8 10.89-14.67 17.97-23.49 2.26-2.81 2.9-5.6a1.01 1-80.1 0 0-.85-1.22c-12.81-1.71-27.08-.69-40.16-.95q-.5-.01-.72.43l-11.46 22.16" vector-effect="non-scaling-stroke"/><path stroke="#8abda6" d="m430.04 495.5.52 4.16q.07.55.64.54 22.46-.66 44.87-.41c3.67.04 5.87.65 9.74-.67" vector-effect="non-scaling-stroke"/><path stroke="#85cca0" d="m485.81 499.12.7-26.11a.72.72 0 0 0-.68-.74c-18.38-1.04-36.62-.49-55.06-.8q-.53-.01-.59.51-1.33 11.84-.14 23.52" vector-effect="non-scaling-stroke"/><path stroke="#108a47" d="M485.81 499.12q-13.86-2.25-25.56-2.61-7.37-.23-17.01.42c-2.06.14-4.37-.4-6.98-.17q-2.69.23-6.22-1.26" vector-effect="non-scaling-stroke"/><path stroke="#85cca0" d="M603.75 472.04c-4.33 2.45-3.47 6.54-3.56 10.82q-.01.47.45.44 9.95-.63 19.9-1.17c6.66-.36 1.74-8.58-.83-10.63" vector-effect="non-scaling-stroke"/><path stroke="#108a47" d="m619.71 471.5.33-1.01q.16-.46-.16-.83c-3.5-4.11-14.64-3.37-17.9.94q-.35.45-.02.92.54.78 1.79.52" vector-effect="non-scaling-stroke"/><path stroke="#8abda6" d="M619.71 471.5q-8.06-2.59-15.96.54" vector-effect="non-scaling-stroke"/></g><path fill="#fff" d="M0 0h800v800H0V0Zm149.56 325.92c-21.94 2.9-40.74 10.07-56.31 25.54q-18.12 18.12-15.71 44.04c.2 19.3 18.46 37.41 34.09 46.16 17.43 9.75 35.74 13.08 55.65 11.19 17.62-1.68 33.96-6.96 47.96-16.63q8.88-6.13 16.08-17.17c10.87-16.69 13.52-39.9 1.72-56.8-18.09-27.06-51.91-39.61-83.48-36.33ZM21.79 531.75C38.71 516.04 54.4 503.04 71 489.01c7.12-6.02 15.87-14.82 24.5-21.55q2.41-1.52 5.12-2.73c2.24-.99 2.97-.17 3.13 2.09 1.04 14.78 3.35 34.34 7.61 48.85q.78 2.64 2.13 4.29.36.45.87.18 2.25-1.17 4.06-2.97 12.78-12.72 25.65-25.35 6.94-6.81 8.74-9c5.41-6.56 11.61-14.14 18.8-18.78a.58.57 68.2 0 1 .88.38c1.16 6.44 2.91 12.86 3.55 19.19q2.52 24.93 4.71 49.89.16 1.77-.33 3.01-.24.63-.88.42c-4.35-1.37-4.4-14.27-4.36-18.61q.05-4.35-2.5-16.51-.79-3.75-1.39-13.74c-.13-2.29 1.67-6.98-2.26-7q-1.86 0-4.13 1.81-2.54 1.07-3.84 2.43-15.81 16.54-32.06 32.65c-5.91 5.79-12.02 13.29-19.18 17.42a.94.94 0 0 1-1.39-.63c-2.51-12.74-4.15-26.88-6.46-38.3q-1.82-9.03-3.9-18.01a.49.48 70.5 0 0-.68-.33c-7.47 3.55-14.07 10.55-19.89 16.35q-23.86 21.08-47.97 41.89c-1.38 1.19-2.52 1.69-.96 3.82q.63.84 1.67.77c27.31-1.81 54.89-.64 82.26-.73h4.25q21.52.02 43.03.09c3.54.01 9.24.46 13.97-.09 11.75-1.6 15.34-7.99 19.36-19.1 9.59-26.55 20.84-52.4 30.51-78.95q.87-2.37 1.25-4.74a.4.4 0 0 0-.58-.42c-8.08 4.19-16.05 10.08-23.79 13.27-15.77 6.49-33.02 10.42-50.07 7.85-18.26-2.75-36.49-6.62-51.43-18.33-13.85-10.85-23.6-24.99-27.95-42.06a.63.63 0 0 0-.98-.35q-2.19 1.6-3.28 4.35c-17.32 43.69-36.07 86.85-54.66 130.01q-.76 1.76-1.69 3.54-.22.41.01.82c2.76 4.95 8.37-1.3 11.34-4.35Zm249.25 5q1.84-5.38 2.46-8 6.63-27.86 11.96-56l3.58-13.24q.07-.26.15 0 4.24 12.74 5.09 16.23c5.75 23.45 10.92 42.11 15.71 60.95q.12.48.52.77c3.01 2.24 7.8 2.22 12.24 2.3q4.66.08 23.18-.77l18.03-68.24q1.13-5.54 4.47-9.99a.52.52 0 0 1 .94.26q1.15 11.16 3.78 22c1.84 7.59 2.8 15.1 4.85 22.84q4.37 16.41 7.09 33.25.09.51.6.5 19.79-.04 39.55-.43 2.76-.05 4.81-.87.56-.23.45-.82-3.57-18.4-8.69-36.41-2.38-8.36-3.73-15.86c-3.82-21.12-8.62-42.01-12.47-63.13q-.09-.48-.57-.53c-12.49-1.31-25.48-.22-38.04-.02l-18-.25q-1.2-.29-2.3.12-.48.18-.59.69-3.05 14.34-7.14 28.41c-2.59 8.9-5.2 21.41-9.41 31.75a.46.45-41.3 0 1-.86-.05l-15.93-60.5q-.14-.53-.68-.61-1.05-.15-2.59-.14-25.72.13-51.44.34c-1.67.02-2.76.72-3.05 2.48q-1.5 8.95-2.14 11.8-10.86 47.91-20.87 96c-.44 2.13-1.74 4.96-1.78 7.7a.6.59 89.1 0 0 .61.6q18.79-.56 36.92-.67 2.9-.02 3.29-2.46Zm271.17-4.5c-1.1-25.48-.13-51.58-.5-77l.29-3.79 30.34-.84q.56-.01.88-.46.65-.89.24-2.16l.82-25.13q.02-.69-.67-.69l-102.52.35q-.38.01-.38.38l.22 28.29a.34.33 88.3 0 0 .34.33l27.72-.4a.37.37 0 0 1 .25.64c-1.91 1.69-1.06 27.41-.99 33.17.14 10.7-.49 22.58-.45 32.08q.05 9.94.09 20.57a.86.85.7 0 0 .84.85q19.42.29 39.26-.24 2.2-.06 3.74-.8.52-.25.52-.83l-.04-4.32Zm47.04-78.71c-16.57 3.37-31.75 10.2-39.25 26.42q-2.38 9.38-1.37 18.81c2.16 20.3 16.72 30.18 35.37 35.44q14.28 3.67 28.94 3.4c19.7-.36 36.91-3.36 52.76-15.89q4.11-3.25 6.59-9.84 1.95-2.71 2.05-6.2.02-.5-.48-.49-19.33.24-43.11-.24-3.02-.06-6.01 1.09c-3.45 1.34-3.72 4.9-7.98 5.96-9.15 2.29-18.14-5.04-16.51-14.71q1.67-.48 2.5-.43c20.34 1.22 44.74-.19 67.7.42 2.56.06 6.95-.69 6.01-4.28q-.16-4.22-1.22-7.53-8.55-26.5-36.01-31.8c-17.53-3.39-32.74-4.2-49.98-.13Zm140.42 23.76a.88.88 0 0 1-1.51.1q-5.29-7.73-9.56-15.81c-3.51-6.63-8.5-6.9-15.6-6.65q-16.48.58-32.54.21a1.55 1.54 75.3 0 0-1.36 2.33q1.95 3.27 4.19 5.96 11.23 13.52 22.4 27.14 2.51 3.06-.18 6.66c-4.43 5.91-9.1 11.56-13.31 17.65q-5.55 8.03-11.45 15.81-1.81 2.38-2.72 4.94a1.42 1.41-83 0 0 1.47 1.89c12.44-1.21 24.96-.74 37.44-.83 3.01-.02 5.3-1.83 6.73-4.66q3.79-7.5 8.58-14.42c1.55-2.25 3.38-2.72 5.93-2.56q.53.03.81.48 4.8 7.57 8.83 15.61c2.53 5.06 6.28 6.12 11.94 5.76q16.38-1.03 32.75.08 3.87.26 7.47-1.24a1.52 1.51 58 0 0 .55-2.4c-6.5-7.34-11.15-12.99-18.51-22.56q-6.53-8.48-14.29-15.94-.39-.38-.2-.88 1.43-3.9 4.46-8 10.89-14.67 17.97-23.49 2.26-2.81 2.9-5.6a1.01 1-80.1 0 0-.85-1.22c-12.81-1.71-27.08-.69-40.16-.95q-.5-.01-.72.43l-11.46 22.16Zm-299.63 18.2.52 4.16q.07.55.64.54 22.46-.66 44.87-.41c3.67.04 5.87.65 9.74-.67l.7-26.11a.72.72 0 0 0-.68-.74c-18.38-1.04-36.62-.49-55.06-.8q-.53-.01-.59.51-1.33 11.84-.14 23.52Z"/><path fill="#0b9940" d="M233.04 362.25c-2.26 1.35-4.3-.44-6.28-2.03q-.51-.41-.51.24v.43q0 .58.37 1.02c12.7 15.18 14.16 34.47 4.43 51.52-1.34 2.33-3.97 5.29-5.11 8.83q-.16.48-.52.81c-3.83 3.49-6.95 7.9-10.77 10.84-7.96 6.12-15.65 8.28-23.97 11.93q-2.46 1.08-5.53 1.46c-7.15.89-11.94 2.25-21.4 2.9-1.73.12-3.26 1.02-5.12 1.13-2.68.15-12.21 1.84-13.04-1.28q-.12-.45-.51-.7c-5.79-3.72-11.99-.96-18.41-5.28q-2.51-1.69-8.83-1.9-.52-.01-.89-.38c-4.15-4.07-9.47-4.41-13.44-8.02-8.8-8.02-15.7-14.59-20.85-24.77q-.17-.34.2-.29l.33.04q.64.09.29-.45c-2.56-4.02-2.06-9.44-5.94-12.8q-2.41-25.92 15.71-44.04.84.11 1.58.77.4.35.79-.01 5.85-5.51 12.71-9.6c3.68-2.2 10.35-6.83 15.61-8.43q12.86-3.93 25.62-8.27c31.57-3.28 65.39 9.27 83.48 36.33Z"/><path fill="#147b4d" d="M149.56 325.92q-12.76 4.34-25.62 8.27c-5.26 1.6-11.93 6.23-15.61 8.43q-6.86 4.09-12.71 9.6-.39.36-.79.01-.74-.66-1.58-.77c15.57-15.47 34.37-22.64 56.31-25.54ZM233.04 362.25c11.8 16.9 9.15 40.11-1.72 56.8q-7.2 11.04-16.08 17.17c-14 9.67-30.34 14.95-47.96 16.63-19.91 1.89-38.22-1.44-55.65-11.19C96 432.91 77.74 414.8 77.54 395.5c3.88 3.36 3.38 8.78 5.94 12.8q.35.54-.29.45l-.33-.04q-.37-.05-.2.29c5.15 10.18 12.05 16.75 20.85 24.77 3.97 3.61 9.29 3.95 13.44 8.02q.37.37.89.38 6.32.21 8.83 1.9c6.42 4.32 12.62 1.56 18.41 5.28q.39.25.51.7c.83 3.12 10.36 1.43 13.04 1.28 1.86-.11 3.39-1.01 5.12-1.13 9.46-.65 14.25-2.01 21.4-2.9q3.07-.38 5.53-1.46c8.32-3.65 16.01-5.81 23.97-11.93 3.82-2.94 6.94-7.35 10.77-10.84q.36-.33.52-.81c1.14-3.54 3.77-6.5 5.11-8.83 9.73-17.05 8.27-36.34-4.43-51.52q-.37-.44-.37-1.02v-.43q0-.65.51-.24c1.98 1.59 4.02 3.38 6.28 2.03Z"/><path fill="#0b9940" d="M173.75 540.21q-.66-.26-1.67-.22-.72.03-.32-.56.84-1.26.25-2.51-.25-.53-.83-.45-3.07.45-7.5.14-5.21-.36-23.68-.34c-6.64 0-13.78.83-20.69 1.14-1.72.08-3.35.76-2.56 2.8h-4.25l-1.66-3.91q-.13-.3-.33-.04l-1.01 1.33q-.27.37-.73.31c-2.58-.31-5.02-1.3-7.52-1.37-9.73-.28-20.07-1.09-29.73-.23-5.02.45-10.63.23-15.01.67q-7.92.8-15.89 1.58-.53.05-.91-.32c-2.51-2.46-1.08-5.84 1.01-8.02q13.69-14.26 29.04-26.7c2.96-2.4 5.5-5.17 8.17-7.81q.38-.38.07-.8-.23-.32-.5-.44c5.82-5.8 12.42-12.8 19.89-16.35a.49.48 70.5 0 1 .68.33q2.08 8.98 3.9 18.01c2.31 11.42 3.95 25.56 6.46 38.3a.94.94 0 0 0 1.39.63c7.16-4.13 13.27-11.63 19.18-17.42.72.48 1.46.43 2.17-.12 10.63-8.25 19.54-20.04 31.14-29.02q2.71-2.09 2.59-5.94 2.27-1.81 4.13-1.81c3.93.02 2.13 4.71 2.26 7q.6 9.99 1.39 13.74 2.55 12.16 2.5 16.51c-.04 4.34.01 17.24 4.36 18.61q.64.21.88-.42.49-1.24.33-3.01-2.19-24.96-4.71-49.89c-.64-6.33-2.39-12.75-3.55-19.19a.58.57 68.2 0 0-.88-.38c-7.19 4.64-13.39 12.22-18.8 18.78q-1.8 2.19-8.74 9-12.87 12.63-25.65 25.35-1.81 1.8-4.06 2.97-.51.27-.87-.18-1.35-1.65-2.13-4.29c-4.26-14.51-6.57-34.07-7.61-48.85-.16-2.26-.89-3.08-3.13-2.09q-2.71 1.21-5.12 2.73.11-.58-.2-1.1a.63.63 0 0 0-.95-.16c-5.29 4.46-10.67 10-15.22 13.97q-14.49 12.65-29.27 24.96c-7.68 6.39-16.92 15.06-25.84 22.11q-2.23 1.76-2.23 4.51c-2.97 3.05-8.58 9.3-11.34 4.35q-.23-.41-.01-.82.93-1.78 1.69-3.54c18.59-43.16 37.34-86.32 54.66-130.01q1.09-2.75 3.28-4.35a.63.63 0 0 1 .98.35c4.35 17.07 14.1 31.21 27.95 42.06 14.94 11.71 33.17 15.58 51.43 18.33 17.05 2.57 34.3-1.36 50.07-7.85 7.74-3.19 15.71-9.08 23.79-13.27a.4.4 0 0 1 .58.42q-.38 2.37-1.25 4.74c-9.67 26.55-20.92 52.4-30.51 78.95-4.02 11.11-7.61 17.5-19.36 19.1ZM349 421.29v1.43q0 .47.43.65c2.38.97 4.63.3 6.73.56q5.51.66 11.09.58.71-.02.41-.66-.26-.57.2-1.07.42-.47-.04-.89-.34-.31-.82-.35c12.56-.2 25.55-1.29 38.04.02q.48.05.57.53c3.85 21.12 8.65 42.01 12.47 63.13q1.35 7.5 3.73 15.86 5.12 18.01 8.69 36.41.11.59-.45.82-2.05.82-4.81.87-19.76.39-39.55.43-.51.01-.6-.5-2.72-16.84-7.09-33.25c-2.05-7.74-3.01-15.25-4.85-22.84q-2.63-10.84-3.78-22a.52.52 0 0 0-.94-.26q-3.34 4.45-4.47 9.99-.96-.5-1.89-.2-.44.14-.6.57-2.67 7.38-3.86 15.13-.07.48-.38.85l-1.07 1.31q-.29.35-.32.8c-.24 4.72-2.34 9.11-3.18 13.13-1.41 6.71-3.17 15.44-6.16 22.34-2.01 4.62-1.33 9.34-.57 14.31q-18.52.85-23.18.77c-4.44-.08-9.23-.06-12.24-2.3q-.4-.29-.52-.77c-4.79-18.84-9.96-37.5-15.71-60.95q-.85-3.49-5.09-16.23-.08-.26-.15 0l-3.58 13.24q-.78 1-.9 2.25-.04.42-.39.64l-2.3 1.47q-.4.26-.46.72c-1.25 9.31-2.97 18.14-4.73 27.76-1.55 8.47-4.22 17.18-6.53 25.51q-.13.48-.04.96l.93 4.69q-.39 2.44-3.29 2.46-18.13.11-36.92.67a.6.59 89.1 0 1-.61-.6c.04-2.74 1.34-5.57 1.78-7.7q10.01-48.09 20.87-96 .64-2.85 2.14-11.8c.29-1.76 1.38-2.46 3.05-2.48q25.72-.21 51.44-.34 1.54-.01 2.59.14.54.08.68.61l15.93 60.5a.46.45-41.3 0 0 .86.05c4.21-10.34 6.82-22.85 9.41-31.75q4.09-14.07 7.14-28.41.11-.51.59-.69 1.1-.41 2.3-.12Z"/><path fill="#147b4d" d="m349 421.29 18 .25q.48.04.82.35.46.42.04.89-.46.5-.2 1.07.3.64-.41.66-5.58.08-11.09-.58c-2.1-.26-4.35.41-6.73-.56q-.43-.18-.43-.65v-1.43Z"/><path fill="#0b9940" d="M573.46 448q-.61-.01-.44-.69.12-.49-.24-.14l-.37.38q-.22.21-.51.22l-28.25.77q-.62.02-1 .5l-1.29 1.61q-.28.35.12.55l.52.26-.29 3.79q-.45-.31-.99-.22-.52.09-.51.62c.27 15.66.67 31.36-.26 47.01-.33 5.48.27 11.15.46 16.78.13 3.91-1.21 7.95.35 12.55q.16.48.66.39l.79-.13.04 4.32q0 .58-.52.83-1.54.74-3.74.8-19.84.53-39.26.24a.86.85.7 0 1-.84-.85q-.04-10.63-.09-20.57c-.04-9.5.59-21.38.45-32.08-.07-5.76-.92-31.48.99-33.17a.37.37 0 0 0-.25-.64l-27.72.4a.34.33 88.3 0 1-.34-.33l-.22-28.29q0-.37.38-.38l102.52-.35q.69 0 .67.69l-.82 25.13Z"/><path fill="#147b4d" d="M573.46 448q.41 1.27-.24 2.16-.32.45-.88.46l-30.34.84-.52-.26q-.4-.2-.12-.55l1.29-1.61q.38-.48 1-.5l28.25-.77q.29-.01.51-.22l.37-.38q.36-.35.24.14-.17.68.44.69Z"/><path fill="#0b9940" d="m676.46 493-1.03.34q-.47.16-.96.06c-5.04-1.04-11.21 1.02-16.5 1.08q-28.9.33-57.8-1.35-.51-.03-.72.43-1.01 2.27.8 3.73c-1.63 9.67 7.36 17 16.51 14.71 4.26-1.06 4.53-4.62 7.98-5.96q2.99-1.15 6.01-1.09 23.78.48 43.11.24.5-.01.48.49-.1 3.49-2.05 6.2-5.6 8.13-12.49 12.69-5.9 3.9-14.84 6.85-.46.15-.94.05-8.17-1.67-15.9.63c-13.87 4.14-27.24 1.91-41.19-.97q-.54-.11-.86.32l-2.07 2.76c-18.65-5.26-33.21-15.14-35.37-35.44q-1.01-9.43 1.37-18.81.87-.13 1.58.36.38.26.77.03.8-.46.88-1.43.05-.48.33-.86c1.96-2.68 3.03-5.23 5.87-7.31q2.23-1.63 5.24-4.56c5.62-5.49 17.46-8.21 24.03-10.49q.5-.18.51-.71l.04-1.45c17.24-4.07 32.45-3.26 49.98.13q27.46 5.3 36.01 31.8 1.06 3.31 1.22 7.53Zm-72.71-20.96c-4.33 2.45-3.47 6.54-3.56 10.82q-.01.47.45.44 9.95-.63 19.9-1.17c6.66-.36 1.74-8.58-.83-10.63l.33-1.01q.16-.46-.16-.83c-3.5-4.11-14.64-3.37-17.9.94q-.35.45-.02.92.54.78 1.79.52Z"/><path fill="#147b4d" d="m589.25 453.54-.04 1.45q-.01.53-.51.71c-6.57 2.28-18.41 5-24.03 10.49q-3.01 2.93-5.24 4.56c-2.84 2.08-3.91 4.63-5.87 7.31q-.28.38-.33.86-.08.97-.88 1.43-.39.23-.77-.03-.71-.49-1.58-.36c7.5-16.22 22.68-23.05 39.25-26.42Z"/><path fill="#0b9940" d="m729.67 477.3 11.46-22.16q.22-.44.72-.43c13.08.26 27.35-.76 40.16.95a1.01 1-80.1 0 1 .85 1.22q-.64 2.79-2.9 5.6-7.08 8.82-17.97 23.49-3.03 4.1-4.46 8-.19.5.2.88 7.76 7.46 14.29 15.94c7.36 9.57 12.01 15.22 18.51 22.56a1.52 1.51 58 0 1-.55 2.4q-3.6 1.5-7.47 1.24-16.37-1.11-32.75-.08c-5.66.36-9.41-.7-11.94-5.76q-4.03-8.04-8.83-15.61-.28-.45-.81-.48c-2.55-.16-4.38.31-5.93 2.56q-4.79 6.92-8.58 14.42c-1.43 2.83-3.72 4.64-6.73 4.66-12.48.09-25-.38-37.44.83a1.42 1.41-83 0 1-1.47-1.89q.91-2.56 2.72-4.94 5.9-7.78 11.45-15.81c4.21-6.09 8.88-11.74 13.31-17.65q2.69-3.6.18-6.66-11.17-13.62-22.4-27.14-2.24-2.69-4.19-5.96a1.55 1.54 75.3 0 1 1.36-2.33q16.06.37 32.54-.21c7.1-.25 12.09.02 15.6 6.65q4.27 8.08 9.56 15.81a.88.88 0 0 0 1.51-.1Z"/><path fill="#147b4d" d="M541.71 455.25c.37 25.42-.6 51.52.5 77l-.79.13q-.5.09-.66-.39c-1.56-4.6-.22-8.64-.35-12.55-.19-5.63-.79-11.3-.46-16.78.93-15.65.53-31.35.26-47.01q-.01-.53.51-.62.54-.09.99.22ZM95.5 467.46c-8.63 6.73-17.38 15.53-24.5 21.55-16.6 14.03-32.29 27.03-49.21 42.74q0-2.75 2.23-4.51c8.92-7.05 18.16-15.72 25.84-22.11q14.78-12.31 29.27-24.96c4.55-3.97 9.93-9.51 15.22-13.97a.63.63 0 0 1 .95.16q.31.52.2 1.1ZM619.71 471.5q-8.06-2.59-15.96.54-1.25.26-1.79-.52-.33-.47.02-.92c3.26-4.31 14.4-5.05 17.9-.94q.32.37.16.83l-.33 1.01Z"/><path fill="#fff" d="M619.71 471.5c2.57 2.05 7.49 10.27.83 10.63q-9.95.54-19.9 1.17-.46.03-.45-.44c.09-4.28-.77-8.37 3.56-10.82q7.9-3.13 15.96-.54Z"/><path fill="#147b4d" d="m363.96 470.75-18.03 68.24c-.76-4.97-1.44-9.69.57-14.31 2.99-6.9 4.75-15.63 6.16-22.34.84-4.02 2.94-8.41 3.18-13.13q.03-.45.32-.8l1.07-1.31q.31-.37.38-.85 1.19-7.75 3.86-15.13.16-.43.6-.57.93-.3 1.89.2Z"/><path fill="#0b9940" d="M485.81 499.12q-13.86-2.25-25.56-2.61-7.37-.23-17.01.42c-2.06.14-4.37-.4-6.98-.17q-2.69.23-6.22-1.26-1.19-11.68.14-23.52.06-.52.59-.51c18.44.31 36.68-.24 55.06.8a.72.72 0 0 1 .68.74l-.7 26.11Z"/><path fill="#147b4d" d="M285.46 472.75q-5.33 28.14-11.96 56-.62 2.62-2.46 8l-.93-4.69q-.09-.48.04-.96c2.31-8.33 4.98-17.04 6.53-25.51 1.76-9.62 3.48-18.45 4.73-27.76q.06-.46.46-.72l2.3-1.47q.35-.22.39-.64.12-1.25.9-2.25ZM164.9 482.88q.12 3.85-2.59 5.94c-11.6 8.98-20.51 20.77-31.14 29.02-.71.55-1.45.6-2.17.12q16.25-16.11 32.06-32.65 1.3-1.36 3.84-2.43ZM676.46 493c.94 3.59-3.45 4.34-6.01 4.28-22.96-.61-47.36.8-67.7-.42q-.83-.05-2.5.43-1.81-1.46-.8-3.73.21-.46.72-.43 28.9 1.68 57.8 1.35c5.29-.06 11.46-2.12 16.5-1.08q.49.1.96-.06l1.03-.34ZM77.5 494.46q.27.12.5.44.31.42-.07.8c-2.67 2.64-5.21 5.41-8.17 7.81q-15.35 12.44-29.04 26.7c-2.09 2.18-3.52 5.56-1.01 8.02q.38.37.91.32 7.97-.78 15.89-1.58c4.38-.44 9.99-.22 15.01-.67 9.66-.86 20-.05 29.73.23 2.5.07 4.94 1.06 7.52 1.37q.46.06.73-.31l1.01-1.33q.2-.26.33.04l1.66 3.91c-27.37.09-54.95-1.08-82.26.73q-1.04.07-1.67-.77c-1.56-2.13-.42-2.63.96-3.82q24.11-20.81 47.97-41.89ZM430.04 495.5q3.53 1.49 6.22 1.26c2.61-.23 4.92.31 6.98.17q9.64-.65 17.01-.42 11.7.36 25.56 2.61c-3.87 1.32-6.07.71-9.74.67q-22.41-.25-44.87.41-.57.01-.64-.54l-.52-4.16ZM672.29 511.88q-2.48 6.59-6.59 9.84c-15.85 12.53-33.06 15.53-52.76 15.89q-14.66.27-28.94-3.4l2.07-2.76q.32-.43.86-.32c13.95 2.88 27.32 5.11 41.19.97q7.73-2.3 15.9-.63.48.1.94-.05 8.94-2.95 14.84-6.85 6.89-4.56 12.49-12.69ZM173.75 540.21c-4.73.55-10.43.1-13.97.09q-21.51-.07-43.03-.09c-.79-2.04.84-2.72 2.56-2.8 6.91-.31 14.05-1.14 20.69-1.14q18.47-.02 23.68.34 4.43.31 7.5-.14.58-.08.83.45.59 1.25-.25 2.51-.4.59.32.56 1.01-.04 1.67.22Z"/></svg>