<?xml version="1.0" encoding="UTF-8" standalone="no"?>
<!DOCTYPE svg PUBLIC "-//W3C//DTD SVG 1.1//EN" "http://www.w3.org/Graphics/SVG/1.1/DTD/svg11.dtd">
<svg xmlns="http://www.w3.org/2000/svg" version="1.1" viewBox="0.00 0.00 308.00 150.00">
<g stroke-width="2.00" fill="none" stroke-linecap="butt">
<path stroke="#818181" vector-effect="non-scaling-stroke" d="
  M 5.19 150.00
  C 8.00 149.76 15.40 146.21 11.19 142.56
  Q 10.80 142.22 10.29 142.22
  C 8.91 142.22 3.93 143.49 3.20 142.76
  Q 2.74 142.31 3.20 141.87
  Q 6.36 138.72 10.69 140.12
  Q 11.29 140.31 11.26 139.68
  L 11.22 138.89
  Q 11.19 138.31 10.62 138.23
  Q 5.58 137.44 2.22 141.19
  C 1.14 142.39 1.14 144.02 2.72 144.68
  C 4.12 145.26 7.85 144.02 9.65 143.96
  A 1.08 1.07 18.0 0 1 10.54 145.69
  Q 7.27 149.86 2.39 147.41
  Q 2.02 147.23 1.78 147.57
  L 1.27 148.26
  Q 0.81 148.90 1.54 149.20
  L 3.44 150.00"
/>
<path stroke="#82aacb" vector-effect="non-scaling-stroke" d="
  M 307.91 4.18
  A 4.09 4.09 0.0 0 0 303.82 0.09
  A 4.09 4.09 0.0 0 0 299.73 4.18
  A 4.09 4.09 0.0 0 0 303.82 8.27
  A 4.09 4.09 0.0 0 0 307.91 4.18"
/>
<path stroke="#818181" vector-effect="non-scaling-stroke" d="
  M 287.04 13.15
  Q 281.82 22.63 276.51 32.05
  C 274.99 34.74 274.73 36.81 275.07 39.73
  A 0.37 0.37 0.0 0 0 275.53 40.05
  L 300.18 33.89
  Q 300.74 33.75 300.74 33.18
  L 300.75 27.30
  Q 300.76 26.63 300.11 26.79
  L 287.15 30.07
  Q 286.62 30.21 286.87 29.71
  Q 291.99 19.90 297.21 10.14
  C 298.28 8.14 298.11 6.13 297.96 4.00
  Q 297.91 3.35 297.28 3.51
  L 275.63 8.83
  Q 275.00 8.99 275.00 9.64
  L 275.00 15.05
  Q 275.00 15.68 275.61 15.53
  L 286.68 12.69
  Q 287.39 12.50 287.04 13.15"
/>
<path stroke="#818181" vector-effect="non-scaling-stroke" d="
  M 251.62 28.11
  A 0.33 0.33 0.0 0 1 252.24 27.94
  L 261.57 43.29
  A 0.33 0.33 0.0 0 0 261.94 43.44
  L 269.44 41.59
  A 0.33 0.33 0.0 0 0 269.69 41.27
  L 270.06 10.74
  A 0.33 0.33 0.0 0 0 269.66 10.42
  L 262.25 12.16
  A 0.33 0.33 0.0 0 0 262.00 12.48
  L 262.00 29.35
  A 0.33 0.33 0.0 0 1 261.39 29.52
  L 251.98 15.02
  A 0.33 0.33 0.0 0 0 251.62 14.88
  L 244.04 16.72
  A 0.33 0.33 0.0 0 0 243.79 17.04
  L 243.33 47.71
  A 0.33 0.33 0.0 0 0 243.74 48.03
  L 250.97 46.12
  A 0.33 0.33 0.0 0 0 251.22 45.81
  L 251.62 28.11"
/>
<path stroke="#818181" vector-effect="non-scaling-stroke" d="
  M 233.23 19.48
  A 0.36 0.36 0.0 0 0 232.95 19.83
  L 232.34 50.30
  A 0.36 0.36 0.0 0 0 232.78 50.66
  L 240.17 48.88
  A 0.36 0.36 0.0 0 0 240.44 48.53
  L 240.81 18.08
  A 0.36 0.36 0.0 0 0 240.37 17.72
  L 233.23 19.48"
/>
<path stroke="#818181" vector-effect="non-scaling-stroke" d="
  M 214.06 42.66
  A 0.32 0.32 0.0 0 1 214.30 42.36
  L 227.69 38.90
  A 0.32 0.32 0.0 0 0 227.93 38.59
  L 227.89 33.51
  A 0.32 0.32 0.0 0 0 227.50 33.20
  L 214.39 36.34
  A 0.32 0.32 0.0 0 1 214.00 36.02
  L 214.00 30.60
  A 0.32 0.32 0.0 0 1 214.24 30.29
  L 228.59 26.59
  A 0.32 0.32 0.0 0 0 228.83 26.27
  L 228.66 21.03
  A 0.32 0.32 0.0 0 0 228.26 20.73
  L 206.28 26.27
  A 0.32 0.32 0.0 0 0 206.04 26.58
  L 205.91 57.02
  A 0.32 0.32 0.0 0 0 206.31 57.33
  L 229.11 51.73
  A 0.32 0.32 0.0 0 0 229.35 51.41
  L 229.20 45.65
  A 0.32 0.32 0.0 0 0 228.80 45.35
  L 214.25 49.02
  A 0.32 0.32 0.0 0 1 213.85 48.69
  L 214.06 42.66"
/>
<path stroke="#818181" vector-effect="non-scaling-stroke" d="
  M 198.80 33.97
  C 193.97 27.32 183.03 32.02 176.65 33.73
  Q 176.11 33.87 176.10 34.43
  L 175.65 64.62
  Q 175.64 65.11 176.12 64.99
  L 183.24 63.10
  Q 183.75 62.97 183.75 62.43
  L 183.75 52.82
  Q 183.75 52.21 184.33 52.03
  L 187.05 51.16
  Q 187.78 50.93 188.19 51.59
  L 193.38 60.08
  Q 193.65 60.53 194.17 60.41
  L 201.08 58.71
  Q 201.72 58.55 201.39 57.98
  L 196.23 49.23
  A 0.63 0.62 53.3 0 1 196.34 48.46
  Q 204.06 41.21 198.80 33.97"
/>
<path stroke="#818181" vector-effect="non-scaling-stroke" d="
  M 155.19 44.08
  C 150.20 38.32 140.87 42.58 133.45 44.50
  Q 133.03 44.61 133.03 45.04
  L 132.60 74.97
  Q 132.59 75.77 133.38 75.59
  L 139.78 74.04
  Q 140.51 73.87 140.53 73.12
  L 140.83 63.43
  Q 140.85 62.92 141.33 62.78
  L 144.20 61.92
  Q 144.82 61.74 145.16 62.29
  L 150.42 70.87
  Q 150.73 71.37 151.29 71.22
  L 158.01 69.40
  Q 158.66 69.23 158.32 68.65
  L 153.33 60.22
  A 0.85 0.84 52.0 0 1 153.45 59.20
  Q 161.30 51.14 155.19 44.08"
/>
<path stroke="#82aacb" vector-effect="non-scaling-stroke" d="
  M 0.75 133.04
  A 0.47 0.47 0.0 0 0 1.33 133.49
  L 298.64 59.33
  A 0.47 0.47 0.0 0 0 299.00 58.87
  L 299.00 45.42
  A 0.47 0.47 0.0 0 0 298.42 44.97
  L 1.11 119.20
  A 0.47 0.47 0.0 0 0 0.75 119.66
  L 0.75 133.04"
/>
<path stroke="#818181" vector-effect="non-scaling-stroke" d="
  M 127.17 58.41
  C 123.51 44.91 104.32 49.09 99.16 58.92
  C 95.18 66.50 96.65 80.49 107.26 81.96
  C 121.45 83.94 130.81 71.85 127.17 58.41"
/>
<path stroke="#818181" vector-effect="non-scaling-stroke" d="
  M 80.28 64.92
  A 0.51 0.51 0.0 0 1 80.92 65.43
  L 80.45 88.62
  A 0.51 0.51 0.0 0 0 81.08 89.13
  L 88.02 87.48
  A 0.51 0.51 0.0 0 0 88.41 87.00
  L 88.94 63.01
  A 0.51 0.51 0.0 0 1 89.34 62.52
  L 96.97 60.79
  A 0.51 0.51 0.0 0 0 97.37 60.33
  L 97.81 54.58
  A 0.51 0.51 0.0 0 0 97.18 54.05
  L 72.39 60.11
  A 0.51 0.51 0.0 0 0 72.00 60.61
  L 72.00 66.33
  A 0.51 0.51 0.0 0 0 72.63 66.82
  L 80.28 64.92"
/>
<path stroke="#818181" vector-effect="non-scaling-stroke" d="
  M 71.68 83.29
  L 66.05 81.63
  Q 65.48 81.47 65.25 82.02
  C 64.51 83.83 63.67 85.79 62.28 87.05
  C 58.30 90.62 53.53 88.53 52.20 83.67
  C 50.83 78.67 52.59 70.66 58.55 69.38
  Q 62.44 68.54 64.51 72.81
  Q 64.76 73.33 65.24 73.00
  L 69.81 69.80
  A 0.86 0.85 56.3 0 0 70.04 68.63
  C 64.03 59.35 52.23 63.01 46.93 70.54
  C 40.54 79.63 43.60 96.92 57.75 95.21
  Q 68.61 93.90 71.85 83.62
  A 0.26 0.26 0.0 0 0 71.68 83.29"
/>
<path stroke="#818181" vector-effect="non-scaling-stroke" d="
  M 289.13 70.03
  Q 292.33 66.52 296.85 68.13
  Q 297.60 68.39 297.42 67.61
  C 296.41 63.24 288.95 68.09 287.62 70.14
  Q 287.36 70.56 287.46 71.04
  C 288.11 74.13 293.41 71.98 295.85 71.96
  A 1.12 1.12 0.0 0 1 296.73 73.78
  C 293.51 77.80 288.13 74.94 287.37 76.05
  A 1.07 1.06 -68.1 0 0 288.07 77.70
  Q 294.51 78.74 297.63 74.62
  C 298.71 73.19 298.39 70.85 296.68 70.20
  C 294.96 69.54 291.80 71.18 289.47 70.93
  Q 288.41 70.82 289.13 70.03"
/>
<path stroke="#818181" vector-effect="non-scaling-stroke" d="
  M 33.85 69.23
  A 0.34 0.34 0.0 0 0 33.59 69.56
  L 33.09 100.18
  A 0.34 0.34 0.0 0 0 33.51 100.51
  L 40.87 98.70
  A 0.34 0.34 0.0 0 0 41.13 98.38
  L 41.48 67.87
  A 0.34 0.34 0.0 0 0 41.07 67.54
  L 33.85 69.23"
/>
<path stroke="#818181" vector-effect="non-scaling-stroke" d="
  M 15.81 92.88
  A 0.31 0.31 0.0 0 1 15.23 92.91
  L 8.31 75.96
  A 0.31 0.31 0.0 0 0 7.95 75.77
  L 0.47 77.55
  A 0.31 0.31 0.0 0 0 0.26 77.98
  L 12.55 105.46
  A 0.31 0.31 0.0 0 0 12.91 105.64
  L 20.42 103.77
  A 0.31 0.31 0.0 0 0 20.64 103.56
  L 30.65 70.57
  A 0.31 0.31 0.0 0 0 30.28 70.18
  L 22.02 72.25
  A 0.31 0.31 0.0 0 0 21.80 72.46
  L 15.81 92.88"
/>
<path stroke="#818181" vector-effect="non-scaling-stroke" d="
  M 272.25 73.75
  L 272.25 82.00
  Q 272.25 82.50 272.75 82.50
  L 273.35 82.50
  Q 273.95 82.50 273.95 81.91
  L 274.02 73.41
  Q 274.03 72.85 274.55 72.65
  C 275.67 72.23 279.19 72.21 278.69 70.52
  A 0.45 0.44 74.7 0 0 278.15 70.21
  L 267.68 73.00
  Q 267.06 73.16 267.26 73.77
  C 267.60 74.84 270.90 73.56 271.71 73.34
  Q 272.25 73.20 272.25 73.75"
/>
<path stroke="#818181" vector-effect="non-scaling-stroke" d="
  M 252.80 86.18
  C 245.43 86.80 250.07 74.16 257.84 78.46
  A 0.52 0.52 0.0 0 0 258.56 77.79
  C 257.93 76.44 256.76 75.89 255.25 76.01
  C 246.32 76.70 244.59 89.75 253.74 87.45
  C 254.55 87.25 260.15 84.16 258.18 82.92
  Q 257.71 82.62 257.44 83.11
  Q 255.89 85.92 252.80 86.18"
/>
<path stroke="#818181" vector-effect="non-scaling-stroke" d="
  M 230.44 90.86
  A 1.03 1.02 -84.4 0 1 229.66 89.90
  L 229.43 83.05
  Q 229.41 82.56 228.93 82.50
  Q 228.76 82.48 228.57 82.50
  Q 228.04 82.53 228.04 83.06
  L 228.00 90.46
  A 2.15 2.14 -86.5 0 0 229.88 92.59
  C 238.96 93.72 237.92 86.57 238.00 80.59
  A 0.47 0.47 0.0 0 0 237.28 80.19
  C 236.00 81.03 236.50 86.59 236.49 88.19
  Q 236.49 88.73 236.14 89.13
  Q 233.91 91.67 230.44 90.86"
/>
<path stroke="#818181" vector-effect="non-scaling-stroke" d="
  M 217.31 87.44
  C 215.01 85.58 211.02 87.10 208.55 87.97
  Q 208.00 88.16 208.00 88.75
  L 208.00 98.00
  Q 208.00 98.60 208.60 98.54
  Q 212.87 98.16 215.74 96.24
  C 218.53 94.39 220.60 90.08 217.31 87.44"
/>
<path stroke="#818181" vector-effect="non-scaling-stroke" d="
  M 197.5402 93.0947
  A 6.73 5.14 -39.0 0 0 189.0753 93.3355
  A 6.73 5.14 -39.0 0 0 187.0798 101.5653
  A 6.73 5.14 -39.0 0 0 195.5447 101.3245
  A 6.73 5.14 -39.0 0 0 197.5402 93.0947"
/>
<path stroke="#818181" vector-effect="non-scaling-stroke" d="
  M 168.58 103.24
  L 171.86 102.67
  Q 172.44 102.57 172.79 103.05
  L 175.43 106.70
  Q 175.75 107.15 176.28 106.99
  L 176.83 106.81
  Q 177.70 106.54 177.15 105.82
  L 174.46 102.29
  Q 174.14 101.87 174.62 101.66
  Q 177.37 100.44 176.92 97.54
  A 1.41 1.40 -10.4 0 0 175.23 96.38
  L 167.08 98.18
  Q 166.50 98.31 166.50 98.91
  L 166.50 108.44
  Q 166.50 109.01 167.07 109.00
  Q 167.28 109.00 167.51 109.00
  Q 168.00 109.00 168.00 108.51
  L 168.00 103.92
  Q 168.00 103.33 168.58 103.24"
/>
<path stroke="#818181" vector-effect="non-scaling-stroke" d="
  M 149.27 108.73
  C 152.35 108.67 157.62 107.38 157.24 103.74
  C 156.81 99.69 150.05 102.43 147.68 103.12
  A 0.95 0.95 0.0 0 0 147.00 104.03
  L 147.00 112.85
  Q 147.00 113.40 147.35 113.83
  Q 147.98 114.60 148.53 113.60
  Q 148.75 113.19 148.75 112.73
  L 148.75 109.26
  Q 148.75 108.74 149.27 108.73"
/>
<path stroke="#818181" vector-effect="non-scaling-stroke" d="
  M 121.87 115.67
  C 122.97 119.64 118.95 120.37 115.91 119.87
  Q 115.44 119.80 115.13 119.43
  C 111.21 114.81 118.01 110.54 122.79 112.05
  A 0.42 0.42 0.0 0 0 123.31 111.49
  C 121.74 107.68 115.51 111.39 114.03 113.30
  C 111.17 117.00 112.33 122.75 118.24 121.48
  Q 124.66 120.11 123.78 114.11
  Q 123.70 113.56 123.14 113.60
  C 121.98 113.69 116.16 114.56 116.81 116.09
  Q 116.99 116.51 117.43 116.40
  L 121.38 115.38
  Q 121.77 115.28 121.87 115.67"
/>
<path stroke="#818181" vector-effect="non-scaling-stroke" d="
  M 93.66 119.26
  A 0.31 0.31 0.0 0 1 94.19 119.04
  L 100.74 125.49
  A 1.20 1.19 -65.1 0 0 102.77 124.74
  C 102.84 123.93 104.07 113.00 101.56 114.71
  Q 101.17 114.97 101.18 115.44
  L 101.44 123.04
  A 0.31 0.31 0.0 0 1 100.91 123.27
  L 95.24 117.62
  Q 95.05 117.43 94.84 117.28
  Q 93.59 116.36 92.50 116.98
  Q 92.01 117.25 92.01 117.82
  L 92.00 127.43
  Q 92.00 128.00 92.56 128.00
  Q 92.84 128.00 93.13 128.00
  Q 93.74 128.00 93.73 127.39
  L 93.66 119.26"
/>
<path stroke="#818181" vector-effect="non-scaling-stroke" d="
  M 81.0419 120.3373
  A 0.30 0.30 0.0 0 0 80.7409 120.0384
  L 79.7809 120.0417
  A 0.30 0.30 0.0 0 0 79.4820 120.3428
  L 79.5181 130.6827
  A 0.30 0.30 0.0 0 0 79.8191 130.9816
  L 80.7791 130.9783
  A 0.30 0.30 0.0 0 0 81.0780 130.6772
  L 81.0419 120.3373"
/>
<path stroke="#818181" vector-effect="non-scaling-stroke" d="
  M 62.94 133.28
  L 62.97 125.09
  Q 62.97 124.49 62.36 124.50
  Q 62.11 124.51 61.86 124.50
  Q 61.26 124.49 61.26 125.09
  L 61.25 134.94
  Q 61.25 135.64 61.93 135.48
  L 69.31 133.81
  Q 69.78 133.70 69.79 133.22
  C 69.84 131.37 63.70 133.65 63.48 133.70
  Q 62.93 133.85 62.94 133.28"
/>
<path stroke="#818181" vector-effect="non-scaling-stroke" d="
  M 49.62 136.96
  L 50.36 138.00
  Q 50.69 138.46 51.25 138.34
  C 52.22 138.14 52.12 137.58 51.68 136.86
  Q 49.26 132.97 47.33 129.39
  A 1.34 1.34 0.0 0 0 44.91 129.50
  L 40.15 140.73
  A 0.57 0.57 0.0 0 0 41.17 141.23
  L 42.71 138.48
  Q 42.94 138.08 43.39 137.97
  L 48.73 136.64
  Q 49.29 136.50 49.62 136.96"
/>
<path stroke="#818181" vector-effect="non-scaling-stroke" d="
  M 23.75 143.30
  L 23.75 140.41
  Q 23.75 139.77 24.37 139.62
  L 29.74 138.25
  Q 30.46 138.07 30.06 137.45
  C 29.39 136.38 25.27 137.98 24.31 138.14
  Q 23.73 138.24 23.74 137.66
  L 23.77 136.20
  Q 23.78 135.53 24.44 135.38
  L 31.08 133.85
  Q 31.51 133.75 31.50 133.31
  Q 31.50 133.13 31.50 132.98
  Q 31.51 132.39 30.94 132.53
  L 22.82 134.49
  Q 22.25 134.63 22.25 135.22
  L 22.25 144.97
  Q 22.25 145.55 22.82 145.44
  C 24.13 145.17 31.43 143.79 31.45 142.42
  Q 31.45 141.89 30.94 142.02
  L 24.30 143.72
  Q 23.75 143.86 23.75 143.30"
/>
<path stroke="#82aacb" vector-effect="non-scaling-stroke" d="
  M 306.95 5.34
  C 309.57 1.04 300.75 -1.64 300.58 3.77
  C 300.55 4.67 301.02 5.38 301.01 6.43
  Q 301.01 6.91 301.47 7.07
  C 302.69 7.49 306.70 7.84 306.78 5.90
  Q 306.79 5.60 306.95 5.34"
/>
<path stroke="#82aacb" vector-effect="non-scaling-stroke" d="
  M 302.97 5.37
  Q 303.62 3.81 302.96 2.34
  Q 302.38 1.08 302.27 2.46
  Q 302.15 3.83 302.32 5.28
  Q 302.47 6.55 302.97 5.37"
/>
<path stroke="#82aacb" vector-effect="non-scaling-stroke" d="
  M 305.63 5.80
  L 306.17 2.24
  A 0.15 0.15 0.0 0 0 306.04 2.07
  L 305.95 2.06
  A 1.86 1.52 -81.4 0 0 304.17 3.67
  L 304.15 3.85
  A 1.86 1.52 -81.4 0 0 305.37 5.91
  L 305.46 5.93
  A 0.15 0.15 0.0 0 0 305.63 5.80"
/>
<path stroke="#818181" vector-effect="non-scaling-stroke" d="
  M 184.63 45.00
  L 193.47 42.52
  A 0.23 0.23 0.0 0 0 193.63 42.23
  L 193.13 40.48
  A 3.99 3.04 74.3 0 0 189.13 37.46
  L 185.70 38.42
  A 3.99 3.04 74.3 0 0 183.85 43.09
  L 184.34 44.84
  A 0.23 0.23 0.0 0 0 184.63 45.00"
/>
<path stroke="#818181" vector-effect="non-scaling-stroke" d="
  M 148.00 48.34
  Q 147.49 48.08 146.93 48.20
  L 141.41 49.41
  Q 140.95 49.51 140.95 49.99
  L 140.93 55.31
  Q 140.93 55.82 141.43 55.73
  Q 146.93 54.71 148.34 53.88
  C 150.86 52.40 150.61 49.67 148.00 48.34"
/>
<path stroke="#818181" vector-effect="non-scaling-stroke" d="
  M 110.3615 75.5076
  A 9.70 7.04 103.1 0 0 119.4168 67.6556
  A 9.70 7.04 103.1 0 0 114.7585 56.6124
  A 9.70 7.04 103.1 0 0 105.7032 64.4644
  A 9.70 7.04 103.1 0 0 110.3615 75.5076"
/>
<path stroke="#818181" vector-effect="non-scaling-stroke" d="
  M 213.51 88.12
  Q 211.98 88.28 210.25 89.04
  A 1.05 1.04 77.6 0 0 209.63 90.01
  L 209.74 96.61
  Q 209.75 96.99 210.12 96.94
  Q 213.13 96.53 215.38 94.82
  C 218.09 92.77 218.23 87.63 213.51 88.12"
/>
<path stroke="#818181" vector-effect="non-scaling-stroke" d="
  M 196.1677 94.0338
  A 5.06 3.71 -40.5 0 0 189.9105 94.4989
  A 5.06 3.71 -40.5 0 0 188.4723 100.6062
  A 5.06 3.71 -40.5 0 0 194.7295 100.1411
  A 5.06 3.71 -40.5 0 0 196.1677 94.0338"
/>
<path stroke="#818181" vector-effect="non-scaling-stroke" d="
  M 175.5434 98.6161
  A 1.01 1.01 0.0 0 0 174.3077 97.8998
  L 168.6061 99.4169
  A 1.01 1.01 0.0 0 0 167.8897 100.6526
  L 167.9566 100.9039
  A 1.01 1.01 0.0 0 0 169.1923 101.6202
  L 174.8939 100.1031
  A 1.01 1.01 0.0 0 0 175.6103 98.8674
  L 175.5434 98.6161"
/>
<path stroke="#818181" vector-effect="non-scaling-stroke" d="
  M 149.34 107.74
  L 155.79 105.72
  A 0.29 0.29 0.0 0 0 155.98 105.36
  L 155.71 104.49
  A 2.20 1.75 72.6 0 0 153.38 102.91
  L 149.72 104.06
  A 2.20 1.75 72.6 0 0 148.71 106.68
  L 148.98 107.55
  A 0.29 0.29 0.0 0 0 149.34 107.74"
/>
<path stroke="#818181" vector-effect="non-scaling-stroke" d="
  M 46.47 131.19
  A 0.48 0.48 0.0 0 0 45.61 131.24
  L 43.75 135.60
  A 0.48 0.48 0.0 0 0 44.31 136.25
  L 48.02 135.26
  A 0.48 0.48 0.0 0 0 48.32 134.56
  L 46.47 131.19"
/>
</g>
<path fill="#ffffff" d="
  M 0.00 0.00
  L 308.00 0.00
  L 308.00 150.00
  L 5.19 150.00
  C 8.00 149.76 15.40 146.21 11.19 142.56
  Q 10.80 142.22 10.29 142.22
  C 8.91 142.22 3.93 143.49 3.20 142.76
  Q 2.74 142.31 3.20 141.87
  Q 6.36 138.72 10.69 140.12
  Q 11.29 140.31 11.26 139.68
  L 11.22 138.89
  Q 11.19 138.31 10.62 138.23
  Q 5.58 137.44 2.22 141.19
  C 1.14 142.39 1.14 144.02 2.72 144.68
  C 4.12 145.26 7.85 144.02 9.65 143.96
  A 1.08 1.07 18.0 0 1 10.54 145.69
  Q 7.27 149.86 2.39 147.41
  Q 2.02 147.23 1.78 147.57
  L 1.27 148.26
  Q 0.81 148.90 1.54 149.20
  L 3.44 150.00
  L 0.00 150.00
  L 0.00 0.00
  Z
  M 307.91 4.18
  A 4.09 4.09 0.0 0 0 303.82 0.09
  A 4.09 4.09 0.0 0 0 299.73 4.18
  A 4.09 4.09 0.0 0 0 303.82 8.27
  A 4.09 4.09 0.0 0 0 307.91 4.18
  Z
  M 287.04 13.15
  Q 281.82 22.63 276.51 32.05
  C 274.99 34.74 274.73 36.81 275.07 39.73
  A 0.37 0.37 0.0 0 0 275.53 40.05
  L 300.18 33.89
  Q 300.74 33.75 300.74 33.18
  L 300.75 27.30
  Q 300.76 26.63 300.11 26.79
  L 287.15 30.07
  Q 286.62 30.21 286.87 29.71
  Q 291.99 19.90 297.21 10.14
  C 298.28 8.14 298.11 6.13 297.96 4.00
  Q 297.91 3.35 297.28 3.51
  L 275.63 8.83
  Q 275.00 8.99 275.00 9.64
  L 275.00 15.05
  Q 275.00 15.68 275.61 15.53
  L 286.68 12.69
  Q 287.39 12.50 287.04 13.15
  Z
  M 251.62 28.11
  A 0.33 0.33 0.0 0 1 252.24 27.94
  L 261.57 43.29
  A 0.33 0.33 0.0 0 0 261.94 43.44
  L 269.44 41.59
  A 0.33 0.33 0.0 0 0 269.69 41.27
  L 270.06 10.74
  A 0.33 0.33 0.0 0 0 269.66 10.42
  L 262.25 12.16
  A 0.33 0.33 0.0 0 0 262.00 12.48
  L 262.00 29.35
  A 0.33 0.33 0.0 0 1 261.39 29.52
  L 251.98 15.02
  A 0.33 0.33 0.0 0 0 251.62 14.88
  L 244.04 16.72
  A 0.33 0.33 0.0 0 0 243.79 17.04
  L 243.33 47.71
  A 0.33 0.33 0.0 0 0 243.74 48.03
  L 250.97 46.12
  A 0.33 0.33 0.0 0 0 251.22 45.81
  L 251.62 28.11
  Z
  M 233.23 19.48
  A 0.36 0.36 0.0 0 0 232.95 19.83
  L 232.34 50.30
  A 0.36 0.36 0.0 0 0 232.78 50.66
  L 240.17 48.88
  A 0.36 0.36 0.0 0 0 240.44 48.53
  L 240.81 18.08
  A 0.36 0.36 0.0 0 0 240.37 17.72
  L 233.23 19.48
  Z
  M 214.06 42.66
  A 0.32 0.32 0.0 0 1 214.30 42.36
  L 227.69 38.90
  A 0.32 0.32 0.0 0 0 227.93 38.59
  L 227.89 33.51
  A 0.32 0.32 0.0 0 0 227.50 33.20
  L 214.39 36.34
  A 0.32 0.32 0.0 0 1 214.00 36.02
  L 214.00 30.60
  A 0.32 0.32 0.0 0 1 214.24 30.29
  L 228.59 26.59
  A 0.32 0.32 0.0 0 0 228.83 26.27
  L 228.66 21.03
  A 0.32 0.32 0.0 0 0 228.26 20.73
  L 206.28 26.27
  A 0.32 0.32 0.0 0 0 206.04 26.58
  L 205.91 57.02
  A 0.32 0.32 0.0 0 0 206.31 57.33
  L 229.11 51.73
  A 0.32 0.32 0.0 0 0 229.35 51.41
  L 229.20 45.65
  A 0.32 0.32 0.0 0 0 228.80 45.35
  L 214.25 49.02
  A 0.32 0.32 0.0 0 1 213.85 48.69
  L 214.06 42.66
  Z
  M 198.80 33.97
  C 193.97 27.32 183.03 32.02 176.65 33.73
  Q 176.11 33.87 176.10 34.43
  L 175.65 64.62
  Q 175.64 65.11 176.12 64.99
  L 183.24 63.10
  Q 183.75 62.97 183.75 62.43
  L 183.75 52.82
  Q 183.75 52.21 184.33 52.03
  L 187.05 51.16
  Q 187.78 50.93 188.19 51.59
  L 193.38 60.08
  Q 193.65 60.53 194.17 60.41
  L 201.08 58.71
  Q 201.72 58.55 201.39 57.98
  L 196.23 49.23
  A 0.63 0.62 53.3 0 1 196.34 48.46
  Q 204.06 41.21 198.80 33.97
  Z
  M 155.19 44.08
  C 150.20 38.32 140.87 42.58 133.45 44.50
  Q 133.03 44.61 133.03 45.04
  L 132.60 74.97
  Q 132.59 75.77 133.38 75.59
  L 139.78 74.04
  Q 140.51 73.87 140.53 73.12
  L 140.83 63.43
  Q 140.85 62.92 141.33 62.78
  L 144.20 61.92
  Q 144.82 61.74 145.16 62.29
  L 150.42 70.87
  Q 150.73 71.37 151.29 71.22
  L 158.01 69.40
  Q 158.66 69.23 158.32 68.65
  L 153.33 60.22
  A 0.85 0.84 52.0 0 1 153.45 59.20
  Q 161.30 51.14 155.19 44.08
  Z
  M 0.75 133.04
  A 0.47 0.47 0.0 0 0 1.33 133.49
  L 298.64 59.33
  A 0.47 0.47 0.0 0 0 299.00 58.87
  L 299.00 45.42
  A 0.47 0.47 0.0 0 0 298.42 44.97
  L 1.11 119.20
  A 0.47 0.47 0.0 0 0 0.75 119.66
  L 0.75 133.04
  Z
  M 127.17 58.41
  C 123.51 44.91 104.32 49.09 99.16 58.92
  C 95.18 66.50 96.65 80.49 107.26 81.96
  C 121.45 83.94 130.81 71.85 127.17 58.41
  Z
  M 80.28 64.92
  A 0.51 0.51 0.0 0 1 80.92 65.43
  L 80.45 88.62
  A 0.51 0.51 0.0 0 0 81.08 89.13
  L 88.02 87.48
  A 0.51 0.51 0.0 0 0 88.41 87.00
  L 88.94 63.01
  A 0.51 0.51 0.0 0 1 89.34 62.52
  L 96.97 60.79
  A 0.51 0.51 0.0 0 0 97.37 60.33
  L 97.81 54.58
  A 0.51 0.51 0.0 0 0 97.18 54.05
  L 72.39 60.11
  A 0.51 0.51 0.0 0 0 72.00 60.61
  L 72.00 66.33
  A 0.51 0.51 0.0 0 0 72.63 66.82
  L 80.28 64.92
  Z
  M 71.68 83.29
  L 66.05 81.63
  Q 65.48 81.47 65.25 82.02
  C 64.51 83.83 63.67 85.79 62.28 87.05
  C 58.30 90.62 53.53 88.53 52.20 83.67
  C 50.83 78.67 52.59 70.66 58.55 69.38
  Q 62.44 68.54 64.51 72.81
  Q 64.76 73.33 65.24 73.00
  L 69.81 69.80
  A 0.86 0.85 56.3 0 0 70.04 68.63
  C 64.03 59.35 52.23 63.01 46.93 70.54
  C 40.54 79.63 43.60 96.92 57.75 95.21
  Q 68.61 93.90 71.85 83.62
  A 0.26 0.26 0.0 0 0 71.68 83.29
  Z
  M 289.13 70.03
  Q 292.33 66.52 296.85 68.13
  Q 297.60 68.39 297.42 67.61
  C 296.41 63.24 288.95 68.09 287.62 70.14
  Q 287.36 70.56 287.46 71.04
  C 288.11 74.13 293.41 71.98 295.85 71.96
  A 1.12 1.12 0.0 0 1 296.73 73.78
  C 293.51 77.80 288.13 74.94 287.37 76.05
  A 1.07 1.06 -68.1 0 0 288.07 77.70
  Q 294.51 78.74 297.63 74.62
  C 298.71 73.19 298.39 70.85 296.68 70.20
  C 294.96 69.54 291.80 71.18 289.47 70.93
  Q 288.41 70.82 289.13 70.03
  Z
  M 33.85 69.23
  A 0.34 0.34 0.0 0 0 33.59 69.56
  L 33.09 100.18
  A 0.34 0.34 0.0 0 0 33.51 100.51
  L 40.87 98.70
  A 0.34 0.34 0.0 0 0 41.13 98.38
  L 41.48 67.87
  A 0.34 0.34 0.0 0 0 41.07 67.54
  L 33.85 69.23
  Z
  M 15.81 92.88
  A 0.31 0.31 0.0 0 1 15.23 92.91
  L 8.31 75.96
  A 0.31 0.31 0.0 0 0 7.95 75.77
  L 0.47 77.55
  A 0.31 0.31 0.0 0 0 0.26 77.98
  L 12.55 105.46
  A 0.31 0.31 0.0 0 0 12.91 105.64
  L 20.42 103.77
  A 0.31 0.31 0.0 0 0 20.64 103.56
  L 30.65 70.57
  A 0.31 0.31 0.0 0 0 30.28 70.18
  L 22.02 72.25
  A 0.31 0.31 0.0 0 0 21.80 72.46
  L 15.81 92.88
  Z
  M 272.25 73.75
  L 272.25 82.00
  Q 272.25 82.50 272.75 82.50
  L 273.35 82.50
  Q 273.95 82.50 273.95 81.91
  L 274.02 73.41
  Q 274.03 72.85 274.55 72.65
  C 275.67 72.23 279.19 72.21 278.69 70.52
  A 0.45 0.44 74.7 0 0 278.15 70.21
  L 267.68 73.00
  Q 267.06 73.16 267.26 73.77
  C 267.60 74.84 270.90 73.56 271.71 73.34
  Q 272.25 73.20 272.25 73.75
  Z
  M 252.80 86.18
  C 245.43 86.80 250.07 74.16 257.84 78.46
  A 0.52 0.52 0.0 0 0 258.56 77.79
  C 257.93 76.44 256.76 75.89 255.25 76.01
  C 246.32 76.70 244.59 89.75 253.74 87.45
  C 254.55 87.25 260.15 84.16 258.18 82.92
  Q 257.71 82.62 257.44 83.11
  Q 255.89 85.92 252.80 86.18
  Z
  M 230.44 90.86
  A 1.03 1.02 -84.4 0 1 229.66 89.90
  L 229.43 83.05
  Q 229.41 82.56 228.93 82.50
  Q 228.76 82.48 228.57 82.50
  Q 228.04 82.53 228.04 83.06
  L 228.00 90.46
  A 2.15 2.14 -86.5 0 0 229.88 92.59
  C 238.96 93.72 237.92 86.57 238.00 80.59
  A 0.47 0.47 0.0 0 0 237.28 80.19
  C 236.00 81.03 236.50 86.59 236.49 88.19
  Q 236.49 88.73 236.14 89.13
  Q 233.91 91.67 230.44 90.86
  Z
  M 217.31 87.44
  C 215.01 85.58 211.02 87.10 208.55 87.97
  Q 208.00 88.16 208.00 88.75
  L 208.00 98.00
  Q 208.00 98.60 208.60 98.54
  Q 212.87 98.16 215.74 96.24
  C 218.53 94.39 220.60 90.08 217.31 87.44
  Z
  M 197.5402 93.0947
  A 6.73 5.14 -39.0 0 0 189.0753 93.3355
  A 6.73 5.14 -39.0 0 0 187.0798 101.5653
  A 6.73 5.14 -39.0 0 0 195.5447 101.3245
  A 6.73 5.14 -39.0 0 0 197.5402 93.0947
  Z
  M 168.58 103.24
  L 171.86 102.67
  Q 172.44 102.57 172.79 103.05
  L 175.43 106.70
  Q 175.75 107.15 176.28 106.99
  L 176.83 106.81
  Q 177.70 106.54 177.15 105.82
  L 174.46 102.29
  Q 174.14 101.87 174.62 101.66
  Q 177.37 100.44 176.92 97.54
  A 1.41 1.40 -10.4 0 0 175.23 96.38
  L 167.08 98.18
  Q 166.50 98.31 166.50 98.91
  L 166.50 108.44
  Q 166.50 109.01 167.07 109.00
  Q 167.28 109.00 167.51 109.00
  Q 168.00 109.00 168.00 108.51
  L 168.00 103.92
  Q 168.00 103.33 168.58 103.24
  Z
  M 149.27 108.73
  C 152.35 108.67 157.62 107.38 157.24 103.74
  C 156.81 99.69 150.05 102.43 147.68 103.12
  A 0.95 0.95 0.0 0 0 147.00 104.03
  L 147.00 112.85
  Q 147.00 113.40 147.35 113.83
  Q 147.98 114.60 148.53 113.60
  Q 148.75 113.19 148.75 112.73
  L 148.75 109.26
  Q 148.75 108.74 149.27 108.73
  Z
  M 121.87 115.67
  C 122.97 119.64 118.95 120.37 115.91 119.87
  Q 115.44 119.80 115.13 119.43
  C 111.21 114.81 118.01 110.54 122.79 112.05
  A 0.42 0.42 0.0 0 0 123.31 111.49
  C 121.74 107.68 115.51 111.39 114.03 113.30
  C 111.17 117.00 112.33 122.75 118.24 121.48
  Q 124.66 120.11 123.78 114.11
  Q 123.70 113.56 123.14 113.60
  C 121.98 113.69 116.16 114.56 116.81 116.09
  Q 116.99 116.51 117.43 116.40
  L 121.38 115.38
  Q 121.77 115.28 121.87 115.67
  Z
  M 93.66 119.26
  A 0.31 0.31 0.0 0 1 94.19 119.04
  L 100.74 125.49
  A 1.20 1.19 -65.1 0 0 102.77 124.74
  C 102.84 123.93 104.07 113.00 101.56 114.71
  Q 101.17 114.97 101.18 115.44
  L 101.44 123.04
  A 0.31 0.31 0.0 0 1 100.91 123.27
  L 95.24 117.62
  Q 95.05 117.43 94.84 117.28
  Q 93.59 116.36 92.50 116.98
  Q 92.01 117.25 92.01 117.82
  L 92.00 127.43
  Q 92.00 128.00 92.56 128.00
  Q 92.84 128.00 93.13 128.00
  Q 93.74 128.00 93.73 127.39
  L 93.66 119.26
  Z
  M 81.0419 120.3373
  A 0.30 0.30 0.0 0 0 80.7409 120.0384
  L 79.7809 120.0417
  A 0.30 0.30 0.0 0 0 79.4820 120.3428
  L 79.5181 130.6827
  A 0.30 0.30 0.0 0 0 79.8191 130.9816
  L 80.7791 130.9783
  A 0.30 0.30 0.0 0 0 81.0780 130.6772
  L 81.0419 120.3373
  Z
  M 62.94 133.28
  L 62.97 125.09
  Q 62.97 124.49 62.36 124.50
  Q 62.11 124.51 61.86 124.50
  Q 61.26 124.49 61.26 125.09
  L 61.25 134.94
  Q 61.25 135.64 61.93 135.48
  L 69.31 133.81
  Q 69.78 133.70 69.79 133.22
  C 69.84 131.37 63.70 133.65 63.48 133.70
  Q 62.93 133.85 62.94 133.28
  Z
  M 49.62 136.96
  L 50.36 138.00
  Q 50.69 138.46 51.25 138.34
  C 52.22 138.14 52.12 137.58 51.68 136.86
  Q 49.26 132.97 47.33 129.39
  A 1.34 1.34 0.0 0 0 44.91 129.50
  L 40.15 140.73
  A 0.57 0.57 0.0 0 0 41.17 141.23
  L 42.71 138.48
  Q 42.94 138.08 43.39 137.97
  L 48.73 136.64
  Q 49.29 136.50 49.62 136.96
  Z
  M 23.75 143.30
  L 23.75 140.41
  Q 23.75 139.77 24.37 139.62
  L 29.74 138.25
  Q 30.46 138.07 30.06 137.45
  C 29.39 136.38 25.27 137.98 24.31 138.14
  Q 23.73 138.24 23.74 137.66
  L 23.77 136.20
  Q 23.78 135.53 24.44 135.38
  L 31.08 133.85
  Q 31.51 133.75 31.50 133.31
  Q 31.50 133.13 31.50 132.98
  Q 31.51 132.39 30.94 132.53
  L 22.82 134.49
  Q 22.25 134.63 22.25 135.22
  L 22.25 144.97
  Q 22.25 145.55 22.82 145.44
  C 24.13 145.17 31.43 143.79 31.45 142.42
  Q 31.45 141.89 30.94 142.02
  L 24.30 143.72
  Q 23.75 143.86 23.75 143.30
  Z"
/>
<path fill="#055497" d="
  M 307.91 4.18
  A 4.09 4.09 0.0 0 1 303.82 8.27
  A 4.09 4.09 0.0 0 1 299.73 4.18
  A 4.09 4.09 0.0 0 1 303.82 0.09
  A 4.09 4.09 0.0 0 1 307.91 4.18
  Z
  M 306.95 5.34
  C 309.57 1.04 300.75 -1.64 300.58 3.77
  C 300.55 4.67 301.02 5.38 301.01 6.43
  Q 301.01 6.91 301.47 7.07
  C 302.69 7.49 306.70 7.84 306.78 5.90
  Q 306.79 5.60 306.95 5.34
  Z"
/>
<path fill="#ffffff" d="
  M 306.78 5.90
  C 306.70 7.84 302.69 7.49 301.47 7.07
  Q 301.01 6.91 301.01 6.43
  C 301.02 5.38 300.55 4.67 300.58 3.77
  C 300.75 -1.64 309.57 1.04 306.95 5.34
  Q 306.79 5.60 306.78 5.90
  Z
  M 302.97 5.37
  Q 303.62 3.81 302.96 2.34
  Q 302.38 1.08 302.27 2.46
  Q 302.15 3.83 302.32 5.28
  Q 302.47 6.55 302.97 5.37
  Z
  M 305.63 5.80
  L 306.17 2.24
  A 0.15 0.15 0.0 0 0 306.04 2.07
  L 305.95 2.06
  A 1.86 1.52 -81.4 0 0 304.17 3.67
  L 304.15 3.85
  A 1.86 1.52 -81.4 0 0 305.37 5.91
  L 305.46 5.93
  A 0.15 0.15 0.0 0 0 305.63 5.80
  Z"
/>
<path fill="#055497" d="
  M 302.32 5.28
  Q 302.15 3.83 302.27 2.46
  Q 302.38 1.08 302.96 2.34
  Q 303.62 3.81 302.97 5.37
  Q 302.47 6.55 302.32 5.28
  Z"
/>
<path fill="#055497" d="
  M 305.63 5.80
  A 0.15 0.15 0.0 0 1 305.46 5.93
  L 305.37 5.91
  A 1.86 1.52 -81.4 0 1 304.15 3.85
  L 304.17 3.67
  A 1.86 1.52 -81.4 0 1 305.95 2.06
  L 306.04 2.07
  A 0.15 0.15 0.0 0 1 306.17 2.24
  L 305.63 5.80
  Z"
/>
<path fill="#020202" d="
  M 286.68 12.69
  L 275.61 15.53
  Q 275.00 15.68 275.00 15.05
  L 275.00 9.64
  Q 275.00 8.99 275.63 8.83
  L 297.28 3.51
  Q 297.91 3.35 297.96 4.00
  C 298.11 6.13 298.28 8.14 297.21 10.14
  Q 291.99 19.90 286.87 29.71
  Q 286.62 30.21 287.15 30.07
  L 300.11 26.79
  Q 300.76 26.63 300.75 27.30
  L 300.74 33.18
  Q 300.74 33.75 300.18 33.89
  L 275.53 40.05
  A 0.37 0.37 0.0 0 1 275.07 39.73
  C 274.73 36.81 274.99 34.74 276.51 32.05
  Q 281.82 22.63 287.04 13.15
  Q 287.39 12.50 286.68 12.69
  Z"
/>
<path fill="#020202" d="
  M 251.62 28.11
  L 251.22 45.81
  A 0.33 0.33 0.0 0 1 250.97 46.12
  L 243.74 48.03
  A 0.33 0.33 0.0 0 1 243.33 47.71
  L 243.79 17.04
  A 0.33 0.33 0.0 0 1 244.04 16.72
  L 251.62 14.88
  A 0.33 0.33 0.0 0 1 251.98 15.02
  L 261.39 29.52
  A 0.33 0.33 0.0 0 0 262.00 29.35
  L 262.00 12.48
  A 0.33 0.33 0.0 0 1 262.25 12.16
  L 269.66 10.42
  A 0.33 0.33 0.0 0 1 270.06 10.74
  L 269.69 41.27
  A 0.33 0.33 0.0 0 1 269.44 41.59
  L 261.94 43.44
  A 0.33 0.33 0.0 0 1 261.57 43.29
  L 252.24 27.94
  A 0.33 0.33 0.0 0 0 251.62 28.11
  Z"
/>
<path fill="#020202" d="
  M 233.23 19.48
  L 240.37 17.72
  A 0.36 0.36 0.0 0 1 240.81 18.08
  L 240.44 48.53
  A 0.36 0.36 0.0 0 1 240.17 48.88
  L 232.78 50.66
  A 0.36 0.36 0.0 0 1 232.34 50.30
  L 232.95 19.83
  A 0.36 0.36 0.0 0 1 233.23 19.48
  Z"
/>
<path fill="#020202" d="
  M 214.06 42.66
  L 213.85 48.69
  A 0.32 0.32 0.0 0 0 214.25 49.02
  L 228.80 45.35
  A 0.32 0.32 0.0 0 1 229.20 45.65
  L 229.35 51.41
  A 0.32 0.32 0.0 0 1 229.11 51.73
  L 206.31 57.33
  A 0.32 0.32 0.0 0 1 205.91 57.02
  L 206.04 26.58
  A 0.32 0.32 0.0 0 1 206.28 26.27
  L 228.26 20.73
  A 0.32 0.32 0.0 0 1 228.66 21.03
  L 228.83 26.27
  A 0.32 0.32 0.0 0 1 228.59 26.59
  L 214.24 30.29
  A 0.32 0.32 0.0 0 0 214.00 30.60
  L 214.00 36.02
  A 0.32 0.32 0.0 0 0 214.39 36.34
  L 227.50 33.20
  A 0.32 0.32 0.0 0 1 227.89 33.51
  L 227.93 38.59
  A 0.32 0.32 0.0 0 1 227.69 38.90
  L 214.30 42.36
  A 0.32 0.32 0.0 0 0 214.06 42.66
  Z"
/>
<path fill="#020202" d="
  M 198.80 33.97
  Q 204.06 41.21 196.34 48.46
  A 0.63 0.62 53.3 0 0 196.23 49.23
  L 201.39 57.98
  Q 201.72 58.55 201.08 58.71
  L 194.17 60.41
  Q 193.65 60.53 193.38 60.08
  L 188.19 51.59
  Q 187.78 50.93 187.05 51.16
  L 184.33 52.03
  Q 183.75 52.21 183.75 52.82
  L 183.75 62.43
  Q 183.75 62.97 183.24 63.10
  L 176.12 64.99
  Q 175.64 65.11 175.65 64.62
  L 176.10 34.43
  Q 176.11 33.87 176.65 33.73
  C 183.03 32.02 193.97 27.32 198.80 33.97
  Z
  M 184.63 45.00
  L 193.47 42.52
  A 0.23 0.23 0.0 0 0 193.63 42.23
  L 193.13 40.48
  A 3.99 3.04 74.3 0 0 189.13 37.46
  L 185.70 38.42
  A 3.99 3.04 74.3 0 0 183.85 43.09
  L 184.34 44.84
  A 0.23 0.23 0.0 0 0 184.63 45.00
  Z"
/>
<path fill="#ffffff" d="
  M 184.63 45.00
  A 0.23 0.23 0.0 0 1 184.34 44.84
  L 183.85 43.09
  A 3.99 3.04 74.3 0 1 185.70 38.42
  L 189.13 37.46
  A 3.99 3.04 74.3 0 1 193.13 40.48
  L 193.63 42.23
  A 0.23 0.23 0.0 0 1 193.47 42.52
  L 184.63 45.00
  Z"
/>
<path fill="#020202" d="
  M 155.19 44.08
  Q 161.30 51.14 153.45 59.20
  A 0.85 0.84 52.0 0 0 153.33 60.22
  L 158.32 68.65
  Q 158.66 69.23 158.01 69.40
  L 151.29 71.22
  Q 150.73 71.37 150.42 70.87
  L 145.16 62.29
  Q 144.82 61.74 144.20 61.92
  L 141.33 62.78
  Q 140.85 62.92 140.83 63.43
  L 140.53 73.12
  Q 140.51 73.87 139.78 74.04
  L 133.38 75.59
  Q 132.59 75.77 132.60 74.97
  L 133.03 45.04
  Q 133.03 44.61 133.45 44.50
  C 140.87 42.58 150.20 38.32 155.19 44.08
  Z
  M 148.00 48.34
  Q 147.49 48.08 146.93 48.20
  L 141.41 49.41
  Q 140.95 49.51 140.95 49.99
  L 140.93 55.31
  Q 140.93 55.82 141.43 55.73
  Q 146.93 54.71 148.34 53.88
  C 150.86 52.40 150.61 49.67 148.00 48.34
  Z"
/>
<path fill="#055497" d="
  M 0.75 133.04
  L 0.75 119.66
  A 0.47 0.47 0.0 0 1 1.11 119.20
  L 298.42 44.97
  A 0.47 0.47 0.0 0 1 299.00 45.42
  L 299.00 58.87
  A 0.47 0.47 0.0 0 1 298.64 59.33
  L 1.33 133.49
  A 0.47 0.47 0.0 0 1 0.75 133.04
  Z"
/>
<path fill="#ffffff" d="
  M 148.00 48.34
  C 150.61 49.67 150.86 52.40 148.34 53.88
  Q 146.93 54.71 141.43 55.73
  Q 140.93 55.82 140.93 55.31
  L 140.95 49.99
  Q 140.95 49.51 141.41 49.41
  L 146.93 48.20
  Q 147.49 48.08 148.00 48.34
  Z"
/>
<path fill="#020202" d="
  M 99.16 58.92
  C 104.32 49.09 123.51 44.91 127.17 58.41
  C 130.81 71.85 121.45 83.94 107.26 81.96
  C 96.65 80.49 95.18 66.50 99.16 58.92
  Z
  M 110.3615 75.5076
  A 9.70 7.04 103.1 0 0 119.4168 67.6556
  A 9.70 7.04 103.1 0 0 114.7585 56.6124
  A 9.70 7.04 103.1 0 0 105.7032 64.4644
  A 9.70 7.04 103.1 0 0 110.3615 75.5076
  Z"
/>
<path fill="#020202" d="
  M 80.28 64.92
  L 72.63 66.82
  A 0.51 0.51 0.0 0 1 72.00 66.33
  L 72.00 60.61
  A 0.51 0.51 0.0 0 1 72.39 60.11
  L 97.18 54.05
  A 0.51 0.51 0.0 0 1 97.81 54.58
  L 97.37 60.33
  A 0.51 0.51 0.0 0 1 96.97 60.79
  L 89.34 62.52
  A 0.51 0.51 0.0 0 0 88.94 63.01
  L 88.41 87.00
  A 0.51 0.51 0.0 0 1 88.02 87.48
  L 81.08 89.13
  A 0.51 0.51 0.0 0 1 80.45 88.62
  L 80.92 65.43
  A 0.51 0.51 0.0 0 0 80.28 64.92
  Z"
/>
<ellipse fill="#ffffff" cx="0.00" cy="0.00" transform="translate(112.56,66.06) rotate(103.1)" rx="9.70" ry="7.04"/>
<path fill="#020202" d="
  M 71.68 83.29
  A 0.26 0.26 0.0 0 1 71.85 83.62
  Q 68.61 93.90 57.75 95.21
  C 43.60 96.92 40.54 79.63 46.93 70.54
  C 52.23 63.01 64.03 59.35 70.04 68.63
  A 0.86 0.85 56.3 0 1 69.81 69.80
  L 65.24 73.00
  Q 64.76 73.33 64.51 72.81
  Q 62.44 68.54 58.55 69.38
  C 52.59 70.66 50.83 78.67 52.20 83.67
  C 53.53 88.53 58.30 90.62 62.28 87.05
  C 63.67 85.79 64.51 83.83 65.25 82.02
  Q 65.48 81.47 66.05 81.63
  L 71.68 83.29
  Z"
/>
<path fill="#020202" d="
  M 289.47 70.93
  C 291.80 71.18 294.96 69.54 296.68 70.20
  C 298.39 70.85 298.71 73.19 297.63 74.62
  Q 294.51 78.74 288.07 77.70
  A 1.07 1.06 -68.1 0 1 287.37 76.05
  C 288.13 74.94 293.51 77.80 296.73 73.78
  A 1.12 1.12 0.0 0 0 295.85 71.96
  C 293.41 71.98 288.11 74.13 287.46 71.04
  Q 287.36 70.56 287.62 70.14
  C 288.95 68.09 296.41 63.24 297.42 67.61
  Q 297.60 68.39 296.85 68.13
  Q 292.33 66.52 289.13 70.03
  Q 288.41 70.82 289.47 70.93
  Z"
/>
<path fill="#020202" d="
  M 33.85 69.23
  L 41.07 67.54
  A 0.34 0.34 0.0 0 1 41.48 67.87
  L 41.13 98.38
  A 0.34 0.34 0.0 0 1 40.87 98.70
  L 33.51 100.51
  A 0.34 0.34 0.0 0 1 33.09 100.18
  L 33.59 69.56
  A 0.34 0.34 0.0 0 1 33.85 69.23
  Z"
/>
<path fill="#020202" d="
  M 15.81 92.88
  L 21.80 72.46
  A 0.31 0.31 0.0 0 1 22.02 72.25
  L 30.28 70.18
  A 0.31 0.31 0.0 0 1 30.65 70.57
  L 20.64 103.56
  A 0.31 0.31 0.0 0 1 20.42 103.77
  L 12.91 105.64
  A 0.31 0.31 0.0 0 1 12.55 105.46
  L 0.26 77.98
  A 0.31 0.31 0.0 0 1 0.47 77.55
  L 7.95 75.77
  A 0.31 0.31 0.0 0 1 8.31 75.96
  L 15.23 92.91
  A 0.31 0.31 0.0 0 0 15.81 92.88
  Z"
/>
<path fill="#020202" d="
  M 271.71 73.34
  C 270.90 73.56 267.60 74.84 267.26 73.77
  Q 267.06 73.16 267.68 73.00
  L 278.15 70.21
  A 0.45 0.44 74.7 0 1 278.69 70.52
  C 279.19 72.21 275.67 72.23 274.55 72.65
  Q 274.03 72.85 274.02 73.41
  L 273.95 81.91
  Q 273.95 82.50 273.35 82.50
  L 272.75 82.50
  Q 272.25 82.50 272.25 82.00
  L 272.25 73.75
  Q 272.25 73.20 271.71 73.34
  Z"
/>
<path fill="#020202" d="
  M 252.80 86.18
  Q 255.89 85.92 257.44 83.11
  Q 257.71 82.62 258.18 82.92
  C 260.15 84.16 254.55 87.25 253.74 87.45
  C 244.59 89.75 246.32 76.70 255.25 76.01
  C 256.76 75.89 257.93 76.44 258.56 77.79
  A 0.52 0.52 0.0 0 1 257.84 78.46
  C 250.07 74.16 245.43 86.80 252.80 86.18
  Z"
/>
<path fill="#020202" d="
  M 230.44 90.86
  Q 233.91 91.67 236.14 89.13
  Q 236.49 88.73 236.49 88.19
  C 236.50 86.59 236.00 81.03 237.28 80.19
  A 0.47 0.47 0.0 0 1 238.00 80.59
  C 237.92 86.57 238.96 93.72 229.88 92.59
  A 2.15 2.14 -86.5 0 1 228.00 90.46
  L 228.04 83.06
  Q 228.04 82.53 228.57 82.50
  Q 228.76 82.48 228.93 82.50
  Q 229.41 82.56 229.43 83.05
  L 229.66 89.90
  A 1.03 1.02 -84.4 0 0 230.44 90.86
  Z"
/>
<path fill="#020202" d="
  M 217.31 87.44
  C 220.60 90.08 218.53 94.39 215.74 96.24
  Q 212.87 98.16 208.60 98.54
  Q 208.00 98.60 208.00 98.00
  L 208.00 88.75
  Q 208.00 88.16 208.55 87.97
  C 211.02 87.10 215.01 85.58 217.31 87.44
  Z
  M 213.51 88.12
  Q 211.98 88.28 210.25 89.04
  A 1.05 1.04 77.6 0 0 209.63 90.01
  L 209.74 96.61
  Q 209.75 96.99 210.12 96.94
  Q 213.13 96.53 215.38 94.82
  C 218.09 92.77 218.23 87.63 213.51 88.12
  Z"
/>
<path fill="#ffffff" d="
  M 213.51 88.12
  C 218.23 87.63 218.09 92.77 215.38 94.82
  Q 213.13 96.53 210.12 96.94
  Q 209.75 96.99 209.74 96.61
  L 209.63 90.01
  A 1.05 1.04 77.6 0 1 210.25 89.04
  Q 211.98 88.28 213.51 88.12
  Z"
/>
<path fill="#020202" d="
  M 197.5402 93.0947
  A 6.73 5.14 -39.0 0 1 195.5447 101.3245
  A 6.73 5.14 -39.0 0 1 187.0798 101.5653
  A 6.73 5.14 -39.0 0 1 189.0753 93.3355
  A 6.73 5.14 -39.0 0 1 197.5402 93.0947
  Z
  M 196.1677 94.0338
  A 5.06 3.71 -40.5 0 0 189.9105 94.4989
  A 5.06 3.71 -40.5 0 0 188.4723 100.6062
  A 5.06 3.71 -40.5 0 0 194.7295 100.1411
  A 5.06 3.71 -40.5 0 0 196.1677 94.0338
  Z"
/>
<ellipse fill="#ffffff" cx="0.00" cy="0.00" transform="translate(192.32,97.32) rotate(-40.5)" rx="5.06" ry="3.71"/>
<path fill="#020202" d="
  M 168.00 103.92
  L 168.00 108.51
  Q 168.00 109.00 167.51 109.00
  Q 167.28 109.00 167.07 109.00
  Q 166.50 109.01 166.50 108.44
  L 166.50 98.91
  Q 166.50 98.31 167.08 98.18
  L 175.23 96.38
  A 1.41 1.40 -10.4 0 1 176.92 97.54
  Q 177.37 100.44 174.62 101.66
  Q 174.14 101.87 174.46 102.29
  L 177.15 105.82
  Q 177.70 106.54 176.83 106.81
  L 176.28 106.99
  Q 175.75 107.15 175.43 106.70
  L 172.79 103.05
  Q 172.44 102.57 171.86 102.67
  L 168.58 103.24
  Q 168.00 103.33 168.00 103.92
  Z
  M 175.5434 98.6161
  A 1.01 1.01 0.0 0 0 174.3077 97.8998
  L 168.6061 99.4169
  A 1.01 1.01 0.0 0 0 167.8897 100.6526
  L 167.9566 100.9039
  A 1.01 1.01 0.0 0 0 169.1923 101.6202
  L 174.8939 100.1031
  A 1.01 1.01 0.0 0 0 175.6103 98.8674
  L 175.5434 98.6161
  Z"
/>
<rect fill="#ffffff" x="-3.96" y="-1.14" transform="translate(171.75,99.76) rotate(-14.9)" width="7.92" height="2.28" rx="1.01"/>
<path fill="#020202" d="
  M 148.75 109.26
  L 148.75 112.73
  Q 148.75 113.19 148.53 113.60
  Q 147.98 114.60 147.35 113.83
  Q 147.00 113.40 147.00 112.85
  L 147.00 104.03
  A 0.95 0.95 0.0 0 1 147.68 103.12
  C 150.05 102.43 156.81 99.69 157.24 103.74
  C 157.62 107.38 152.35 108.67 149.27 108.73
  Q 148.75 108.74 148.75 109.26
  Z
  M 149.34 107.74
  L 155.79 105.72
  A 0.29 0.29 0.0 0 0 155.98 105.36
  L 155.71 104.49
  A 2.20 1.75 72.6 0 0 153.38 102.91
  L 149.72 104.06
  A 2.20 1.75 72.6 0 0 148.71 106.68
  L 148.98 107.55
  A 0.29 0.29 0.0 0 0 149.34 107.74
  Z"
/>
<path fill="#ffffff" d="
  M 149.34 107.74
  A 0.29 0.29 0.0 0 1 148.98 107.55
  L 148.71 106.68
  A 2.20 1.75 72.6 0 1 149.72 104.06
  L 153.38 102.91
  A 2.20 1.75 72.6 0 1 155.71 104.49
  L 155.98 105.36
  A 0.29 0.29 0.0 0 1 155.79 105.72
  L 149.34 107.74
  Z"
/>
<path fill="#020202" d="
  M 121.38 115.38
  L 117.43 116.40
  Q 116.99 116.51 116.81 116.09
  C 116.16 114.56 121.98 113.69 123.14 113.60
  Q 123.70 113.56 123.78 114.11
  Q 124.66 120.11 118.24 121.48
  C 112.33 122.75 111.17 117.00 114.03 113.30
  C 115.51 111.39 121.74 107.68 123.31 111.49
  A 0.42 0.42 0.0 0 1 122.79 112.05
  C 118.01 110.54 111.21 114.81 115.13 119.43
  Q 115.44 119.80 115.91 119.87
  C 118.95 120.37 122.97 119.64 121.87 115.67
  Q 121.77 115.28 121.38 115.38
  Z"
/>
<path fill="#020202" d="
  M 93.66 119.26
  L 93.73 127.39
  Q 93.74 128.00 93.13 128.00
  Q 92.84 128.00 92.56 128.00
  Q 92.00 128.00 92.00 127.43
  L 92.01 117.82
  Q 92.01 117.25 92.50 116.98
  Q 93.59 116.36 94.84 117.28
  Q 95.05 117.43 95.24 117.62
  L 100.91 123.27
  A 0.31 0.31 0.0 0 0 101.44 123.04
  L 101.18 115.44
  Q 101.17 114.97 101.56 114.71
  C 104.07 113.00 102.84 123.93 102.77 124.74
  A 1.20 1.19 -65.1 0 1 100.74 125.49
  L 94.19 119.04
  A 0.31 0.31 0.0 0 0 93.66 119.26
  Z"
/>
<rect fill="#020202" x="-0.78" y="-5.47" transform="translate(80.28,125.51) rotate(-0.2)" width="1.56" height="10.94" rx="0.30"/>
<path fill="#020202" d="
  M 63.48 133.70
  C 63.70 133.65 69.84 131.37 69.79 133.22
  Q 69.78 133.70 69.31 133.81
  L 61.93 135.48
  Q 61.25 135.64 61.25 134.94
  L 61.26 125.09
  Q 61.26 124.49 61.86 124.50
  Q 62.11 124.51 62.36 124.50
  Q 62.97 124.49 62.97 125.09
  L 62.94 133.28
  Q 62.93 133.85 63.48 133.70
  Z"
/>
<path fill="#020202" d="
  M 48.73 136.64
  L 43.39 137.97
  Q 42.94 138.08 42.71 138.48
  L 41.17 141.23
  A 0.57 0.57 0.0 0 1 40.15 140.73
  L 44.91 129.50
  A 1.34 1.34 0.0 0 1 47.33 129.39
  Q 49.26 132.97 51.68 136.86
  C 52.12 137.58 52.22 138.14 51.25 138.34
  Q 50.69 138.46 50.36 138.00
  L 49.62 136.96
  Q 49.29 136.50 48.73 136.64
  Z
  M 46.47 131.19
  A 0.48 0.48 0.0 0 0 45.61 131.24
  L 43.75 135.60
  A 0.48 0.48 0.0 0 0 44.31 136.25
  L 48.02 135.26
  A 0.48 0.48 0.0 0 0 48.32 134.56
  L 46.47 131.19
  Z"
/>
<path fill="#ffffff" d="
  M 46.47 131.19
  L 48.32 134.56
  A 0.48 0.48 0.0 0 1 48.02 135.26
  L 44.31 136.25
  A 0.48 0.48 0.0 0 1 43.75 135.60
  L 45.61 131.24
  A 0.48 0.48 0.0 0 1 46.47 131.19
  Z"
/>
<path fill="#020202" d="
  M 24.30 143.72
  L 30.94 142.02
  Q 31.45 141.89 31.45 142.42
  C 31.43 143.79 24.13 145.17 22.82 145.44
  Q 22.25 145.55 22.25 144.97
  L 22.25 135.22
  Q 22.25 134.63 22.82 134.49
  L 30.94 132.53
  Q 31.51 132.39 31.50 132.98
  Q 31.50 133.13 31.50 133.31
  Q 31.51 133.75 31.08 133.85
  L 24.44 135.38
  Q 23.78 135.53 23.77 136.20
  L 23.74 137.66
  Q 23.73 138.24 24.31 138.14
  C 25.27 137.98 29.39 136.38 30.06 137.45
  Q 30.46 138.07 29.74 138.25
  L 24.37 139.62
  Q 23.75 139.77 23.75 140.41
  L 23.75 143.30
  Q 23.75 143.86 24.30 143.72
  Z"
/>
<path fill="#020202" d="
  M 5.19 150.00
  L 3.44 150.00
  L 1.54 149.20
  Q 0.81 148.90 1.27 148.26
  L 1.78 147.57
  Q 2.02 147.23 2.39 147.41
  Q 7.27 149.86 10.54 145.69
  A 1.08 1.07 18.0 0 0 9.65 143.96
  C 7.85 144.02 4.12 145.26 2.72 144.68
  C 1.14 144.02 1.14 142.39 2.22 141.19
  Q 5.58 137.44 10.62 138.23
  Q 11.19 138.31 11.22 138.89
  L 11.26 139.68
  Q 11.29 140.31 10.69 140.12
  Q 6.36 138.72 3.20 141.87
  Q 2.74 142.31 3.20 142.76
  C 3.93 143.49 8.91 142.22 10.29 142.22
  Q 10.80 142.22 11.19 142.56
  C 15.40 146.21 8.00 149.76 5.19 150.00
  Z"
/>
</svg>
