<?xml version="1.0" encoding="UTF-8" standalone="no"?>
<!DOCTYPE svg PUBLIC "-//W3C//DTD SVG 1.1//EN" "http://www.w3.org/Graphics/SVG/1.1/DTD/svg11.dtd">
<svg xmlns="http://www.w3.org/2000/svg" version="1.1" viewBox="0.00 0.00 800.00 800.00">
<g stroke-width="2.00" fill="none" stroke-linecap="butt">
<path stroke="#8abda6" vector-effect="non-scaling-stroke" d="
  M 149.56 325.92
  C 127.62 328.82 108.82 335.99 93.25 351.46"
/>
<path stroke="#85cca0" vector-effect="non-scaling-stroke" d="
  M 93.25 351.46
  Q 75.13 369.58 77.54 395.50"
/>
<path stroke="#8abda6" vector-effect="non-scaling-stroke" d="
  M 77.54 395.50
  C 77.74 414.80 96.00 432.91 111.63 441.66
  C 129.06 451.41 147.37 454.74 167.28 452.85
  C 184.90 451.17 201.24 445.89 215.24 436.22
  Q 224.12 430.09 231.32 419.05
  C 242.19 402.36 244.84 379.15 233.04 362.25"
/>
<path stroke="#85cca0" vector-effect="non-scaling-stroke" d="
  M 233.04 362.25
  C 214.95 335.19 181.13 322.64 149.56 325.92"
/>
<path stroke="#108a47" vector-effect="non-scaling-stroke" d="
  M 233.04 362.25
  C 230.78 363.60 228.74 361.81 226.76 360.22
  Q 226.25 359.81 226.25 360.46
  L 226.25 360.89
  Q 226.25 361.47 226.62 361.91
  C 239.32 377.09 240.78 396.38 231.05 413.43
  C 229.71 415.76 227.08 418.72 225.94 422.26
  Q 225.78 422.74 225.42 423.07
  C 221.59 426.56 218.47 430.97 214.65 433.91
  C 206.69 440.03 199.00 442.19 190.68 445.84
  Q 188.22 446.92 185.15 447.30
  C 178.00 448.19 173.21 449.55 163.75 450.20
  C 162.02 450.32 160.49 451.22 158.63 451.33
  C 155.95 451.48 146.42 453.17 145.59 450.05
  Q 145.47 449.60 145.08 449.35
  C 139.29 445.63 133.09 448.39 126.67 444.07
  Q 124.16 442.38 117.84 442.17
  Q 117.32 442.16 116.95 441.79
  C 112.80 437.72 107.48 437.38 103.51 433.77
  C 94.71 425.75 87.81 419.18 82.66 409.00
  Q 82.49 408.66 82.86 408.71
  L 83.19 408.75
  Q 83.83 408.84 83.48 408.30
  C 80.92 404.28 81.42 398.86 77.54 395.50"
/>
<path stroke="#108a47" vector-effect="non-scaling-stroke" d="
  M 93.25 351.46
  Q 94.09 351.57 94.83 352.23
  Q 95.23 352.58 95.62 352.22
  Q 101.47 346.71 108.33 342.62
  C 112.01 340.42 118.68 335.79 123.94 334.19
  Q 136.80 330.26 149.56 325.92"
/>
<path stroke="#8abda6" vector-effect="non-scaling-stroke" d="
  M 21.79 531.75
  C 38.71 516.04 54.40 503.04 71.00 489.01
  C 78.12 482.99 86.87 474.19 95.50 467.46"
/>
<path stroke="#85cca0" vector-effect="non-scaling-stroke" d="
  M 95.50 467.46
  Q 97.91 465.94 100.62 464.73
  C 102.86 463.74 103.59 464.56 103.75 466.82
  C 104.79 481.60 107.10 501.16 111.36 515.67
  Q 112.14 518.31 113.49 519.96
  Q 113.85 520.41 114.36 520.14
  Q 116.61 518.97 118.42 517.17
  Q 131.20 504.45 144.07 491.82
  Q 151.01 485.01 152.81 482.82
  C 158.22 476.26 164.42 468.68 171.61 464.04
  A 0.58 0.57 68.2 0 1 172.49 464.42
  C 173.65 470.86 175.40 477.28 176.04 483.61
  Q 178.56 508.54 180.75 533.50
  Q 180.91 535.27 180.42 536.51
  Q 180.18 537.14 179.54 536.93
  C 175.19 535.56 175.14 522.66 175.18 518.32
  Q 175.23 513.97 172.68 501.81
  Q 171.89 498.06 171.29 488.07
  C 171.16 485.78 172.96 481.09 169.03 481.07
  Q 167.17 481.07 164.90 482.88"
/>
<path stroke="#8abda6" vector-effect="non-scaling-stroke" d="
  M 164.90 482.88
  Q 162.36 483.95 161.06 485.31
  Q 145.25 501.85 129.00 517.96"
/>
<path stroke="#85cca0" vector-effect="non-scaling-stroke" d="
  M 129.00 517.96
  C 123.09 523.75 116.98 531.25 109.82 535.38
  A 0.94 0.94 0.0 0 1 108.43 534.75
  C 105.92 522.01 104.28 507.87 101.97 496.45
  Q 100.15 487.42 98.07 478.44
  A 0.49 0.48 70.5 0 0 97.39 478.11
  C 89.92 481.66 83.32 488.66 77.50 494.46"
/>
<path stroke="#8abda6" vector-effect="non-scaling-stroke" d="
  M 77.50 494.46
  Q 53.64 515.54 29.53 536.35
  C 28.15 537.54 27.01 538.04 28.57 540.17
  Q 29.20 541.01 30.24 540.94
  C 57.55 539.13 85.13 540.30 112.50 540.21"
/>
<path stroke="#85cca0" vector-effect="non-scaling-stroke" d="
  M 112.50 540.21
  L 116.75 540.21"
/>
<path stroke="#8abda6" vector-effect="non-scaling-stroke" d="
  M 116.75 540.21
  Q 138.27 540.23 159.78 540.30
  C 163.32 540.31 169.02 540.76 173.75 540.21"
/>
<path stroke="#85cca0" vector-effect="non-scaling-stroke" d="
  M 173.75 540.21
  C 185.50 538.61 189.09 532.22 193.11 521.11
  C 202.70 494.56 213.95 468.71 223.62 442.16
  Q 224.49 439.79 224.87 437.42
  A 0.40 0.40 0.0 0 0 224.29 437.00
  C 216.21 441.19 208.24 447.08 200.50 450.27
  C 184.73 456.76 167.48 460.69 150.43 458.12
  C 132.17 455.37 113.94 451.50 99.00 439.79
  C 85.15 428.94 75.40 414.80 71.05 397.73
  A 0.63 0.63 0.0 0 0 70.07 397.38
  Q 67.88 398.98 66.79 401.73
  C 49.47 445.42 30.72 488.58 12.13 531.74
  Q 11.37 533.50 10.44 535.28
  Q 10.22 535.69 10.45 536.10
  C 13.21 541.05 18.82 534.80 21.79 531.75"
/>
<path stroke="#108a47" vector-effect="non-scaling-stroke" d="
  M 173.75 540.21
  Q 173.09 539.95 172.08 539.99
  Q 171.36 540.02 171.76 539.43
  Q 172.60 538.17 172.01 536.92
  Q 171.76 536.39 171.18 536.47
  Q 168.11 536.92 163.68 536.61
  Q 158.47 536.25 140.00 536.27
  C 133.36 536.27 126.22 537.10 119.31 537.41
  C 117.59 537.49 115.96 538.17 116.75 540.21"
/>
<path stroke="#108a47" vector-effect="non-scaling-stroke" d="
  M 112.50 540.21
  L 110.84 536.30
  Q 110.71 536.00 110.51 536.26
  L 109.50 537.59
  Q 109.23 537.96 108.77 537.90
  C 106.19 537.59 103.75 536.60 101.25 536.53
  C 91.52 536.25 81.18 535.44 71.52 536.30
  C 66.50 536.75 60.89 536.53 56.51 536.97
  Q 48.59 537.77 40.62 538.55
  Q 40.09 538.60 39.71 538.23
  C 37.20 535.77 38.63 532.39 40.72 530.21
  Q 54.41 515.95 69.76 503.51
  C 72.72 501.11 75.26 498.34 77.93 495.70
  Q 78.31 495.32 78.00 494.90
  Q 77.77 494.58 77.50 494.46"
/>
<path stroke="#108a47" vector-effect="non-scaling-stroke" d="
  M 129.00 517.96
  C 129.72 518.44 130.46 518.39 131.17 517.84
  C 141.80 509.59 150.71 497.80 162.31 488.82
  Q 165.02 486.73 164.90 482.88"
/>
<path stroke="#108a47" vector-effect="non-scaling-stroke" d="
  M 95.50 467.46
  Q 95.61 466.88 95.30 466.36
  A 0.63 0.63 0.0 0 0 94.35 466.20
  C 89.06 470.66 83.68 476.20 79.13 480.17
  Q 64.64 492.82 49.86 505.13
  C 42.18 511.52 32.94 520.19 24.02 527.24
  Q 21.79 529.00 21.79 531.75"
/>
<path stroke="#8abda6" vector-effect="non-scaling-stroke" d="
  M 271.04 536.75
  Q 272.88 531.37 273.50 528.75
  Q 280.13 500.89 285.46 472.75"
/>
<path stroke="#85cca0" vector-effect="non-scaling-stroke" d="
  M 285.46 472.75
  L 289.04 459.51
  Q 289.11 459.25 289.19 459.51
  Q 293.43 472.25 294.28 475.74
  C 300.03 499.19 305.20 517.85 309.99 536.69
  Q 310.11 537.17 310.51 537.46
  C 313.52 539.70 318.31 539.68 322.75 539.76
  Q 327.41 539.84 345.93 538.99"
/>
<path stroke="#8abda6" vector-effect="non-scaling-stroke" d="
  M 345.93 538.99
  L 363.96 470.75"
/>
<path stroke="#85cca0" vector-effect="non-scaling-stroke" d="
  M 363.96 470.75
  Q 365.09 465.21 368.43 460.76
  A 0.52 0.52 0.0 0 1 369.37 461.02
  Q 370.52 472.18 373.15 483.02
  C 374.99 490.61 375.95 498.12 378.00 505.86
  Q 382.37 522.27 385.09 539.11
  Q 385.18 539.62 385.69 539.61
  Q 405.48 539.57 425.24 539.18
  Q 428.00 539.13 430.05 538.31
  Q 430.61 538.08 430.50 537.49
  Q 426.93 519.09 421.81 501.08
  Q 419.43 492.72 418.08 485.22
  C 414.26 464.10 409.46 443.21 405.61 422.09
  Q 405.52 421.61 405.04 421.56
  C 392.55 420.25 379.56 421.34 367.00 421.54"
/>
<path stroke="#8abda6" vector-effect="non-scaling-stroke" d="
  M 367.00 421.54
  L 349.00 421.29"
/>
<path stroke="#85cca0" vector-effect="non-scaling-stroke" d="
  M 349.00 421.29
  Q 347.80 421.00 346.70 421.41
  Q 346.22 421.59 346.11 422.10
  Q 343.06 436.44 338.97 450.51
  C 336.38 459.41 333.77 471.92 329.56 482.26
  A 0.46 0.45 -41.3 0 1 328.70 482.21
  L 312.77 421.71
  Q 312.63 421.18 312.09 421.10
  Q 311.04 420.95 309.50 420.96
  Q 283.78 421.09 258.06 421.30
  C 256.39 421.32 255.30 422.02 255.01 423.78
  Q 253.51 432.73 252.87 435.58
  Q 242.01 483.49 232.00 531.58
  C 231.56 533.71 230.26 536.54 230.22 539.28
  A 0.60 0.59 89.1 0 0 230.83 539.88
  Q 249.62 539.32 267.75 539.21
  Q 270.65 539.19 271.04 536.75"
/>
<path stroke="#108a47" vector-effect="non-scaling-stroke" d="
  M 349.00 421.29
  L 349.00 422.72
  Q 349.00 423.19 349.43 423.37
  C 351.81 424.34 354.06 423.67 356.16 423.93
  Q 361.67 424.59 367.25 424.51
  Q 367.96 424.49 367.66 423.85
  Q 367.40 423.28 367.86 422.78
  Q 368.28 422.31 367.82 421.89
  Q 367.48 421.58 367.00 421.54"
/>
<path stroke="#108a47" vector-effect="non-scaling-stroke" d="
  M 363.96 470.75
  Q 363.00 470.25 362.07 470.55
  Q 361.63 470.69 361.47 471.12
  Q 358.80 478.50 357.61 486.25
  Q 357.54 486.73 357.23 487.10
  L 356.16 488.41
  Q 355.87 488.76 355.84 489.21
  C 355.60 493.93 353.50 498.32 352.66 502.34
  C 351.25 509.05 349.49 517.78 346.50 524.68
  C 344.49 529.30 345.17 534.02 345.93 538.99"
/>
<path stroke="#108a47" vector-effect="non-scaling-stroke" d="
  M 285.46 472.75
  Q 284.68 473.75 284.56 475.00
  Q 284.52 475.42 284.17 475.64
  L 281.87 477.11
  Q 281.47 477.37 281.41 477.83
  C 280.16 487.14 278.44 495.97 276.68 505.59
  C 275.13 514.06 272.46 522.77 270.15 531.10
  Q 270.02 531.58 270.11 532.06
  L 271.04 536.75"
/>
<path stroke="#8abda6" vector-effect="non-scaling-stroke" d="
  M 542.21 532.25
  C 541.11 506.77 542.08 480.67 541.71 455.25"
/>
<path stroke="#85cca0" vector-effect="non-scaling-stroke" d="
  M 541.71 455.25
  L 542.00 451.46"
/>
<path stroke="#8abda6" vector-effect="non-scaling-stroke" d="
  M 542.00 451.46
  L 572.34 450.62
  Q 572.90 450.61 573.22 450.16
  Q 573.87 449.27 573.46 448.00"
/>
<path stroke="#85cca0" vector-effect="non-scaling-stroke" d="
  M 573.46 448.00
  L 574.28 422.87
  Q 574.30 422.18 573.61 422.18
  L 471.09 422.53
  Q 470.71 422.54 470.71 422.91
  L 470.93 451.20
  A 0.34 0.33 88.3 0 0 471.27 451.53
  L 498.99 451.13
  A 0.37 0.37 0.0 0 1 499.24 451.77
  C 497.33 453.46 498.18 479.18 498.25 484.94
  C 498.39 495.64 497.76 507.52 497.80 517.02
  Q 497.85 526.96 497.89 537.59
  A 0.86 0.85 0.7 0 0 498.73 538.44
  Q 518.15 538.73 537.99 538.20
  Q 540.19 538.14 541.73 537.40
  Q 542.25 537.15 542.25 536.57
  L 542.21 532.25"
/>
<path stroke="#108a47" vector-effect="non-scaling-stroke" d="
  M 573.46 448.00
  Q 572.85 447.99 573.02 447.31
  Q 573.14 446.82 572.78 447.17
  L 572.41 447.55
  Q 572.19 447.76 571.90 447.77
  L 543.65 448.54
  Q 543.03 448.56 542.65 449.04
  L 541.36 450.65
  Q 541.08 451.00 541.48 451.20
  L 542.00 451.46"
/>
<path stroke="#108a47" vector-effect="non-scaling-stroke" d="
  M 541.71 455.25
  Q 541.26 454.94 540.72 455.03
  Q 540.20 455.12 540.21 455.65
  C 540.48 471.31 540.88 487.01 539.95 502.66
  C 539.62 508.14 540.22 513.81 540.41 519.44
  C 540.54 523.35 539.20 527.39 540.76 531.99
  Q 540.92 532.47 541.42 532.38
  L 542.21 532.25"
/>
<path stroke="#8abda6" vector-effect="non-scaling-stroke" d="
  M 589.25 453.54
  C 572.68 456.91 557.50 463.74 550.00 479.96"
/>
<path stroke="#85cca0" vector-effect="non-scaling-stroke" d="
  M 550.00 479.96
  Q 547.62 489.34 548.63 498.77
  C 550.79 519.07 565.35 528.95 584.00 534.21"
/>
<path stroke="#8abda6" vector-effect="non-scaling-stroke" d="
  M 584.00 534.21
  Q 598.28 537.88 612.94 537.61
  C 632.64 537.25 649.85 534.25 665.70 521.72
  Q 669.81 518.47 672.29 511.88"
/>
<path stroke="#85cca0" vector-effect="non-scaling-stroke" d="
  M 672.29 511.88
  Q 674.24 509.17 674.34 505.68
  Q 674.36 505.18 673.86 505.19
  Q 654.53 505.43 630.75 504.95
  Q 627.73 504.89 624.74 506.04
  C 621.29 507.38 621.02 510.94 616.76 512.00
  C 607.61 514.29 598.62 506.96 600.25 497.29"
/>
<path stroke="#8abda6" vector-effect="non-scaling-stroke" d="
  M 600.25 497.29
  Q 601.92 496.81 602.75 496.86
  C 623.09 498.08 647.49 496.67 670.45 497.28
  C 673.01 497.34 677.40 496.59 676.46 493.00"
/>
<path stroke="#85cca0" vector-effect="non-scaling-stroke" d="
  M 676.46 493.00
  Q 676.30 488.78 675.24 485.47
  Q 666.69 458.97 639.23 453.67
  C 621.70 450.28 606.49 449.47 589.25 453.54"
/>
<path stroke="#108a47" vector-effect="non-scaling-stroke" d="
  M 676.46 493.00
  L 675.43 493.34
  Q 674.96 493.50 674.47 493.40
  C 669.43 492.36 663.26 494.42 657.97 494.48
  Q 629.07 494.81 600.17 493.13
  Q 599.66 493.10 599.45 493.56
  Q 598.44 495.83 600.25 497.29"
/>
<path stroke="#108a47" vector-effect="non-scaling-stroke" d="
  M 672.29 511.88
  Q 666.69 520.01 659.80 524.57
  Q 653.90 528.47 644.96 531.42
  Q 644.50 531.57 644.02 531.47
  Q 635.85 529.80 628.12 532.10
  C 614.25 536.24 600.88 534.01 586.93 531.13
  Q 586.39 531.02 586.07 531.45
  L 584.00 534.21"
/>
<path stroke="#108a47" vector-effect="non-scaling-stroke" d="
  M 550.00 479.96
  Q 550.87 479.83 551.58 480.32
  Q 551.96 480.58 552.35 480.35
  Q 553.15 479.89 553.23 478.92
  Q 553.28 478.44 553.56 478.06
  C 555.52 475.38 556.59 472.83 559.43 470.75
  Q 561.66 469.12 564.67 466.19
  C 570.29 460.70 582.13 457.98 588.70 455.70
  Q 589.20 455.52 589.21 454.99
  L 589.25 453.54"
/>
<path stroke="#85cca0" vector-effect="non-scaling-stroke" d="
  M 729.67 477.30
  A 0.88 0.88 0.0 0 1 728.16 477.40
  Q 722.87 469.67 718.60 461.59
  C 715.09 454.96 710.10 454.69 703.00 454.94
  Q 686.52 455.52 670.46 455.15
  A 1.55 1.54 75.3 0 0 669.10 457.48
  Q 671.05 460.75 673.29 463.44
  Q 684.52 476.96 695.69 490.58
  Q 698.20 493.64 695.51 497.24
  C 691.08 503.15 686.41 508.80 682.20 514.89
  Q 676.65 522.92 670.75 530.70
  Q 668.94 533.08 668.03 535.64
  A 1.42 1.41 -83.0 0 0 669.50 537.53
  C 681.94 536.32 694.46 536.79 706.94 536.70
  C 709.95 536.68 712.24 534.87 713.67 532.04
  Q 717.46 524.54 722.25 517.62
  C 723.80 515.37 725.63 514.90 728.18 515.06
  Q 728.71 515.09 728.99 515.54
  Q 733.79 523.11 737.82 531.15
  C 740.35 536.21 744.10 537.27 749.76 536.91
  Q 766.14 535.88 782.51 536.99
  Q 786.38 537.25 789.98 535.75
  A 1.52 1.51 58.0 0 0 790.53 533.35
  C 784.03 526.01 779.38 520.36 772.02 510.79
  Q 765.49 502.31 757.73 494.85
  Q 757.34 494.47 757.53 493.97
  Q 758.96 490.07 761.99 485.97
  Q 772.88 471.30 779.96 462.48
  Q 782.22 459.67 782.86 456.88
  A 1.01 1.00 -80.1 0 0 782.01 455.66
  C 769.20 453.95 754.93 454.97 741.85 454.71
  Q 741.35 454.70 741.13 455.14
  L 729.67 477.30"
/>
<path stroke="#8abda6" vector-effect="non-scaling-stroke" d="
  M 430.04 495.50
  L 430.56 499.66
  Q 430.63 500.21 431.20 500.20
  Q 453.66 499.54 476.07 499.79
  C 479.74 499.83 481.94 500.44 485.81 499.12"
/>
<path stroke="#85cca0" vector-effect="non-scaling-stroke" d="
  M 485.81 499.12
  L 486.51 473.01
  A 0.72 0.72 0.0 0 0 485.83 472.27
  C 467.45 471.23 449.21 471.78 430.77 471.47
  Q 430.24 471.46 430.18 471.98
  Q 428.85 483.82 430.04 495.50"
/>
<path stroke="#108a47" vector-effect="non-scaling-stroke" d="
  M 485.81 499.12
  Q 471.95 496.87 460.25 496.51
  Q 452.88 496.28 443.24 496.93
  C 441.18 497.07 438.87 496.53 436.26 496.76
  Q 433.57 496.99 430.04 495.50"
/>
<path stroke="#85cca0" vector-effect="non-scaling-stroke" d="
  M 603.75 472.04
  C 599.42 474.49 600.28 478.58 600.19 482.86
  Q 600.18 483.33 600.64 483.30
  Q 610.59 482.67 620.54 482.13
  C 627.20 481.77 622.28 473.55 619.71 471.50"
/>
<path stroke="#108a47" vector-effect="non-scaling-stroke" d="
  M 619.71 471.50
  L 620.04 470.49
  Q 620.20 470.03 619.88 469.66
  C 616.38 465.55 605.24 466.29 601.98 470.60
  Q 601.63 471.05 601.96 471.52
  Q 602.50 472.30 603.75 472.04"
/>
<path stroke="#8abda6" vector-effect="non-scaling-stroke" d="
  M 619.71 471.50
  Q 611.65 468.91 603.75 472.04"
/>
</g>
<path fill="#ffffff" d="
  M 0.00 0.00
  L 800.00 0.00
  L 800.00 800.00
  L 0.00 800.00
  L 0.00 0.00
  Z
  M 149.56 325.92
  C 127.62 328.82 108.82 335.99 93.25 351.46
  Q 75.13 369.58 77.54 395.50
  C 77.74 414.80 96.00 432.91 111.63 441.66
  C 129.06 451.41 147.37 454.74 167.28 452.85
  C 184.90 451.17 201.24 445.89 215.24 436.22
  Q 224.12 430.09 231.32 419.05
  C 242.19 402.36 244.84 379.15 233.04 362.25
  C 214.95 335.19 181.13 322.64 149.56 325.92
  Z
  M 21.79 531.75
  C 38.71 516.04 54.40 503.04 71.00 489.01
  C 78.12 482.99 86.87 474.19 95.50 467.46
  Q 97.91 465.94 100.62 464.73
  C 102.86 463.74 103.59 464.56 103.75 466.82
  C 104.79 481.60 107.10 501.16 111.36 515.67
  Q 112.14 518.31 113.49 519.96
  Q 113.85 520.41 114.36 520.14
  Q 116.61 518.97 118.42 517.17
  Q 131.20 504.45 144.07 491.82
  Q 151.01 485.01 152.81 482.82
  C 158.22 476.26 164.42 468.68 171.61 464.04
  A 0.58 0.57 68.2 0 1 172.49 464.42
  C 173.65 470.86 175.40 477.28 176.04 483.61
  Q 178.56 508.54 180.75 533.50
  Q 180.91 535.27 180.42 536.51
  Q 180.18 537.14 179.54 536.93
  C 175.19 535.56 175.14 522.66 175.18 518.32
  Q 175.23 513.97 172.68 501.81
  Q 171.89 498.06 171.29 488.07
  C 171.16 485.78 172.96 481.09 169.03 481.07
  Q 167.17 481.07 164.90 482.88
  Q 162.36 483.95 161.06 485.31
  Q 145.25 501.85 129.00 517.96
  C 123.09 523.75 116.98 531.25 109.82 535.38
  A 0.94 0.94 0.0 0 1 108.43 534.75
  C 105.92 522.01 104.28 507.87 101.97 496.45
  Q 100.15 487.42 98.07 478.44
  A 0.49 0.48 70.5 0 0 97.39 478.11
  C 89.92 481.66 83.32 488.66 77.50 494.46
  Q 53.64 515.54 29.53 536.35
  C 28.15 537.54 27.01 538.04 28.57 540.17
  Q 29.20 541.01 30.24 540.94
  C 57.55 539.13 85.13 540.30 112.50 540.21
  L 116.75 540.21
  Q 138.27 540.23 159.78 540.30
  C 163.32 540.31 169.02 540.76 173.75 540.21
  C 185.50 538.61 189.09 532.22 193.11 521.11
  C 202.70 494.56 213.95 468.71 223.62 442.16
  Q 224.49 439.79 224.87 437.42
  A 0.40 0.40 0.0 0 0 224.29 437.00
  C 216.21 441.19 208.24 447.08 200.50 450.27
  C 184.73 456.76 167.48 460.69 150.43 458.12
  C 132.17 455.37 113.94 451.50 99.00 439.79
  C 85.15 428.94 75.40 414.80 71.05 397.73
  A 0.63 0.63 0.0 0 0 70.07 397.38
  Q 67.88 398.98 66.79 401.73
  C 49.47 445.42 30.72 488.58 12.13 531.74
  Q 11.37 533.50 10.44 535.28
  Q 10.22 535.69 10.45 536.10
  C 13.21 541.05 18.82 534.80 21.79 531.75
  Z
  M 271.04 536.75
  Q 272.88 531.37 273.50 528.75
  Q 280.13 500.89 285.46 472.75
  L 289.04 459.51
  Q 289.11 459.25 289.19 459.51
  Q 293.43 472.25 294.28 475.74
  C 300.03 499.19 305.20 517.85 309.99 536.69
  Q 310.11 537.17 310.51 537.46
  C 313.52 539.70 318.31 539.68 322.75 539.76
  Q 327.41 539.84 345.93 538.99
  L 363.96 470.75
  Q 365.09 465.21 368.43 460.76
  A 0.52 0.52 0.0 0 1 369.37 461.02
  Q 370.52 472.18 373.15 483.02
  C 374.99 490.61 375.95 498.12 378.00 505.86
  Q 382.37 522.27 385.09 539.11
  Q 385.18 539.62 385.69 539.61
  Q 405.48 539.57 425.24 539.18
  Q 428.00 539.13 430.05 538.31
  Q 430.61 538.08 430.50 537.49
  Q 426.93 519.09 421.81 501.08
  Q 419.43 492.72 418.08 485.22
  C 414.26 464.10 409.46 443.21 405.61 422.09
  Q 405.52 421.61 405.04 421.56
  C 392.55 420.25 379.56 421.34 367.00 421.54
  L 349.00 421.29
  Q 347.80 421.00 346.70 421.41
  Q 346.22 421.59 346.11 422.10
  Q 343.06 436.44 338.97 450.51
  C 336.38 459.41 333.77 471.92 329.56 482.26
  A 0.46 0.45 -41.3 0 1 328.70 482.21
  L 312.77 421.71
  Q 312.63 421.18 312.09 421.10
  Q 311.04 420.95 309.50 420.96
  Q 283.78 421.09 258.06 421.30
  C 256.39 421.32 255.30 422.02 255.01 423.78
  Q 253.51 432.73 252.87 435.58
  Q 242.01 483.49 232.00 531.58
  C 231.56 533.71 230.26 536.54 230.22 539.28
  A 0.60 0.59 89.1 0 0 230.83 539.88
  Q 249.62 539.32 267.75 539.21
  Q 270.65 539.19 271.04 536.75
  Z
  M 542.21 532.25
  C 541.11 506.77 542.08 480.67 541.71 455.25
  L 542.00 451.46
  L 572.34 450.62
  Q 572.90 450.61 573.22 450.16
  Q 573.87 449.27 573.46 448.00
  L 574.28 422.87
  Q 574.30 422.18 573.61 422.18
  L 471.09 422.53
  Q 470.71 422.54 470.71 422.91
  L 470.93 451.20
  A 0.34 0.33 88.3 0 0 471.27 451.53
  L 498.99 451.13
  A 0.37 0.37 0.0 0 1 499.24 451.77
  C 497.33 453.46 498.18 479.18 498.25 484.94
  C 498.39 495.64 497.76 507.52 497.80 517.02
  Q 497.85 526.96 497.89 537.59
  A 0.86 0.85 0.7 0 0 498.73 538.44
  Q 518.15 538.73 537.99 538.20
  Q 540.19 538.14 541.73 537.40
  Q 542.25 537.15 542.25 536.57
  L 542.21 532.25
  Z
  M 589.25 453.54
  C 572.68 456.91 557.50 463.74 550.00 479.96
  Q 547.62 489.34 548.63 498.77
  C 550.79 519.07 565.35 528.95 584.00 534.21
  Q 598.28 537.88 612.94 537.61
  C 632.64 537.25 649.85 534.25 665.70 521.72
  Q 669.81 518.47 672.29 511.88
  Q 674.24 509.17 674.34 505.68
  Q 674.36 505.18 673.86 505.19
  Q 654.53 505.43 630.75 504.95
  Q 627.73 504.89 624.74 506.04
  C 621.29 507.38 621.02 510.94 616.76 512.00
  C 607.61 514.29 598.62 506.96 600.25 497.29
  Q 601.92 496.81 602.75 496.86
  C 623.09 498.08 647.49 496.67 670.45 497.28
  C 673.01 497.34 677.40 496.59 676.46 493.00
  Q 676.30 488.78 675.24 485.47
  Q 666.69 458.97 639.23 453.67
  C 621.70 450.28 606.49 449.47 589.25 453.54
  Z
  M 729.67 477.30
  A 0.88 0.88 0.0 0 1 728.16 477.40
  Q 722.87 469.67 718.60 461.59
  C 715.09 454.96 710.10 454.69 703.00 454.94
  Q 686.52 455.52 670.46 455.15
  A 1.55 1.54 75.3 0 0 669.10 457.48
  Q 671.05 460.75 673.29 463.44
  Q 684.52 476.96 695.69 490.58
  Q 698.20 493.64 695.51 497.24
  C 691.08 503.15 686.41 508.80 682.20 514.89
  Q 676.65 522.92 670.75 530.70
  Q 668.94 533.08 668.03 535.64
  A 1.42 1.41 -83.0 0 0 669.50 537.53
  C 681.94 536.32 694.46 536.79 706.94 536.70
  C 709.95 536.68 712.24 534.87 713.67 532.04
  Q 717.46 524.54 722.25 517.62
  C 723.80 515.37 725.63 514.90 728.18 515.06
  Q 728.71 515.09 728.99 515.54
  Q 733.79 523.11 737.82 531.15
  C 740.35 536.21 744.10 537.27 749.76 536.91
  Q 766.14 535.88 782.51 536.99
  Q 786.38 537.25 789.98 535.75
  A 1.52 1.51 58.0 0 0 790.53 533.35
  C 784.03 526.01 779.38 520.36 772.02 510.79
  Q 765.49 502.31 757.73 494.85
  Q 757.34 494.47 757.53 493.97
  Q 758.96 490.07 761.99 485.97
  Q 772.88 471.30 779.96 462.48
  Q 782.22 459.67 782.86 456.88
  A 1.01 1.00 -80.1 0 0 782.01 455.66
  C 769.20 453.95 754.93 454.97 741.85 454.71
  Q 741.35 454.70 741.13 455.14
  L 729.67 477.30
  Z
  M 430.04 495.50
  L 430.56 499.66
  Q 430.63 500.21 431.20 500.20
  Q 453.66 499.54 476.07 499.79
  C 479.74 499.83 481.94 500.44 485.81 499.12
  L 486.51 473.01
  A 0.72 0.72 0.0 0 0 485.83 472.27
  C 467.45 471.23 449.21 471.78 430.77 471.47
  Q 430.24 471.46 430.18 471.98
  Q 428.85 483.82 430.04 495.50
  Z"
/>
<path fill="#0b9940" d="
  M 233.04 362.25
  C 230.78 363.60 228.74 361.81 226.76 360.22
  Q 226.25 359.81 226.25 360.46
  L 226.25 360.89
  Q 226.25 361.47 226.62 361.91
  C 239.32 377.09 240.78 396.38 231.05 413.43
  C 229.71 415.76 227.08 418.72 225.94 422.26
  Q 225.78 422.74 225.42 423.07
  C 221.59 426.56 218.47 430.97 214.65 433.91
  C 206.69 440.03 199.00 442.19 190.68 445.84
  Q 188.22 446.92 185.15 447.30
  C 178.00 448.19 173.21 449.55 163.75 450.20
  C 162.02 450.32 160.49 451.22 158.63 451.33
  C 155.95 451.48 146.42 453.17 145.59 450.05
  Q 145.47 449.60 145.08 449.35
  C 139.29 445.63 133.09 448.39 126.67 444.07
  Q 124.16 442.38 117.84 442.17
  Q 117.32 442.16 116.95 441.79
  C 112.80 437.72 107.48 437.38 103.51 433.77
  C 94.71 425.75 87.81 419.18 82.66 409.00
  Q 82.49 408.66 82.86 408.71
  L 83.19 408.75
  Q 83.83 408.84 83.48 408.30
  C 80.92 404.28 81.42 398.86 77.54 395.50
  Q 75.13 369.58 93.25 351.46
  Q 94.09 351.57 94.83 352.23
  Q 95.23 352.58 95.62 352.22
  Q 101.47 346.71 108.33 342.62
  C 112.01 340.42 118.68 335.79 123.94 334.19
  Q 136.80 330.26 149.56 325.92
  C 181.13 322.64 214.95 335.19 233.04 362.25
  Z"
/>
<path fill="#147b4d" d="
  M 149.56 325.92
  Q 136.80 330.26 123.94 334.19
  C 118.68 335.79 112.01 340.42 108.33 342.62
  Q 101.47 346.71 95.62 352.22
  Q 95.23 352.58 94.83 352.23
  Q 94.09 351.57 93.25 351.46
  C 108.82 335.99 127.62 328.82 149.56 325.92
  Z"
/>
<path fill="#147b4d" d="
  M 233.04 362.25
  C 244.84 379.15 242.19 402.36 231.32 419.05
  Q 224.12 430.09 215.24 436.22
  C 201.24 445.89 184.90 451.17 167.28 452.85
  C 147.37 454.74 129.06 451.41 111.63 441.66
  C 96.00 432.91 77.74 414.80 77.54 395.50
  C 81.42 398.86 80.92 404.28 83.48 408.30
  Q 83.83 408.84 83.19 408.75
  L 82.86 408.71
  Q 82.49 408.66 82.66 409.00
  C 87.81 419.18 94.71 425.75 103.51 433.77
  C 107.48 437.38 112.80 437.72 116.95 441.79
  Q 117.32 442.16 117.84 442.17
  Q 124.16 442.38 126.67 444.07
  C 133.09 448.39 139.29 445.63 145.08 449.35
  Q 145.47 449.60 145.59 450.05
  C 146.42 453.17 155.95 451.48 158.63 451.33
  C 160.49 451.22 162.02 450.32 163.75 450.20
  C 173.21 449.55 178.00 448.19 185.15 447.30
  Q 188.22 446.92 190.68 445.84
  C 199.00 442.19 206.69 440.03 214.65 433.91
  C 218.47 430.97 221.59 426.56 225.42 423.07
  Q 225.78 422.74 225.94 422.26
  C 227.08 418.72 229.71 415.76 231.05 413.43
  C 240.78 396.38 239.32 377.09 226.62 361.91
  Q 226.25 361.47 226.25 360.89
  L 226.25 360.46
  Q 226.25 359.81 226.76 360.22
  C 228.74 361.81 230.78 363.60 233.04 362.25
  Z"
/>
<path fill="#0b9940" d="
  M 173.75 540.21
  Q 173.09 539.95 172.08 539.99
  Q 171.36 540.02 171.76 539.43
  Q 172.60 538.17 172.01 536.92
  Q 171.76 536.39 171.18 536.47
  Q 168.11 536.92 163.68 536.61
  Q 158.47 536.25 140.00 536.27
  C 133.36 536.27 126.22 537.10 119.31 537.41
  C 117.59 537.49 115.96 538.17 116.75 540.21
  L 112.50 540.21
  L 110.84 536.30
  Q 110.71 536.00 110.51 536.26
  L 109.50 537.59
  Q 109.23 537.96 108.77 537.90
  C 106.19 537.59 103.75 536.60 101.25 536.53
  C 91.52 536.25 81.18 535.44 71.52 536.30
  C 66.50 536.75 60.89 536.53 56.51 536.97
  Q 48.59 537.77 40.62 538.55
  Q 40.09 538.60 39.71 538.23
  C 37.20 535.77 38.63 532.39 40.72 530.21
  Q 54.41 515.95 69.76 503.51
  C 72.72 501.11 75.26 498.34 77.93 495.70
  Q 78.31 495.32 78.00 494.90
  Q 77.77 494.58 77.50 494.46
  C 83.32 488.66 89.92 481.66 97.39 478.11
  A 0.49 0.48 70.5 0 1 98.07 478.44
  Q 100.15 487.42 101.97 496.45
  C 104.28 507.87 105.92 522.01 108.43 534.75
  A 0.94 0.94 0.0 0 0 109.82 535.38
  C 116.98 531.25 123.09 523.75 129.00 517.96
  C 129.72 518.44 130.46 518.39 131.17 517.84
  C 141.80 509.59 150.71 497.80 162.31 488.82
  Q 165.02 486.73 164.90 482.88
  Q 167.17 481.07 169.03 481.07
  C 172.96 481.09 171.16 485.78 171.29 488.07
  Q 171.89 498.06 172.68 501.81
  Q 175.23 513.97 175.18 518.32
  C 175.14 522.66 175.19 535.56 179.54 536.93
  Q 180.18 537.14 180.42 536.51
  Q 180.91 535.27 180.75 533.50
  Q 178.56 508.54 176.04 483.61
  C 175.40 477.28 173.65 470.86 172.49 464.42
  A 0.58 0.57 68.2 0 0 171.61 464.04
  C 164.42 468.68 158.22 476.26 152.81 482.82
  Q 151.01 485.01 144.07 491.82
  Q 131.20 504.45 118.42 517.17
  Q 116.61 518.97 114.36 520.14
  Q 113.85 520.41 113.49 519.96
  Q 112.14 518.31 111.36 515.67
  C 107.10 501.16 104.79 481.60 103.75 466.82
  C 103.59 464.56 102.86 463.74 100.62 464.73
  Q 97.91 465.94 95.50 467.46
  Q 95.61 466.88 95.30 466.36
  A 0.63 0.63 0.0 0 0 94.35 466.20
  C 89.06 470.66 83.68 476.20 79.13 480.17
  Q 64.64 492.82 49.86 505.13
  C 42.18 511.52 32.94 520.19 24.02 527.24
  Q 21.79 529.00 21.79 531.75
  C 18.82 534.80 13.21 541.05 10.45 536.10
  Q 10.22 535.69 10.44 535.28
  Q 11.37 533.50 12.13 531.74
  C 30.72 488.58 49.47 445.42 66.79 401.73
  Q 67.88 398.98 70.07 397.38
  A 0.63 0.63 0.0 0 1 71.05 397.73
  C 75.40 414.80 85.15 428.94 99.00 439.79
  C 113.94 451.50 132.17 455.37 150.43 458.12
  C 167.48 460.69 184.73 456.76 200.50 450.27
  C 208.24 447.08 216.21 441.19 224.29 437.00
  A 0.40 0.40 0.0 0 1 224.87 437.42
  Q 224.49 439.79 223.62 442.16
  C 213.95 468.71 202.70 494.56 193.11 521.11
  C 189.09 532.22 185.50 538.61 173.75 540.21
  Z"
/>
<path fill="#0b9940" d="
  M 349.00 421.29
  L 349.00 422.72
  Q 349.00 423.19 349.43 423.37
  C 351.81 424.34 354.06 423.67 356.16 423.93
  Q 361.67 424.59 367.25 424.51
  Q 367.96 424.49 367.66 423.85
  Q 367.40 423.28 367.86 422.78
  Q 368.28 422.31 367.82 421.89
  Q 367.48 421.58 367.00 421.54
  C 379.56 421.34 392.55 420.25 405.04 421.56
  Q 405.52 421.61 405.61 422.09
  C 409.46 443.21 414.26 464.10 418.08 485.22
  Q 419.43 492.72 421.81 501.08
  Q 426.93 519.09 430.50 537.49
  Q 430.61 538.08 430.05 538.31
  Q 428.00 539.13 425.24 539.18
  Q 405.48 539.57 385.69 539.61
  Q 385.18 539.62 385.09 539.11
  Q 382.37 522.27 378.00 505.86
  C 375.95 498.12 374.99 490.61 373.15 483.02
  Q 370.52 472.18 369.37 461.02
  A 0.52 0.52 0.0 0 0 368.43 460.76
  Q 365.09 465.21 363.96 470.75
  Q 363.00 470.25 362.07 470.55
  Q 361.63 470.69 361.47 471.12
  Q 358.80 478.50 357.61 486.25
  Q 357.54 486.73 357.23 487.10
  L 356.16 488.41
  Q 355.87 488.76 355.84 489.21
  C 355.60 493.93 353.50 498.32 352.66 502.34
  C 351.25 509.05 349.49 517.78 346.50 524.68
  C 344.49 529.30 345.17 534.02 345.93 538.99
  Q 327.41 539.84 322.75 539.76
  C 318.31 539.68 313.52 539.70 310.51 537.46
  Q 310.11 537.17 309.99 536.69
  C 305.20 517.85 300.03 499.19 294.28 475.74
  Q 293.43 472.25 289.19 459.51
  Q 289.11 459.25 289.04 459.51
  L 285.46 472.75
  Q 284.68 473.75 284.56 475.00
  Q 284.52 475.42 284.17 475.64
  L 281.87 477.11
  Q 281.47 477.37 281.41 477.83
  C 280.16 487.14 278.44 495.97 276.68 505.59
  C 275.13 514.06 272.46 522.77 270.15 531.10
  Q 270.02 531.58 270.11 532.06
  L 271.04 536.75
  Q 270.65 539.19 267.75 539.21
  Q 249.62 539.32 230.83 539.88
  A 0.60 0.59 89.1 0 1 230.22 539.28
  C 230.26 536.54 231.56 533.71 232.00 531.58
  Q 242.01 483.49 252.87 435.58
  Q 253.51 432.73 255.01 423.78
  C 255.30 422.02 256.39 421.32 258.06 421.30
  Q 283.78 421.09 309.50 420.96
  Q 311.04 420.95 312.09 421.10
  Q 312.63 421.18 312.77 421.71
  L 328.70 482.21
  A 0.46 0.45 -41.3 0 0 329.56 482.26
  C 333.77 471.92 336.38 459.41 338.97 450.51
  Q 343.06 436.44 346.11 422.10
  Q 346.22 421.59 346.70 421.41
  Q 347.80 421.00 349.00 421.29
  Z"
/>
<path fill="#147b4d" d="
  M 349.00 421.29
  L 367.00 421.54
  Q 367.48 421.58 367.82 421.89
  Q 368.28 422.31 367.86 422.78
  Q 367.40 423.28 367.66 423.85
  Q 367.96 424.49 367.25 424.51
  Q 361.67 424.59 356.16 423.93
  C 354.06 423.67 351.81 424.34 349.43 423.37
  Q 349.00 423.19 349.00 422.72
  L 349.00 421.29
  Z"
/>
<path fill="#0b9940" d="
  M 573.46 448.00
  Q 572.85 447.99 573.02 447.31
  Q 573.14 446.82 572.78 447.17
  L 572.41 447.55
  Q 572.19 447.76 571.90 447.77
  L 543.65 448.54
  Q 543.03 448.56 542.65 449.04
  L 541.36 450.65
  Q 541.08 451.00 541.48 451.20
  L 542.00 451.46
  L 541.71 455.25
  Q 541.26 454.94 540.72 455.03
  Q 540.20 455.12 540.21 455.65
  C 540.48 471.31 540.88 487.01 539.95 502.66
  C 539.62 508.14 540.22 513.81 540.41 519.44
  C 540.54 523.35 539.20 527.39 540.76 531.99
  Q 540.92 532.47 541.42 532.38
  L 542.21 532.25
  L 542.25 536.57
  Q 542.25 537.15 541.73 537.40
  Q 540.19 538.14 537.99 538.20
  Q 518.15 538.73 498.73 538.44
  A 0.86 0.85 0.7 0 1 497.89 537.59
  Q 497.85 526.96 497.80 517.02
  C 497.76 507.52 498.39 495.64 498.25 484.94
  C 498.18 479.18 497.33 453.46 499.24 451.77
  A 0.37 0.37 0.0 0 0 498.99 451.13
  L 471.27 451.53
  A 0.34 0.33 88.3 0 1 470.93 451.20
  L 470.71 422.91
  Q 470.71 422.54 471.09 422.53
  L 573.61 422.18
  Q 574.30 422.18 574.28 422.87
  L 573.46 448.00
  Z"
/>
<path fill="#147b4d" d="
  M 573.46 448.00
  Q 573.87 449.27 573.22 450.16
  Q 572.90 450.61 572.34 450.62
  L 542.00 451.46
  L 541.48 451.20
  Q 541.08 451.00 541.36 450.65
  L 542.65 449.04
  Q 543.03 448.56 543.65 448.54
  L 571.90 447.77
  Q 572.19 447.76 572.41 447.55
  L 572.78 447.17
  Q 573.14 446.82 573.02 447.31
  Q 572.85 447.99 573.46 448.00
  Z"
/>
<path fill="#0b9940" d="
  M 676.46 493.00
  L 675.43 493.34
  Q 674.96 493.50 674.47 493.40
  C 669.43 492.36 663.26 494.42 657.97 494.48
  Q 629.07 494.81 600.17 493.13
  Q 599.66 493.10 599.45 493.56
  Q 598.44 495.83 600.25 497.29
  C 598.62 506.96 607.61 514.29 616.76 512.00
  C 621.02 510.94 621.29 507.38 624.74 506.04
  Q 627.73 504.89 630.75 504.95
  Q 654.53 505.43 673.86 505.19
  Q 674.36 505.18 674.34 505.68
  Q 674.24 509.17 672.29 511.88
  Q 666.69 520.01 659.80 524.57
  Q 653.90 528.47 644.96 531.42
  Q 644.50 531.57 644.02 531.47
  Q 635.85 529.80 628.12 532.10
  C 614.25 536.24 600.88 534.01 586.93 531.13
  Q 586.39 531.02 586.07 531.45
  L 584.00 534.21
  C 565.35 528.95 550.79 519.07 548.63 498.77
  Q 547.62 489.34 550.00 479.96
  Q 550.87 479.83 551.58 480.32
  Q 551.96 480.58 552.35 480.35
  Q 553.15 479.89 553.23 478.92
  Q 553.28 478.44 553.56 478.06
  C 555.52 475.38 556.59 472.83 559.43 470.75
  Q 561.66 469.12 564.67 466.19
  C 570.29 460.70 582.13 457.98 588.70 455.70
  Q 589.20 455.52 589.21 454.99
  L 589.25 453.54
  C 606.49 449.47 621.70 450.28 639.23 453.67
  Q 666.69 458.97 675.24 485.47
  Q 676.30 488.78 676.46 493.00
  Z
  M 603.75 472.04
  C 599.42 474.49 600.28 478.58 600.19 482.86
  Q 600.18 483.33 600.64 483.30
  Q 610.59 482.67 620.54 482.13
  C 627.20 481.77 622.28 473.55 619.71 471.50
  L 620.04 470.49
  Q 620.20 470.03 619.88 469.66
  C 616.38 465.55 605.24 466.29 601.98 470.60
  Q 601.63 471.05 601.96 471.52
  Q 602.50 472.30 603.75 472.04
  Z"
/>
<path fill="#147b4d" d="
  M 589.25 453.54
  L 589.21 454.99
  Q 589.20 455.52 588.70 455.70
  C 582.13 457.98 570.29 460.70 564.67 466.19
  Q 561.66 469.12 559.43 470.75
  C 556.59 472.83 555.52 475.38 553.56 478.06
  Q 553.28 478.44 553.23 478.92
  Q 553.15 479.89 552.35 480.35
  Q 551.96 480.58 551.58 480.32
  Q 550.87 479.83 550.00 479.96
  C 557.50 463.74 572.68 456.91 589.25 453.54
  Z"
/>
<path fill="#0b9940" d="
  M 729.67 477.30
  L 741.13 455.14
  Q 741.35 454.70 741.85 454.71
  C 754.93 454.97 769.20 453.95 782.01 455.66
  A 1.01 1.00 -80.1 0 1 782.86 456.88
  Q 782.22 459.67 779.96 462.48
  Q 772.88 471.30 761.99 485.97
  Q 758.96 490.07 757.53 493.97
  Q 757.34 494.47 757.73 494.85
  Q 765.49 502.31 772.02 510.79
  C 779.38 520.36 784.03 526.01 790.53 533.35
  A 1.52 1.51 58.0 0 1 789.98 535.75
  Q 786.38 537.25 782.51 536.99
  Q 766.14 535.88 749.76 536.91
  C 744.10 537.27 740.35 536.21 737.82 531.15
  Q 733.79 523.11 728.99 515.54
  Q 728.71 515.09 728.18 515.06
  C 725.63 514.90 723.80 515.37 722.25 517.62
  Q 717.46 524.54 713.67 532.04
  C 712.24 534.87 709.95 536.68 706.94 536.70
  C 694.46 536.79 681.94 536.32 669.50 537.53
  A 1.42 1.41 -83.0 0 1 668.03 535.64
  Q 668.94 533.08 670.75 530.70
  Q 676.65 522.92 682.20 514.89
  C 686.41 508.80 691.08 503.15 695.51 497.24
  Q 698.20 493.64 695.69 490.58
  Q 684.52 476.96 673.29 463.44
  Q 671.05 460.75 669.10 457.48
  A 1.55 1.54 75.3 0 1 670.46 455.15
  Q 686.52 455.52 703.00 454.94
  C 710.10 454.69 715.09 454.96 718.60 461.59
  Q 722.87 469.67 728.16 477.40
  A 0.88 0.88 0.0 0 0 729.67 477.30
  Z"
/>
<path fill="#147b4d" d="
  M 541.71 455.25
  C 542.08 480.67 541.11 506.77 542.21 532.25
  L 541.42 532.38
  Q 540.92 532.47 540.76 531.99
  C 539.20 527.39 540.54 523.35 540.41 519.44
  C 540.22 513.81 539.62 508.14 539.95 502.66
  C 540.88 487.01 540.48 471.31 540.21 455.65
  Q 540.20 455.12 540.72 455.03
  Q 541.26 454.94 541.71 455.25
  Z"
/>
<path fill="#147b4d" d="
  M 95.50 467.46
  C 86.87 474.19 78.12 482.99 71.00 489.01
  C 54.40 503.04 38.71 516.04 21.79 531.75
  Q 21.79 529.00 24.02 527.24
  C 32.94 520.19 42.18 511.52 49.86 505.13
  Q 64.64 492.82 79.13 480.17
  C 83.68 476.20 89.06 470.66 94.35 466.20
  A 0.63 0.63 0.0 0 1 95.30 466.36
  Q 95.61 466.88 95.50 467.46
  Z"
/>
<path fill="#147b4d" d="
  M 619.71 471.50
  Q 611.65 468.91 603.75 472.04
  Q 602.50 472.30 601.96 471.52
  Q 601.63 471.05 601.98 470.60
  C 605.24 466.29 616.38 465.55 619.88 469.66
  Q 620.20 470.03 620.04 470.49
  L 619.71 471.50
  Z"
/>
<path fill="#ffffff" d="
  M 619.71 471.50
  C 622.28 473.55 627.20 481.77 620.54 482.13
  Q 610.59 482.67 600.64 483.30
  Q 600.18 483.33 600.19 482.86
  C 600.28 478.58 599.42 474.49 603.75 472.04
  Q 611.65 468.91 619.71 471.50
  Z"
/>
<path fill="#147b4d" d="
  M 363.96 470.75
  L 345.93 538.99
  C 345.17 534.02 344.49 529.30 346.50 524.68
  C 349.49 517.78 351.25 509.05 352.66 502.34
  C 353.50 498.32 355.60 493.93 355.84 489.21
  Q 355.87 488.76 356.16 488.41
  L 357.23 487.10
  Q 357.54 486.73 357.61 486.25
  Q 358.80 478.50 361.47 471.12
  Q 361.63 470.69 362.07 470.55
  Q 363.00 470.25 363.96 470.75
  Z"
/>
<path fill="#0b9940" d="
  M 485.81 499.12
  Q 471.95 496.87 460.25 496.51
  Q 452.88 496.28 443.24 496.93
  C 441.18 497.07 438.87 496.53 436.26 496.76
  Q 433.57 496.99 430.04 495.50
  Q 428.85 483.82 430.18 471.98
  Q 430.24 471.46 430.77 471.47
  C 449.21 471.78 467.45 471.23 485.83 472.27
  A 0.72 0.72 0.0 0 1 486.51 473.01
  L 485.81 499.12
  Z"
/>
<path fill="#147b4d" d="
  M 285.46 472.75
  Q 280.13 500.89 273.50 528.75
  Q 272.88 531.37 271.04 536.75
  L 270.11 532.06
  Q 270.02 531.58 270.15 531.10
  C 272.46 522.77 275.13 514.06 276.68 505.59
  C 278.44 495.97 280.16 487.14 281.41 477.83
  Q 281.47 477.37 281.87 477.11
  L 284.17 475.64
  Q 284.52 475.42 284.56 475.00
  Q 284.68 473.75 285.46 472.75
  Z"
/>
<path fill="#147b4d" d="
  M 164.90 482.88
  Q 165.02 486.73 162.31 488.82
  C 150.71 497.80 141.80 509.59 131.17 517.84
  C 130.46 518.39 129.72 518.44 129.00 517.96
  Q 145.25 501.85 161.06 485.31
  Q 162.36 483.95 164.90 482.88
  Z"
/>
<path fill="#147b4d" d="
  M 676.46 493.00
  C 677.40 496.59 673.01 497.34 670.45 497.28
  C 647.49 496.67 623.09 498.08 602.75 496.86
  Q 601.92 496.81 600.25 497.29
  Q 598.44 495.83 599.45 493.56
  Q 599.66 493.10 600.17 493.13
  Q 629.07 494.81 657.97 494.48
  C 663.26 494.42 669.43 492.36 674.47 493.40
  Q 674.96 493.50 675.43 493.34
  L 676.46 493.00
  Z"
/>
<path fill="#147b4d" d="
  M 77.50 494.46
  Q 77.77 494.58 78.00 494.90
  Q 78.31 495.32 77.93 495.70
  C 75.26 498.34 72.72 501.11 69.76 503.51
  Q 54.41 515.95 40.72 530.21
  C 38.63 532.39 37.20 535.77 39.71 538.23
  Q 40.09 538.60 40.62 538.55
  Q 48.59 537.77 56.51 536.97
  C 60.89 536.53 66.50 536.75 71.52 536.30
  C 81.18 535.44 91.52 536.25 101.25 536.53
  C 103.75 536.60 106.19 537.59 108.77 537.90
  Q 109.23 537.96 109.50 537.59
  L 110.51 536.26
  Q 110.71 536.00 110.84 536.30
  L 112.50 540.21
  C 85.13 540.30 57.55 539.13 30.24 540.94
  Q 29.20 541.01 28.57 540.17
  C 27.01 538.04 28.15 537.54 29.53 536.35
  Q 53.64 515.54 77.50 494.46
  Z"
/>
<path fill="#147b4d" d="
  M 430.04 495.50
  Q 433.57 496.99 436.26 496.76
  C 438.87 496.53 441.18 497.07 443.24 496.93
  Q 452.88 496.28 460.25 496.51
  Q 471.95 496.87 485.81 499.12
  C 481.94 500.44 479.74 499.83 476.07 499.79
  Q 453.66 499.54 431.20 500.20
  Q 430.63 500.21 430.56 499.66
  L 430.04 495.50
  Z"
/>
<path fill="#147b4d" d="
  M 672.29 511.88
  Q 669.81 518.47 665.70 521.72
  C 649.85 534.25 632.64 537.25 612.94 537.61
  Q 598.28 537.88 584.00 534.21
  L 586.07 531.45
  Q 586.39 531.02 586.93 531.13
  C 600.88 534.01 614.25 536.24 628.12 532.10
  Q 635.85 529.80 644.02 531.47
  Q 644.50 531.57 644.96 531.42
  Q 653.90 528.47 659.80 524.57
  Q 666.69 520.01 672.29 511.88
  Z"
/>
<path fill="#147b4d" d="
  M 173.75 540.21
  C 169.02 540.76 163.32 540.31 159.78 540.30
  Q 138.27 540.23 116.75 540.21
  C 115.96 538.17 117.59 537.49 119.31 537.41
  C 126.22 537.10 133.36 536.27 140.00 536.27
  Q 158.47 536.25 163.68 536.61
  Q 168.11 536.92 171.18 536.47
  Q 171.76 536.39 172.01 536.92
  Q 172.60 538.17 171.76 539.43
  Q 171.36 540.02 172.08 539.99
  Q 173.09 539.95 173.75 540.21
  Z"
/>
</svg>
