<svg xmlns="http://www.w3.org/2000/svg" viewBox="0 0 308 150"><g fill="none" stroke-width="2"><path stroke="#818181" d="M5.19 150c2.81-.24 10.21-3.79 6-7.44q-.39-.34-.9-.34c-1.38 0-6.36 1.27-7.09.54q-.46-.45 0-.89 3.16-3.15 7.49-1.75.6.19.57-.44l-.04-.79q-.03-.58-.6-.66-5.04-.79-8.4 2.96c-1.08 1.2-1.08 2.83.5 3.49 1.4.58 5.13-.66 6.93-.72a1.08 1.07 18 0 1 .89 1.73q-3.27 4.17-8.15 1.72-.37-.18-.61.16l-.51.69q-.46.64.27.94l1.9.8" vector-effect="non-scaling-stroke"/><path stroke="#82aacb" d="M307.91 4.18a4.09 4.09 0 0 0-4.09-4.09 4.09 4.09 0 0 0-4.09 4.09 4.09 4.09 0 0 0 4.09 4.09 4.09 4.09 0 0 0 4.09-4.09" vector-effect="non-scaling-stroke"/><path stroke="#818181" d="M287.04 13.15q-5.22 9.48-10.53 18.9c-1.52 2.69-1.78 4.76-1.44 7.68a.37.37 0 0 0 .46.32l24.65-6.16q.56-.14.56-.71l.01-5.88q.01-.67-.64-.51l-12.96 3.28q-.53.14-.28-.36 5.12-9.81 10.34-19.57c1.07-2 .9-4.01.75-6.14q-.05-.65-.68-.49l-21.65 5.32q-.63.16-.63.81v5.41q0 .63.61.48l11.07-2.84q.71-.19.36.46M251.62 28.11a.33.33 0 0 1 .62-.17l9.33 15.35a.33.33 0 0 0 .37.15l7.5-1.85a.33.33 0 0 0 .25-.32l.37-30.53a.33.33 0 0 0-.4-.32l-7.41 1.74a.33.33 0 0 0-.25.32v16.87a.33.33 0 0 1-.61.17l-9.41-14.5a.33.33 0 0 0-.36-.14l-7.58 1.84a.33.33 0 0 0-.25.32l-.46 30.67a.33.33 0 0 0 .41.32l7.23-1.91a.33.33 0 0 0 .25-.31l.4-17.7M233.23 19.48a.36.36 0 0 0-.28.35l-.61 30.47a.36.36 0 0 0 .44.36l7.39-1.78a.36.36 0 0 0 .27-.35l.37-30.45a.36.36 0 0 0-.44-.36l-7.14 1.76M214.06 42.66a.32.32 0 0 1 .24-.3l13.39-3.46a.32.32 0 0 0 .24-.31l-.04-5.08a.32.32 0 0 0-.39-.31l-13.11 3.14a.32.32 0 0 1-.39-.32V30.6a.32.32 0 0 1 .24-.31l14.35-3.7a.32.32 0 0 0 .24-.32l-.17-5.24a.32.32 0 0 0-.4-.3l-21.98 5.54a.32.32 0 0 0-.24.31l-.13 30.44a.32.32 0 0 0 .4.31l22.8-5.6a.32.32 0 0 0 .24-.32l-.15-5.76a.32.32 0 0 0-.4-.3l-14.55 3.67a.32.32 0 0 1-.4-.33l.21-6.03M198.8 33.97c-4.83-6.65-15.77-1.95-22.15-.24q-.54.14-.55.7l-.45 30.19q-.01.49.47.37l7.12-1.89q.51-.13.51-.67v-9.61q0-.61.58-.79l2.72-.87q.73-.23 1.14.43l5.19 8.49q.27.45.79.33l6.91-1.7q.64-.16.31-.73l-5.16-8.75a.63.62 53.3 0 1 .11-.77q7.72-7.25 2.46-14.49M155.19 44.08c-4.99-5.76-14.32-1.5-21.74.42q-.42.11-.42.54l-.43 29.93q-.01.8.78.62l6.4-1.55q.73-.17.75-.92l.3-9.69q.02-.51.5-.65l2.87-.86q.62-.18.96.37l5.26 8.58q.31.5.87.35l6.72-1.82q.65-.17.31-.75l-4.99-8.43a.85.84 52 0 1 .12-1.02q7.85-8.06 1.74-15.12" vector-effect="non-scaling-stroke"/><path stroke="#82aacb" d="M.75 133.04a.47.47 0 0 0 .58.45l297.31-74.16a.47.47 0 0 0 .36-.46V45.42a.47.47 0 0 0-.58-.45L1.11 119.2a.47.47 0 0 0-.36.46v13.38" vector-effect="non-scaling-stroke"/><path stroke="#818181" d="M127.17 58.41c-3.66-13.5-22.85-9.32-28.01.51-3.98 7.58-2.51 21.57 8.1 23.04 14.19 1.98 23.55-10.11 19.91-23.55M80.28 64.92a.51.51 0 0 1 .64.51l-.47 23.19a.51.51 0 0 0 .63.51l6.94-1.65a.51.51 0 0 0 .39-.48l.53-23.99a.51.51 0 0 1 .4-.49l7.63-1.73a.51.51 0 0 0 .4-.46l.44-5.75a.51.51 0 0 0-.63-.53l-24.79 6.06a.51.51 0 0 0-.39.5v5.72a.51.51 0 0 0 .63.49l7.65-1.9M71.68 83.29l-5.63-1.66q-.57-.16-.8.39c-.74 1.81-1.58 3.77-2.97 5.03-3.98 3.57-8.75 1.48-10.08-3.38-1.37-5 .39-13.01 6.35-14.29q3.89-.84 5.96 3.43.25.52.73.19l4.57-3.2a.86.85 56.3 0 0 .23-1.17c-6.01-9.28-17.81-5.62-23.11 1.91-6.39 9.09-3.33 26.38 10.82 24.67q10.86-1.31 14.1-11.59a.26.26 0 0 0-.17-.33M289.13 70.03q3.2-3.51 7.72-1.9.75.26.57-.52c-1.01-4.37-8.47.48-9.8 2.53q-.26.42-.16.9c.65 3.09 5.95.94 8.39.92a1.12 1.12 0 0 1 .88 1.82c-3.22 4.02-8.6 1.16-9.36 2.27a1.07 1.06-68.1 0 0 .7 1.65q6.44 1.04 9.56-3.08c1.08-1.43.76-3.77-.95-4.42-1.72-.66-4.88.98-7.21.73q-1.06-.11-.34-.9M33.85 69.23a.34.34 0 0 0-.26.33l-.5 30.62a.34.34 0 0 0 .42.33l7.36-1.81a.34.34 0 0 0 .26-.32l.35-30.51a.34.34 0 0 0-.41-.33l-7.22 1.69M15.81 92.88a.31.31 0 0 1-.58.03L8.31 75.96a.31.31 0 0 0-.36-.19L.47 77.55a.31.31 0 0 0-.21.43l12.29 27.48a.31.31 0 0 0 .36.18l7.51-1.87a.31.31 0 0 0 .22-.21l10.01-32.99a.31.31 0 0 0-.37-.39l-8.26 2.07a.31.31 0 0 0-.22.21l-5.99 20.42M272.25 73.75V82q0 .5.5.5h.6q.6 0 .6-.59l.07-8.5q.01-.56.53-.76c1.12-.42 4.64-.44 4.14-2.13a.45.44 74.7 0 0-.54-.31L267.68 73q-.62.16-.42.77c.34 1.07 3.64-.21 4.45-.43q.54-.14.54.41M252.8 86.18c-7.37.62-2.73-12.02 5.04-7.72a.52.52 0 0 0 .72-.67c-.63-1.35-1.8-1.9-3.31-1.78-8.93.69-10.66 13.74-1.51 11.44.81-.2 6.41-3.29 4.44-4.53q-.47-.3-.74.19-1.55 2.81-4.64 3.07M230.44 90.86a1.03 1.02-84.4 0 1-.78-.96l-.23-6.85q-.02-.49-.5-.55-.17-.02-.36 0-.53.03-.53.56l-.04 7.4a2.15 2.14-86.5 0 0 1.88 2.13c9.08 1.13 8.04-6.02 8.12-12a.47.47 0 0 0-.72-.4c-1.28.84-.78 6.4-.79 8q0 .54-.35.94-2.23 2.54-5.7 1.73M217.31 87.44c-2.3-1.86-6.29-.34-8.76.53q-.55.19-.55.78V98q0 .6.6.54 4.27-.38 7.14-2.3c2.79-1.85 4.86-6.16 1.57-8.8M197.54 93.095a6.73 5.14-39 0 0-8.465.24 6.73 5.14-39 0 0-1.995 8.23 6.73 5.14-39 0 0 8.465-.24 6.73 5.14-39 0 0 1.995-8.23M168.58 103.24l3.28-.57q.58-.1.93.38l2.64 3.65q.32.45.85.29l.55-.18q.87-.27.32-.99l-2.69-3.53q-.32-.42.16-.63 2.75-1.22 2.3-4.12a1.41 1.4-10.4 0 0-1.69-1.16l-8.15 1.8q-.58.13-.58.73v9.53q0 .57.57.56h.44q.49 0 .49-.49v-4.59q0-.59.58-.68M149.27 108.73c3.08-.06 8.35-1.35 7.97-4.99-.43-4.05-7.19-1.31-9.56-.62a.95.95 0 0 0-.68.91v8.82q0 .55.35.98.63.77 1.18-.23.22-.41.22-.87v-3.47q0-.52.52-.53M121.87 115.67c1.1 3.97-2.92 4.7-5.96 4.2q-.47-.07-.78-.44c-3.92-4.62 2.88-8.89 7.66-7.38a.42.42 0 0 0 .52-.56c-1.57-3.81-7.8-.1-9.28 1.81-2.86 3.7-1.7 9.45 4.21 8.18q6.42-1.37 5.54-7.37-.08-.55-.64-.51c-1.16.09-6.98.96-6.33 2.49q.18.42.62.31l3.95-1.02q.39-.1.49.29M93.66 119.26a.31.31 0 0 1 .53-.22l6.55 6.45a1.2 1.19-65.1 0 0 2.03-.75c.07-.81 1.3-11.74-1.21-10.03q-.39.26-.38.73l.26 7.6a.31.31 0 0 1-.53.23l-5.67-5.65q-.19-.19-.4-.34-1.25-.92-2.34-.3-.49.27-.49.84l-.01 9.61q0 .57.56.57h.57q.61 0 .6-.61l-.07-8.13M81.042 120.337a.3.3 0 0 0-.301-.299l-.96.004a.3.3 0 0 0-.299.3l.036 10.34a.3.3 0 0 0 .301.3l.96-.004a.3.3 0 0 0 .299-.3l-.036-10.34M62.94 133.28l.03-8.19q0-.6-.61-.59-.25.01-.5 0-.6-.01-.6.59l-.01 9.85q0 .7.68.54l7.38-1.67q.47-.11.48-.59c.05-1.85-6.09.43-6.31.48q-.55.15-.54-.42M49.62 136.96l.74 1.04q.33.46.89.34c.97-.2.87-.76.43-1.48q-2.42-3.89-4.35-7.47a1.34 1.34 0 0 0-2.42.11l-4.76 11.23a.57.57 0 0 0 1.02.5l1.54-2.75q.23-.4.68-.51l5.34-1.33q.56-.14.89.32M23.75 143.3v-2.89q0-.64.62-.79l5.37-1.37q.72-.18.32-.8c-.67-1.07-4.79.53-5.75.69q-.58.1-.57-.48l.03-1.46q.01-.67.67-.82l6.64-1.53q.43-.1.42-.54v-.33q.01-.59-.56-.45l-8.12 1.96q-.57.14-.57.73v9.75q0 .58.57.47c1.31-.27 8.61-1.65 8.63-3.02q0-.53-.51-.4l-6.64 1.7q-.55.14-.55-.42" vector-effect="non-scaling-stroke"/><path stroke="#82aacb" d="M306.95 5.34c2.62-4.3-6.2-6.98-6.37-1.57-.03.9.44 1.61.43 2.66q0 .48.46.64c1.22.42 5.23.77 5.31-1.17q.01-.3.17-.56" vector-effect="non-scaling-stroke"/><path stroke="#82aacb" d="M302.97 5.37q.65-1.56-.01-3.03-.58-1.26-.69.12-.12 1.37.05 2.82.15 1.27.65.09" vector-effect="non-scaling-stroke"/><path stroke="#82aacb" d="m305.63 5.8.54-3.56a.15.15 0 0 0-.13-.17l-.09-.01a1.86 1.52-81.4 0 0-1.78 1.61l-.02.18a1.86 1.52-81.4 0 0 1.22 2.06l.09.02a.15.15 0 0 0 .17-.13" vector-effect="non-scaling-stroke"/><path stroke="#818181" d="m184.63 45 8.84-2.48a.23.23 0 0 0 .16-.29l-.5-1.75a3.99 3.04 74.3 0 0-4-3.02l-3.43.96a3.99 3.04 74.3 0 0-1.85 4.67l.49 1.75a.23.23 0 0 0 .29.16M148 48.34q-.51-.26-1.07-.14l-5.52 1.21q-.46.1-.46.58l-.02 5.32q0 .51.5.42 5.5-1.02 6.91-1.85c2.52-1.48 2.27-4.21-.34-5.54M110.362 75.508a9.7 7.04 103.1 0 0 9.055-7.852 9.7 7.04 103.1 0 0-4.659-11.044 9.7 7.04 103.1 0 0-9.055 7.852 9.7 7.04 103.1 0 0 4.659 11.044M213.51 88.12q-1.53.16-3.26.92a1.05 1.04 77.6 0 0-.62.97l.11 6.6q.01.38.38.33 3.01-.41 5.26-2.12c2.71-2.05 2.85-7.19-1.87-6.7M196.168 94.034a5.06 3.71-40.5 0 0-6.257.465 5.06 3.71-40.5 0 0-1.439 6.107 5.06 3.71-40.5 0 0 6.257-.465 5.06 3.71-40.5 0 0 1.439-6.107M175.543 98.616a1.01 1.01 0 0 0-1.235-.716l-5.702 1.517a1.01 1.01 0 0 0-.716 1.236l.067.25a1.01 1.01 0 0 0 1.235.717l5.702-1.517a1.01 1.01 0 0 0 .716-1.236l-.067-.25M149.34 107.74l6.45-2.02a.29.29 0 0 0 .19-.36l-.27-.87a2.2 1.75 72.6 0 0-2.33-1.58l-3.66 1.15a2.2 1.75 72.6 0 0-1.01 2.62l.27.87a.29.29 0 0 0 .36.19M46.47 131.19a.48.48 0 0 0-.86.05l-1.86 4.36a.48.48 0 0 0 .56.65l3.71-.99a.48.48 0 0 0 .3-.7l-1.85-3.37" vector-effect="non-scaling-stroke"/></g><path fill="#fff" d="M0 0h308v150H5.19c2.81-.24 10.21-3.79 6-7.44q-.39-.34-.9-.34c-1.38 0-6.36 1.27-7.09.54q-.46-.45 0-.89 3.16-3.15 7.49-1.75.6.19.57-.44l-.04-.79q-.03-.58-.6-.66-5.04-.79-8.4 2.96c-1.08 1.2-1.08 2.83.5 3.49 1.4.58 5.13-.66 6.93-.72a1.08 1.07 18 0 1 .89 1.73q-3.27 4.17-8.15 1.72-.37-.18-.61.16l-.51.69q-.46.64.27.94l1.9.8H0V0Zm307.91 4.18a4.09 4.09 0 0 0-4.09-4.09 4.09 4.09 0 0 0-4.09 4.09 4.09 4.09 0 0 0 4.09 4.09 4.09 4.09 0 0 0 4.09-4.09Zm-20.87 8.97q-5.22 9.48-10.53 18.9c-1.52 2.69-1.78 4.76-1.44 7.68a.37.37 0 0 0 .46.32l24.65-6.16q.56-.14.56-.71l.01-5.88q.01-.67-.64-.51l-12.96 3.28q-.53.14-.28-.36 5.12-9.81 10.34-19.57c1.07-2 .9-4.01.75-6.14q-.05-.65-.68-.49l-21.65 5.32q-.63.16-.63.81v5.41q0 .63.61.48l11.07-2.84q.71-.19.36.46Zm-35.42 14.96a.33.33 0 0 1 .62-.17l9.33 15.35a.33.33 0 0 0 .37.15l7.5-1.85a.33.33 0 0 0 .25-.32l.37-30.53a.33.33 0 0 0-.4-.32l-7.41 1.74a.33.33 0 0 0-.25.32v16.87a.33.33 0 0 1-.61.17l-9.41-14.5a.33.33 0 0 0-.36-.14l-7.58 1.84a.33.33 0 0 0-.25.32l-.46 30.67a.33.33 0 0 0 .41.32l7.23-1.91a.33.33 0 0 0 .25-.31l.4-17.7Zm-18.39-8.63a.36.36 0 0 0-.28.35l-.61 30.47a.36.36 0 0 0 .44.36l7.39-1.78a.36.36 0 0 0 .27-.35l.37-30.45a.36.36 0 0 0-.44-.36l-7.14 1.76Zm-19.17 23.18a.32.32 0 0 1 .24-.3l13.39-3.46a.32.32 0 0 0 .24-.31l-.04-5.08a.32.32 0 0 0-.39-.31l-13.11 3.14a.32.32 0 0 1-.39-.32V30.6a.32.32 0 0 1 .24-.31l14.35-3.7a.32.32 0 0 0 .24-.32l-.17-5.24a.32.32 0 0 0-.4-.3l-21.98 5.54a.32.32 0 0 0-.24.31l-.13 30.44a.32.32 0 0 0 .4.31l22.8-5.6a.32.32 0 0 0 .24-.32l-.15-5.76a.32.32 0 0 0-.4-.3l-14.55 3.67a.32.32 0 0 1-.4-.33l.21-6.03Zm-15.26-8.69c-4.83-6.65-15.77-1.95-22.15-.24q-.54.14-.55.7l-.45 30.19q-.01.49.47.37l7.12-1.89q.51-.13.51-.67v-9.61q0-.61.58-.79l2.72-.87q.73-.23 1.14.43l5.19 8.49q.27.45.79.33l6.91-1.7q.64-.16.31-.73l-5.16-8.75a.63.62 53.3 0 1 .11-.77q7.72-7.25 2.46-14.49Zm-43.61 10.11c-4.99-5.76-14.32-1.5-21.74.42q-.42.11-.42.54l-.43 29.93q-.01.8.78.62l6.4-1.55q.73-.17.75-.92l.3-9.69q.02-.51.5-.65l2.87-.86q.62-.18.96.37l5.26 8.58q.31.5.87.35l6.72-1.82q.65-.17.31-.75l-4.99-8.43a.85.84 52 0 1 .12-1.02q7.85-8.06 1.74-15.12ZM.75 133.04a.47.47 0 0 0 .58.45l297.31-74.16a.47.47 0 0 0 .36-.46V45.42a.47.47 0 0 0-.58-.45L1.11 119.2a.47.47 0 0 0-.36.46v13.38Zm126.42-74.63c-3.66-13.5-22.85-9.32-28.01.51-3.98 7.58-2.51 21.57 8.1 23.04 14.19 1.98 23.55-10.11 19.91-23.55Zm-46.89 6.51a.51.51 0 0 1 .64.51l-.47 23.19a.51.51 0 0 0 .63.51l6.94-1.65a.51.51 0 0 0 .39-.48l.53-23.99a.51.51 0 0 1 .4-.49l7.63-1.73a.51.51 0 0 0 .4-.46l.44-5.75a.51.51 0 0 0-.63-.53l-24.79 6.06a.51.51 0 0 0-.39.5v5.72a.51.51 0 0 0 .63.49l7.65-1.9Zm-8.6 18.37-5.63-1.66q-.57-.16-.8.39c-.74 1.81-1.58 3.77-2.97 5.03-3.98 3.57-8.75 1.48-10.08-3.38-1.37-5 .39-13.01 6.35-14.29q3.89-.84 5.96 3.43.25.52.73.19l4.57-3.2a.86.85 56.3 0 0 .23-1.17c-6.01-9.28-17.81-5.62-23.11 1.91-6.39 9.09-3.33 26.38 10.82 24.67q10.86-1.31 14.1-11.59a.26.26 0 0 0-.17-.33Zm217.45-13.26q3.2-3.51 7.72-1.9.75.26.57-.52c-1.01-4.37-8.47.48-9.8 2.53q-.26.42-.16.9c.65 3.09 5.95.94 8.39.92a1.12 1.12 0 0 1 .88 1.82c-3.22 4.02-8.6 1.16-9.36 2.27a1.07 1.06-68.1 0 0 .7 1.65q6.44 1.04 9.56-3.08c1.08-1.43.76-3.77-.95-4.42-1.72-.66-4.88.98-7.21.73q-1.06-.11-.34-.9Zm-255.28-.8a.34.34 0 0 0-.26.33l-.5 30.62a.34.34 0 0 0 .42.33l7.36-1.81a.34.34 0 0 0 .26-.32l.35-30.51a.34.34 0 0 0-.41-.33l-7.22 1.69ZM15.81 92.88a.31.31 0 0 1-.58.03L8.31 75.96a.31.31 0 0 0-.36-.19L.47 77.55a.31.31 0 0 0-.21.43l12.29 27.48a.31.31 0 0 0 .36.18l7.51-1.87a.31.31 0 0 0 .22-.21l10.01-32.99a.31.31 0 0 0-.37-.39l-8.26 2.07a.31.31 0 0 0-.22.21l-5.99 20.42Zm256.44-19.13V82q0 .5.5.5h.6q.6 0 .6-.59l.07-8.5q.01-.56.53-.76c1.12-.42 4.64-.44 4.14-2.13a.45.44 74.7 0 0-.54-.31L267.68 73q-.62.16-.42.77c.34 1.07 3.64-.21 4.45-.43q.54-.14.54.41ZM252.8 86.18c-7.37.62-2.73-12.02 5.04-7.72a.52.52 0 0 0 .72-.67c-.63-1.35-1.8-1.9-3.31-1.78-8.93.69-10.66 13.74-1.51 11.44.81-.2 6.41-3.29 4.44-4.53q-.47-.3-.74.19-1.55 2.81-4.64 3.07Zm-22.36 4.68a1.03 1.02-84.4 0 1-.78-.96l-.23-6.85q-.02-.49-.5-.55-.17-.02-.36 0-.53.03-.53.56l-.04 7.4a2.15 2.14-86.5 0 0 1.88 2.13c9.08 1.13 8.04-6.02 8.12-12a.47.47 0 0 0-.72-.4c-1.28.84-.78 6.4-.79 8q0 .54-.35.94-2.23 2.54-5.7 1.73Zm-13.13-3.42c-2.3-1.86-6.29-.34-8.76.53q-.55.19-.55.78V98q0 .6.6.54 4.27-.38 7.14-2.3c2.79-1.85 4.86-6.16 1.57-8.8Zm-19.77 5.655a6.73 5.14-39 0 0-8.465.24 6.73 5.14-39 0 0-1.995 8.23 6.73 5.14-39 0 0 8.465-.24 6.73 5.14-39 0 0 1.995-8.23Zm-28.96 10.145 3.28-.57q.58-.1.93.38l2.64 3.65q.32.45.85.29l.55-.18q.87-.27.32-.99l-2.69-3.53q-.32-.42.16-.63 2.75-1.22 2.3-4.12a1.41 1.4-10.4 0 0-1.69-1.16l-8.15 1.8q-.58.13-.58.73v9.53q0 .57.57.56h.44q.49 0 .49-.49v-4.59q0-.59.58-.68Zm-19.31 5.49c3.08-.06 8.35-1.35 7.97-4.99-.43-4.05-7.19-1.31-9.56-.62a.95.95 0 0 0-.68.91v8.82q0 .55.35.98.63.77 1.18-.23.22-.41.22-.87v-3.47q0-.52.52-.53Zm-27.4 6.94c1.1 3.97-2.92 4.7-5.96 4.2q-.47-.07-.78-.44c-3.92-4.62 2.88-8.89 7.66-7.38a.42.42 0 0 0 .52-.56c-1.57-3.81-7.8-.1-9.28 1.81-2.86 3.7-1.7 9.45 4.21 8.18q6.42-1.37 5.54-7.37-.08-.55-.64-.51c-1.16.09-6.98.96-6.33 2.49q.18.42.62.31l3.95-1.02q.39-.1.49.29Zm-28.21 3.59a.31.31 0 0 1 .53-.22l6.55 6.45a1.2 1.19-65.1 0 0 2.03-.75c.07-.81 1.3-11.74-1.21-10.03q-.39.26-.38.73l.26 7.6a.31.31 0 0 1-.53.23l-5.67-5.65q-.19-.19-.4-.34-1.25-.92-2.34-.3-.49.27-.49.84l-.01 9.61q0 .57.56.57h.57q.61 0 .6-.61l-.07-8.13Zm-12.618 1.077a.3.3 0 0 0-.301-.299l-.96.004a.3.3 0 0 0-.299.3l.036 10.34a.3.3 0 0 0 .301.3l.96-.004a.3.3 0 0 0 .299-.3l-.036-10.34ZM62.94 133.28l.03-8.19q0-.6-.61-.59-.25.01-.5 0-.6-.01-.6.59l-.01 9.85q0 .7.68.54l7.38-1.67q.47-.11.48-.59c.05-1.85-6.09.43-6.31.48q-.55.15-.54-.42Zm-13.32 3.68.74 1.04q.33.46.89.34c.97-.2.87-.76.43-1.48q-2.42-3.89-4.35-7.47a1.34 1.34 0 0 0-2.42.11l-4.76 11.23a.57.57 0 0 0 1.02.5l1.54-2.75q.23-.4.68-.51l5.34-1.33q.56-.14.89.32Zm-25.87 6.34v-2.89q0-.64.62-.79l5.37-1.37q.72-.18.32-.8c-.67-1.07-4.79.53-5.75.69q-.58.1-.57-.48l.03-1.46q.01-.67.67-.82l6.64-1.53q.43-.1.42-.54v-.33q.01-.59-.56-.45l-8.12 1.96q-.57.14-.57.73v9.75q0 .58.57.47c1.31-.27 8.61-1.65 8.63-3.02q0-.53-.51-.4l-6.64 1.7q-.55.14-.55-.42Z"/><path fill="#055497" d="M307.91 4.18a4.09 4.09 0 0 1-4.09 4.09 4.09 4.09 0 0 1-4.09-4.09 4.09 4.09 0 0 1 4.09-4.09 4.09 4.09 0 0 1 4.09 4.09Zm-.96 1.16c2.62-4.3-6.2-6.98-6.37-1.57-.03.9.44 1.61.43 2.66q0 .48.46.64c1.22.42 5.23.77 5.31-1.17q.01-.3.17-.56Z"/><path fill="#fff" d="M306.78 5.9c-.08 1.94-4.09 1.59-5.31 1.17q-.46-.16-.46-.64c.01-1.05-.46-1.76-.43-2.66.17-5.41 8.99-2.73 6.37 1.57q-.16.26-.17.56Zm-3.81-.53q.65-1.56-.01-3.03-.58-1.26-.69.12-.12 1.37.05 2.82.15 1.27.65.09Zm2.66.43.54-3.56a.15.15 0 0 0-.13-.17l-.09-.01a1.86 1.52-81.4 0 0-1.78 1.61l-.02.18a1.86 1.52-81.4 0 0 1.22 2.06l.09.02a.15.15 0 0 0 .17-.13Z"/><path fill="#055497" d="M302.32 5.28q-.17-1.45-.05-2.82.11-1.38.69-.12.66 1.47.01 3.03-.5 1.18-.65-.09ZM305.63 5.8a.15.15 0 0 1-.17.13l-.09-.02a1.86 1.52-81.4 0 1-1.22-2.06l.02-.18a1.86 1.52-81.4 0 1 1.78-1.61l.09.01a.15.15 0 0 1 .13.17l-.54 3.56Z"/><path fill="#020202" d="m286.68 12.69-11.07 2.84q-.61.15-.61-.48V9.64q0-.65.63-.81l21.65-5.32q.63-.16.68.49c.15 2.13.32 4.14-.75 6.14q-5.22 9.76-10.34 19.57-.25.5.28.36l12.96-3.28q.65-.16.64.51l-.01 5.88q0 .57-.56.71l-24.65 6.16a.37.37 0 0 1-.46-.32c-.34-2.92-.08-4.99 1.44-7.68q5.31-9.42 10.53-18.9.35-.65-.36-.46ZM251.62 28.11l-.4 17.7a.33.33 0 0 1-.25.31l-7.23 1.91a.33.33 0 0 1-.41-.32l.46-30.67a.33.33 0 0 1 .25-.32l7.58-1.84a.33.33 0 0 1 .36.14l9.41 14.5a.33.33 0 0 0 .61-.17V12.48a.33.33 0 0 1 .25-.32l7.41-1.74a.33.33 0 0 1 .4.32l-.37 30.53a.33.33 0 0 1-.25.32l-7.5 1.85a.33.33 0 0 1-.37-.15l-9.33-15.35a.33.33 0 0 0-.62.17ZM233.23 19.48l7.14-1.76a.36.36 0 0 1 .44.36l-.37 30.45a.36.36 0 0 1-.27.35l-7.39 1.78a.36.36 0 0 1-.44-.36l.61-30.47a.36.36 0 0 1 .28-.35ZM214.06 42.66l-.21 6.03a.32.32 0 0 0 .4.33l14.55-3.67a.32.32 0 0 1 .4.3l.15 5.76a.32.32 0 0 1-.24.32l-22.8 5.6a.32.32 0 0 1-.4-.31l.13-30.44a.32.32 0 0 1 .24-.31l21.98-5.54a.32.32 0 0 1 .4.3l.17 5.24a.32.32 0 0 1-.24.32l-14.35 3.7a.32.32 0 0 0-.24.31v5.42a.32.32 0 0 0 .39.32l13.11-3.14a.32.32 0 0 1 .39.31l.04 5.08a.32.32 0 0 1-.24.31l-13.39 3.46a.32.32 0 0 0-.24.3ZM198.8 33.97q5.26 7.24-2.46 14.49a.63.62 53.3 0 0-.11.77l5.16 8.75q.33.57-.31.73l-6.91 1.7q-.52.12-.79-.33l-5.19-8.49q-.41-.66-1.14-.43l-2.72.87q-.58.18-.58.79v9.61q0 .54-.51.67l-7.12 1.89q-.48.12-.47-.37l.45-30.19q.01-.56.55-.7c6.38-1.71 17.32-6.41 22.15.24ZM184.63 45l8.84-2.48a.23.23 0 0 0 .16-.29l-.5-1.75a3.99 3.04 74.3 0 0-4-3.02l-3.43.96a3.99 3.04 74.3 0 0-1.85 4.67l.49 1.75a.23.23 0 0 0 .29.16Z"/><path fill="#fff" d="M184.63 45a.23.23 0 0 1-.29-.16l-.49-1.75a3.99 3.04 74.3 0 1 1.85-4.67l3.43-.96a3.99 3.04 74.3 0 1 4 3.02l.5 1.75a.23.23 0 0 1-.16.29L184.63 45Z"/><path fill="#020202" d="M155.19 44.08q6.11 7.06-1.74 15.12a.85.84 52 0 0-.12 1.02l4.99 8.43q.34.58-.31.75l-6.72 1.82q-.56.15-.87-.35l-5.26-8.58q-.34-.55-.96-.37l-2.87.86q-.48.14-.5.65l-.3 9.69q-.02.75-.75.92l-6.4 1.55q-.79.18-.78-.62l.43-29.93q0-.43.42-.54c7.42-1.92 16.75-6.18 21.74-.42ZM148 48.34q-.51-.26-1.07-.14l-5.52 1.21q-.46.1-.46.58l-.02 5.32q0 .51.5.42 5.5-1.02 6.91-1.85c2.52-1.48 2.27-4.21-.34-5.54Z"/><path fill="#055497" d="M.75 133.04v-13.38a.47.47 0 0 1 .36-.46l297.31-74.23a.47.47 0 0 1 .58.45v13.45a.47.47 0 0 1-.36.46L1.33 133.49a.47.47 0 0 1-.58-.45Z"/><path fill="#fff" d="M148 48.34c2.61 1.33 2.86 4.06.34 5.54q-1.41.83-6.91 1.85-.5.09-.5-.42l.02-5.32q0-.48.46-.58l5.52-1.21q.56-.12 1.07.14Z"/><path fill="#020202" d="M99.16 58.92c5.16-9.83 24.35-14.01 28.01-.51 3.64 13.44-5.72 25.53-19.91 23.55-10.61-1.47-12.08-15.46-8.1-23.04Zm11.202 16.588a9.7 7.04 103.1 0 0 9.055-7.852 9.7 7.04 103.1 0 0-4.659-11.044 9.7 7.04 103.1 0 0-9.055 7.852 9.7 7.04 103.1 0 0 4.659 11.044ZM80.28 64.92l-7.65 1.9a.51.51 0 0 1-.63-.49v-5.72a.51.51 0 0 1 .39-.5l24.79-6.06a.51.51 0 0 1 .63.53l-.44 5.75a.51.51 0 0 1-.4.46l-7.63 1.73a.51.51 0 0 0-.4.49L88.41 87a.51.51 0 0 1-.39.48l-6.94 1.65a.51.51 0 0 1-.63-.51l.47-23.19a.51.51 0 0 0-.64-.51Z"/><ellipse fill="#fff" rx="9.7" ry="7.04" transform="rotate(103.1 30.054 77.717)"/><path fill="#020202" d="M71.68 83.29a.26.26 0 0 1 .17.33q-3.24 10.28-14.1 11.59C43.6 96.92 40.54 79.63 46.93 70.54c5.3-7.53 17.1-11.19 23.11-1.91a.86.85 56.3 0 1-.23 1.17L65.24 73q-.48.33-.73-.19-2.07-4.27-5.96-3.43c-5.96 1.28-7.72 9.29-6.35 14.29 1.33 4.86 6.1 6.95 10.08 3.38 1.39-1.26 2.23-3.22 2.97-5.03q.23-.55.8-.39l5.63 1.66ZM289.47 70.93c2.33.25 5.49-1.39 7.21-.73 1.71.65 2.03 2.99.95 4.42q-3.12 4.12-9.56 3.08a1.07 1.06-68.1 0 1-.7-1.65c.76-1.11 6.14 1.75 9.36-2.27a1.12 1.12 0 0 0-.88-1.82c-2.44.02-7.74 2.17-8.39-.92q-.1-.48.16-.9c1.33-2.05 8.79-6.9 9.8-2.53q.18.78-.57.52-4.52-1.61-7.72 1.9-.72.79.34.9ZM33.85 69.23l7.22-1.69a.34.34 0 0 1 .41.33l-.35 30.51a.34.34 0 0 1-.26.32l-7.36 1.81a.34.34 0 0 1-.42-.33l.5-30.62a.34.34 0 0 1 .26-.33ZM15.81 92.88l5.99-20.42a.31.31 0 0 1 .22-.21l8.26-2.07a.31.31 0 0 1 .37.39l-10.01 32.99a.31.31 0 0 1-.22.21l-7.51 1.87a.31.31 0 0 1-.36-.18L.26 77.98a.31.31 0 0 1 .21-.43l7.48-1.78a.31.31 0 0 1 .36.19l6.92 16.95a.31.31 0 0 0 .58-.03ZM271.71 73.34c-.81.22-4.11 1.5-4.45.43q-.2-.61.42-.77l10.47-2.79a.45.44 74.7 0 1 .54.31c.5 1.69-3.02 1.71-4.14 2.13q-.52.2-.53.76l-.07 8.5q0 .59-.6.59h-.6q-.5 0-.5-.5v-8.25q0-.55-.54-.41ZM252.8 86.18q3.09-.26 4.64-3.07.27-.49.74-.19c1.97 1.24-3.63 4.33-4.44 4.53-9.15 2.3-7.42-10.75 1.51-11.44 1.51-.12 2.68.43 3.31 1.78a.52.52 0 0 1-.72.67c-7.77-4.3-12.41 8.34-5.04 7.72ZM230.44 90.86q3.47.81 5.7-1.73.35-.4.35-.94c.01-1.6-.49-7.16.79-8a.47.47 0 0 1 .72.4c-.08 5.98.96 13.13-8.12 12a2.15 2.14-86.5 0 1-1.88-2.13l.04-7.4q0-.53.53-.56.19-.02.36 0 .48.06.5.55l.23 6.85a1.03 1.02-84.4 0 0 .78.96ZM217.31 87.44c3.29 2.64 1.22 6.95-1.57 8.8q-2.87 1.92-7.14 2.3-.6.06-.6-.54v-9.25q0-.59.55-.78c2.47-.87 6.46-2.39 8.76-.53Zm-3.8.68q-1.53.16-3.26.92a1.05 1.04 77.6 0 0-.62.97l.11 6.6q.01.38.38.33 3.01-.41 5.26-2.12c2.71-2.05 2.85-7.19-1.87-6.7Z"/><path fill="#fff" d="M213.51 88.12c4.72-.49 4.58 4.65 1.87 6.7q-2.25 1.71-5.26 2.12-.37.05-.38-.33l-.11-6.6a1.05 1.04 77.6 0 1 .62-.97q1.73-.76 3.26-.92Z"/><path fill="#020202" d="M197.54 93.095a6.73 5.14-39 0 1-1.995 8.23 6.73 5.14-39 0 1-8.465.24 6.73 5.14-39 0 1 1.995-8.23 6.73 5.14-39 0 1 8.465-.24Zm-1.372.939a5.06 3.71-40.5 0 0-6.257.465 5.06 3.71-40.5 0 0-1.439 6.107 5.06 3.71-40.5 0 0 6.257-.465 5.06 3.71-40.5 0 0 1.439-6.107Z"/><ellipse fill="#fff" rx="5.06" ry="3.71" transform="rotate(-40.5 228.059 -211.993)"/><path fill="#020202" d="M168 103.92v4.59q0 .49-.49.49h-.44q-.57.01-.57-.56v-9.53q0-.6.58-.73l8.15-1.8a1.41 1.4-10.4 0 1 1.69 1.16q.45 2.9-2.3 4.12-.48.21-.16.63l2.69 3.53q.55.72-.32.99l-.55.18q-.53.16-.85-.29l-2.64-3.65q-.35-.48-.93-.38l-3.28.57q-.58.09-.58.68Zm7.543-5.304a1.01 1.01 0 0 0-1.235-.716l-5.702 1.517a1.01 1.01 0 0 0-.716 1.236l.067.25a1.01 1.01 0 0 0 1.235.717l5.702-1.517a1.01 1.01 0 0 0 .716-1.236l-.067-.25Z"/><rect width="7.92" height="2.28" x="-3.96" y="-1.14" fill="#fff" rx="1.01" transform="rotate(-14.9 467.323 -606.833)"/><path fill="#020202" d="M148.75 109.26v3.47q0 .46-.22.87-.55 1-1.18.23-.35-.43-.35-.98v-8.82a.95.95 0 0 1 .68-.91c2.37-.69 9.13-3.43 9.56.62.38 3.64-4.89 4.93-7.97 4.99q-.52.01-.52.53Zm.59-1.52 6.45-2.02a.29.29 0 0 0 .19-.36l-.27-.87a2.2 1.75 72.6 0 0-2.33-1.58l-3.66 1.15a2.2 1.75 72.6 0 0-1.01 2.62l.27.87a.29.29 0 0 0 .36.19Z"/><path fill="#fff" d="M149.34 107.74a.29.29 0 0 1-.36-.19l-.27-.87a2.2 1.75 72.6 0 1 1.01-2.62l3.66-1.15a2.2 1.75 72.6 0 1 2.33 1.58l.27.87a.29.29 0 0 1-.19.36l-6.45 2.02Z"/><path fill="#020202" d="m121.38 115.38-3.95 1.02q-.44.11-.62-.31c-.65-1.53 5.17-2.4 6.33-2.49q.56-.04.64.51.88 6-5.54 7.37c-5.91 1.27-7.07-4.48-4.21-8.18 1.48-1.91 7.71-5.62 9.28-1.81a.42.42 0 0 1-.52.56c-4.78-1.51-11.58 2.76-7.66 7.38q.31.37.78.44c3.04.5 7.06-.23 5.96-4.2q-.1-.39-.49-.29ZM93.66 119.26l.07 8.13q.01.61-.6.61h-.57q-.56 0-.56-.57l.01-9.61q0-.57.49-.84 1.09-.62 2.34.3.21.15.4.34l5.67 5.65a.31.31 0 0 0 .53-.23l-.26-7.6q-.01-.47.38-.73c2.51-1.71 1.28 9.22 1.21 10.03a1.2 1.19-65.1 0 1-2.03.75l-6.55-6.45a.31.31 0 0 0-.53.22Z"/><rect width="1.56" height="10.94" x="-.78" y="-5.47" fill="#020202" rx=".3" transform="rotate(-.2 35996.07 -22935.748)"/><path fill="#020202" d="M63.48 133.7c.22-.05 6.36-2.33 6.31-.48q-.01.48-.48.59l-7.38 1.67q-.68.16-.68-.54l.01-9.85q0-.6.6-.59.25.01.5 0 .61-.01.61.59l-.03 8.19q-.01.57.54.42ZM48.73 136.64l-5.34 1.33q-.45.11-.68.51l-1.54 2.75a.57.57 0 0 1-1.02-.5l4.76-11.23a1.34 1.34 0 0 1 2.42-.11q1.93 3.58 4.35 7.47c.44.72.54 1.28-.43 1.48q-.56.12-.89-.34l-.74-1.04q-.33-.46-.89-.32Zm-2.26-5.45a.48.48 0 0 0-.86.05l-1.86 4.36a.48.48 0 0 0 .56.65l3.71-.99a.48.48 0 0 0 .3-.7l-1.85-3.37Z"/><path fill="#fff" d="m46.47 131.19 1.85 3.37a.48.48 0 0 1-.3.7l-3.71.99a.48.48 0 0 1-.56-.65l1.86-4.36a.48.48 0 0 1 .86-.05Z"/><path fill="#020202" d="m24.3 143.72 6.64-1.7q.51-.13.51.4c-.02 1.37-7.32 2.75-8.63 3.02q-.57.11-.57-.47v-9.75q0-.59.57-.73l8.12-1.96q.57-.14.56.45v.33q.01.44-.42.54l-6.64 1.53q-.66.15-.67.82l-.03 1.46q-.01.58.57.48c.96-.16 5.08-1.76 5.75-.69q.4.62-.32.8l-5.37 1.37q-.62.15-.62.79v2.89q0 .56.55.42ZM5.19 150H3.44l-1.9-.8q-.73-.3-.27-.94l.51-.69q.24-.34.61-.16 4.88 2.45 8.15-1.72a1.08 1.07 18 0 0-.89-1.73c-1.8.06-5.53 1.3-6.93.72-1.58-.66-1.58-2.29-.5-3.49q3.36-3.75 8.4-2.96.57.08.6.66l.04.79q.03.63-.57.44-4.33-1.4-7.49 1.75-.46.44 0 .89c.73.73 5.71-.54 7.09-.54q.51 0 .9.34c4.21 3.65-3.19 7.2-6 7.44Z"/></svg>